{
  "header": {
    "keySignatures": [],
    "meta": [],
    "name": "",
    "ppq": 96,
    "tempos": [
      {
        "bpm": 130.00013000013,
        "ticks": 0
      }
    ],
    "timeSignatures": [
      {
        "ticks": 0,
        "timeSignature": [
          4,
          4
        ],
        "measures": 0
      }
    ]
  },
  "tracks": [
    {
      "channel": 0,
      "controlChanges": {},
      "pitchBends": [],
      "instrument": {
        "family": "piano",
        "number": 0,
        "name": "acoustic grand piano"
      },
      "name": "Drumaxx 1",
      "notes": [
        {
          "duration": 0.1394229375,
          "durationTicks": 29,
          "midi": 70,
          "name": "A#4",
          "ticks": 430,
          "time": 2.067305625,
          "velocity": 0.5039370078740157
        },
        {
          "duration": 0.20192287500000017,
          "durationTicks": 42,
          "midi": 68,
          "name": "G#4",
          "ticks": 510,
          "time": 2.4519206249999996,
          "velocity": 0.5039370078740157
        },
        {
          "duration": 0.36538424999999997,
          "durationTicks": 76,
          "midi": 61,
          "name": "C#4",
          "ticks": 575,
          "time": 2.7644203124999995,
          "velocity": 0.5039370078740157
        },
        {
          "duration": 0.048076874999999575,
          "durationTicks": 10,
          "midi": 63,
          "name": "D#4",
          "ticks": 652,
          "time": 3.13461225,
          "velocity": 0.5039370078740157
        },
        {
          "duration": 0.1634613749999998,
          "durationTicks": 34,
          "midi": 52,
          "name": "E3",
          "ticks": 664,
          "time": 3.1923044999999997,
          "velocity": 0.5039370078740157
        },
        {
          "duration": 0.0817306874999999,
          "durationTicks": 17,
          "midi": 59,
          "name": "B3",
          "ticks": 699,
          "time": 3.3605735624999995,
          "velocity": 0.5039370078740157
        },
        {
          "duration": 0.0817306874999999,
          "durationTicks": 17,
          "midi": 50,
          "name": "D3",
          "ticks": 717,
          "time": 3.4471119374999994,
          "velocity": 0.5039370078740157
        },
        {
          "duration": 0.09615375000000004,
          "durationTicks": 20,
          "midi": 59,
          "name": "B3",
          "ticks": 735,
          "time": 3.5336503124999994,
          "velocity": 0.5039370078740157
        },
        {
          "duration": 0.07211531250000025,
          "durationTicks": 15,
          "midi": 64,
          "name": "E4",
          "ticks": 756,
          "time": 3.6346117499999995,
          "velocity": 0.5039370078740157
        },
        {
          "duration": 0.3317304375000001,
          "durationTicks": 69,
          "midi": 64,
          "name": "E4",
          "ticks": 772,
          "time": 3.7115347499999993,
          "velocity": 0.5039370078740157
        },
        {
          "duration": 0.1538459999999997,
          "durationTicks": 32,
          "midi": 59,
          "name": "B3",
          "ticks": 842,
          "time": 4.048072875,
          "velocity": 0.5039370078740157
        },
        {
          "duration": 0.22115362500000035,
          "durationTicks": 46,
          "midi": 59,
          "name": "B3",
          "ticks": 874,
          "time": 4.201918875,
          "velocity": 0.5039370078740157
        },
        {
          "duration": 0.14903831249999921,
          "durationTicks": 31,
          "midi": 60,
          "name": "C4",
          "ticks": 921,
          "time": 4.4278801875,
          "velocity": 0.5039370078740157
        },
        {
          "duration": 0.4615379999999991,
          "durationTicks": 96,
          "midi": 60,
          "name": "C4",
          "ticks": 953,
          "time": 4.5817261875,
          "velocity": 0.5039370078740157
        },
        {
          "duration": 0.1682690625000003,
          "durationTicks": 35,
          "midi": 60,
          "name": "C4",
          "ticks": 1050,
          "time": 5.048071875,
          "velocity": 0.5039370078740157
        },
        {
          "duration": 0.20673056249999977,
          "durationTicks": 43,
          "midi": 60,
          "name": "C4",
          "ticks": 1085,
          "time": 5.2163409375,
          "velocity": 0.5039370078740157
        },
        {
          "duration": 0.052884562500000065,
          "durationTicks": 11,
          "midi": 62,
          "name": "D4",
          "ticks": 1129,
          "time": 5.427879187499999,
          "velocity": 0.5118110236220472
        },
        {
          "duration": 0.7067300625000001,
          "durationTicks": 147,
          "midi": 62,
          "name": "D4",
          "ticks": 1141,
          "time": 5.485571437499999,
          "velocity": 0.5039370078740157
        },
        {
          "duration": 0.20192287500000017,
          "durationTicks": 42,
          "midi": 59,
          "name": "B3",
          "ticks": 1289,
          "time": 6.1971091875,
          "velocity": 0.5039370078740157
        },
        {
          "duration": 0.06249993749999927,
          "durationTicks": 13,
          "midi": 59,
          "name": "B3",
          "ticks": 1332,
          "time": 6.4038397499999995,
          "velocity": 0.5118110236220472
        },
        {
          "duration": 0.18269212499999998,
          "durationTicks": 38,
          "midi": 54,
          "name": "F#3",
          "ticks": 1346,
          "time": 6.471147374999999,
          "velocity": 0.5118110236220472
        },
        {
          "duration": 0.1634613749999998,
          "durationTicks": 34,
          "midi": 60,
          "name": "C4",
          "ticks": 1385,
          "time": 6.6586471875,
          "velocity": 0.5118110236220472
        },
        {
          "duration": 0.12019218750000071,
          "durationTicks": 25,
          "midi": 59,
          "name": "B3",
          "ticks": 1420,
          "time": 6.826916249999999,
          "velocity": 0.5118110236220472
        },
        {
          "duration": 0.24038437499999965,
          "durationTicks": 50,
          "midi": 59,
          "name": "B3",
          "ticks": 1446,
          "time": 6.9519161249999994,
          "velocity": 0.5118110236220472
        },
        {
          "duration": 0.28365356249999873,
          "durationTicks": 59,
          "midi": 57,
          "name": "A3",
          "ticks": 1497,
          "time": 7.1971081875,
          "velocity": 0.5118110236220472
        },
        {
          "duration": 0.07692300000000074,
          "durationTicks": 16,
          "midi": 69,
          "name": "A4",
          "ticks": 1556,
          "time": 7.480761749999998,
          "velocity": 0.5118110236220472
        },
        {
          "duration": 0.26442281249999944,
          "durationTicks": 55,
          "midi": 57,
          "name": "A3",
          "ticks": 1573,
          "time": 7.5624924374999996,
          "velocity": 0.5039370078740157
        },
        {
          "duration": 0.4567303124999986,
          "durationTicks": 95,
          "midi": 57,
          "name": "A3",
          "ticks": 1629,
          "time": 7.8317229374999995,
          "velocity": 0.5118110236220472
        },
        {
          "duration": 0.3461534999999998,
          "durationTicks": 72,
          "midi": 33,
          "name": "A1",
          "ticks": 1724,
          "time": 8.288453249999998,
          "velocity": 0.5039370078740157
        },
        {
          "duration": 0.1586536874999993,
          "durationTicks": 33,
          "midi": 57,
          "name": "A3",
          "ticks": 1797,
          "time": 8.6394144375,
          "velocity": 0.5118110236220472
        },
        {
          "duration": 0.07211531250000114,
          "durationTicks": 15,
          "midi": 58,
          "name": "A#3",
          "ticks": 1830,
          "time": 8.798068124999999,
          "velocity": 0.5196850393700787
        },
        {
          "duration": 0.22596131250000084,
          "durationTicks": 47,
          "midi": 47,
          "name": "B2",
          "ticks": 1847,
          "time": 8.879798812499999,
          "velocity": 0.5118110236220472
        },
        {
          "duration": 0.18269212500000265,
          "durationTicks": 38,
          "midi": 59,
          "name": "B3",
          "ticks": 1895,
          "time": 9.110567812499998,
          "velocity": 0.5118110236220472
        },
        {
          "duration": 0.39903806250000073,
          "durationTicks": 83,
          "midi": 59,
          "name": "B3",
          "ticks": 1934,
          "time": 9.298067624999998,
          "velocity": 0.5118110236220472
        },
        {
          "duration": 0.37980731250000055,
          "durationTicks": 79,
          "midi": 59,
          "name": "B3",
          "ticks": 2018,
          "time": 9.701913374999998,
          "velocity": 0.5118110236220472
        },
        {
          "duration": 0.09615375000000093,
          "durationTicks": 20,
          "midi": 60,
          "name": "C4",
          "ticks": 2098,
          "time": 10.086528374999999,
          "velocity": 0.5118110236220472
        },
        {
          "duration": 0.07211531249999936,
          "durationTicks": 15,
          "midi": 60,
          "name": "C4",
          "ticks": 2118,
          "time": 10.182682125,
          "velocity": 0.5118110236220472
        },
        {
          "duration": 0.5288456249999989,
          "durationTicks": 110,
          "midi": 60,
          "name": "C4",
          "ticks": 2133,
          "time": 10.254797437499999,
          "velocity": 0.5118110236220472
        },
        {
          "duration": 0.1442306250000005,
          "durationTicks": 30,
          "midi": 59,
          "name": "B3",
          "ticks": 2243,
          "time": 10.783643062499998,
          "velocity": 0.5196850393700787
        },
        {
          "duration": 0.1682690624999985,
          "durationTicks": 35,
          "midi": 60,
          "name": "C4",
          "ticks": 2274,
          "time": 10.932681375,
          "velocity": 0.5196850393700787
        },
        {
          "duration": 0.06730762499999798,
          "durationTicks": 14,
          "midi": 60,
          "name": "C4",
          "ticks": 2310,
          "time": 11.105758125,
          "velocity": 0.5118110236220472
        },
        {
          "duration": 0.19230750000000008,
          "durationTicks": 40,
          "midi": 62,
          "name": "D4",
          "ticks": 2325,
          "time": 11.177873437499999,
          "velocity": 0.5275590551181102
        },
        {
          "duration": 0.08653837499999995,
          "durationTicks": 18,
          "midi": 69,
          "name": "A4",
          "ticks": 2366,
          "time": 11.374988624999999,
          "velocity": 0.5275590551181102
        },
        {
          "duration": 0.2740381875000004,
          "durationTicks": 57,
          "midi": 62,
          "name": "D4",
          "ticks": 2385,
          "time": 11.466334687499998,
          "velocity": 0.5196850393700787
        },
        {
          "duration": 0.11057681249999796,
          "durationTicks": 23,
          "midi": 64,
          "name": "E4",
          "ticks": 2443,
          "time": 11.7451805625,
          "velocity": 0.5118110236220472
        },
        {
          "duration": 0.1586536874999993,
          "durationTicks": 33,
          "midi": 59,
          "name": "B3",
          "ticks": 2467,
          "time": 11.8605650625,
          "velocity": 0.5118110236220472
        },
        {
          "duration": 0.048076874999999575,
          "durationTicks": 10,
          "midi": 59,
          "name": "B3",
          "ticks": 2500,
          "time": 12.019218749999999,
          "velocity": 0.5196850393700787
        },
        {
          "duration": 0.278845875,
          "durationTicks": 58,
          "midi": 59,
          "name": "B3",
          "ticks": 2511,
          "time": 12.0721033125,
          "velocity": 0.5196850393700787
        },
        {
          "duration": 0.11538450000000111,
          "durationTicks": 24,
          "midi": 60,
          "name": "C4",
          "ticks": 2570,
          "time": 12.355756874999997,
          "velocity": 0.5118110236220472
        },
        {
          "duration": 0.057692250000000556,
          "durationTicks": 12,
          "midi": 60,
          "name": "C4",
          "ticks": 2595,
          "time": 12.475949062499998,
          "velocity": 0.5196850393700787
        },
        {
          "duration": 0.11057681249999796,
          "durationTicks": 23,
          "midi": 60,
          "name": "C4",
          "ticks": 2608,
          "time": 12.538449,
          "velocity": 0.5196850393700787
        },
        {
          "duration": 0.1538459999999997,
          "durationTicks": 32,
          "midi": 59,
          "name": "B3",
          "ticks": 2632,
          "time": 12.6538335,
          "velocity": 0.5196850393700787
        },
        {
          "duration": 0.10096143750000053,
          "durationTicks": 21,
          "midi": 59,
          "name": "B3",
          "ticks": 2665,
          "time": 12.812487187499999,
          "velocity": 0.5118110236220472
        },
        {
          "duration": 0.08173068749999857,
          "durationTicks": 17,
          "midi": 59,
          "name": "B3",
          "ticks": 2686,
          "time": 12.913448625,
          "velocity": 0.5118110236220472
        },
        {
          "duration": 0.11057681249999973,
          "durationTicks": 23,
          "midi": 57,
          "name": "A3",
          "ticks": 2704,
          "time": 12.999986999999999,
          "velocity": 0.5196850393700787
        },
        {
          "duration": 0.06730762499999976,
          "durationTicks": 14,
          "midi": 57,
          "name": "A3",
          "ticks": 2728,
          "time": 13.115371499999998,
          "velocity": 0.5118110236220472
        },
        {
          "duration": 0.3173073749999986,
          "durationTicks": 66,
          "midi": 57,
          "name": "A3",
          "ticks": 2743,
          "time": 13.1874868125,
          "velocity": 0.5118110236220472
        },
        {
          "duration": 0.04326918749999997,
          "durationTicks": 9,
          "midi": 68,
          "name": "G#4",
          "ticks": 2810,
          "time": 13.509601874999998,
          "velocity": 0.5196850393700787
        },
        {
          "duration": 0.44230724999999893,
          "durationTicks": 92,
          "midi": 57,
          "name": "A3",
          "ticks": 2820,
          "time": 13.55767875,
          "velocity": 0.5275590551181102
        },
        {
          "duration": 0.4855764375000007,
          "durationTicks": 101,
          "midi": 52,
          "name": "E3",
          "ticks": 2913,
          "time": 14.004793687499998,
          "velocity": 0.5196850393700787
        },
        {
          "duration": 0.23557668750000182,
          "durationTicks": 49,
          "midi": 57,
          "name": "A3",
          "ticks": 3015,
          "time": 14.495177812499998,
          "velocity": 0.5275590551181102
        },
        {
          "duration": 0.04326918750000175,
          "durationTicks": 9,
          "midi": 57,
          "name": "A3",
          "ticks": 3065,
          "time": 14.735562187499998,
          "velocity": 0.5354330708661418
        },
        {
          "duration": 0.10576912499999835,
          "durationTicks": 22,
          "midi": 56,
          "name": "G#3",
          "ticks": 3075,
          "time": 14.783639062499999,
          "velocity": 0.5275590551181102
        },
        {
          "duration": 0.06730762500000154,
          "durationTicks": 14,
          "midi": 59,
          "name": "B3",
          "ticks": 3097,
          "time": 14.889408187499997,
          "velocity": 0.5275590551181102
        },
        {
          "duration": 0.288461250000001,
          "durationTicks": 60,
          "midi": 59,
          "name": "B3",
          "ticks": 3112,
          "time": 14.961523499999997,
          "velocity": 0.5275590551181102
        },
        {
          "duration": 0.278845875,
          "durationTicks": 58,
          "midi": 55,
          "name": "G3",
          "ticks": 3173,
          "time": 15.254792437499999,
          "velocity": 0.5433070866141733
        },
        {
          "duration": 0.15865368750000108,
          "durationTicks": 33,
          "midi": 59,
          "name": "B3",
          "ticks": 3232,
          "time": 15.538445999999997,
          "velocity": 0.5196850393700787
        },
        {
          "duration": 0.05288456250000095,
          "durationTicks": 11,
          "midi": 59,
          "name": "B3",
          "ticks": 3265,
          "time": 15.697099687499998,
          "velocity": 0.5433070866141733
        },
        {
          "duration": 0.05288456250000095,
          "durationTicks": 11,
          "midi": 59,
          "name": "B3",
          "ticks": 3276,
          "time": 15.749984249999999,
          "velocity": 0.5354330708661418
        },
        {
          "duration": 0.048076874999999575,
          "durationTicks": 10,
          "midi": 60,
          "name": "C4",
          "ticks": 3288,
          "time": 15.807676499999998,
          "velocity": 0.5275590551181102
        },
        {
          "duration": 0.19230750000000008,
          "durationTicks": 40,
          "midi": 60,
          "name": "C4",
          "ticks": 3299,
          "time": 15.860561062499999,
          "velocity": 0.5275590551181102
        },
        {
          "duration": 0.4423072500000025,
          "durationTicks": 92,
          "midi": 60,
          "name": "C4",
          "ticks": 3340,
          "time": 16.057676249999997,
          "velocity": 0.5275590551181102
        },
        {
          "duration": 0.15384600000000148,
          "durationTicks": 32,
          "midi": 60,
          "name": "C4",
          "ticks": 3432,
          "time": 16.4999835,
          "velocity": 0.5433070866141733
        },
        {
          "duration": 0.12980756249999814,
          "durationTicks": 27,
          "midi": 53,
          "name": "F3",
          "ticks": 3465,
          "time": 16.6586371875,
          "velocity": 0.5354330708661418
        },
        {
          "duration": 0.06249993750000016,
          "durationTicks": 13,
          "midi": 60,
          "name": "C4",
          "ticks": 3493,
          "time": 16.793252437499998,
          "velocity": 0.5275590551181102
        },
        {
          "duration": 0.05769224999999878,
          "durationTicks": 12,
          "midi": 56,
          "name": "G#3",
          "ticks": 3507,
          "time": 16.8605600625,
          "velocity": 0.5511811023622047
        },
        {
          "duration": 0.12019218750000249,
          "durationTicks": 25,
          "midi": 61,
          "name": "C#4",
          "ticks": 3520,
          "time": 16.923059999999996,
          "velocity": 0.5511811023622047
        },
        {
          "duration": 0.09615374999999915,
          "durationTicks": 20,
          "midi": 62,
          "name": "D4",
          "ticks": 3546,
          "time": 17.048059875,
          "velocity": 0.5275590551181102
        },
        {
          "duration": 0.4182688125000027,
          "durationTicks": 87,
          "midi": 62,
          "name": "D4",
          "ticks": 3567,
          "time": 17.149021312499997,
          "velocity": 0.5196850393700787
        },
        {
          "duration": 0.21153825000000026,
          "durationTicks": 44,
          "midi": 63,
          "name": "D#4",
          "ticks": 3654,
          "time": 17.567290125,
          "velocity": 0.5354330708661418
        },
        {
          "duration": 0.20673056249999888,
          "durationTicks": 43,
          "midi": 59,
          "name": "B3",
          "ticks": 3699,
          "time": 17.783636062499998,
          "velocity": 0.5196850393700787
        },
        {
          "duration": 0.1298075625000017,
          "durationTicks": 27,
          "midi": 59,
          "name": "B3",
          "ticks": 3743,
          "time": 17.995174312499998,
          "velocity": 0.5275590551181102
        },
        {
          "duration": 0.18269212500000265,
          "durationTicks": 38,
          "midi": 60,
          "name": "C4",
          "ticks": 3771,
          "time": 18.129789562499997,
          "velocity": 0.5196850393700787
        },
        {
          "duration": 0.2740381875000004,
          "durationTicks": 57,
          "midi": 59,
          "name": "B3",
          "ticks": 3809,
          "time": 18.3124816875,
          "velocity": 0.5275590551181102
        },
        {
          "duration": 0.10096143750000053,
          "durationTicks": 21,
          "midi": 58,
          "name": "A#3",
          "ticks": 3867,
          "time": 18.5913275625,
          "velocity": 0.5590551181102362
        },
        {
          "duration": 0.12019218750000249,
          "durationTicks": 25,
          "midi": 58,
          "name": "A#3",
          "ticks": 3889,
          "time": 18.697096687499997,
          "velocity": 0.5275590551181102
        },
        {
          "duration": 0.18269212500000265,
          "durationTicks": 38,
          "midi": 57,
          "name": "A3",
          "ticks": 3915,
          "time": 18.822096562499997,
          "velocity": 0.5196850393700787
        },
        {
          "duration": 0.18269212500000265,
          "durationTicks": 38,
          "midi": 57,
          "name": "A3",
          "ticks": 3954,
          "time": 19.009596374999997,
          "velocity": 0.5196850393700787
        },
        {
          "duration": 0.3076919999999994,
          "durationTicks": 64,
          "midi": 57,
          "name": "A3",
          "ticks": 3993,
          "time": 19.197096187499998,
          "velocity": 0.5196850393700787
        },
        {
          "duration": 0.23557668750000005,
          "durationTicks": 49,
          "midi": 33,
          "name": "A1",
          "ticks": 4061,
          "time": 19.5240189375,
          "velocity": 0.5196850393700787
        },
        {
          "duration": 0.05769224999999878,
          "durationTicks": 12,
          "midi": 68,
          "name": "G#4",
          "ticks": 4111,
          "time": 19.764403312499997,
          "velocity": 0.5196850393700787
        },
        {
          "duration": 0.41346112499999776,
          "durationTicks": 86,
          "midi": 33,
          "name": "A1",
          "ticks": 4127,
          "time": 19.841326312499998,
          "velocity": 0.5118110236220472
        },
        {
          "duration": 0.16826906249999496,
          "durationTicks": 35,
          "midi": 57,
          "name": "A3",
          "ticks": 4214,
          "time": 20.259595125,
          "velocity": 0.5196850393700787
        },
        {
          "duration": 0.0528845624999974,
          "durationTicks": 11,
          "midi": 57,
          "name": "A3",
          "ticks": 4250,
          "time": 20.432671875,
          "velocity": 0.5196850393700787
        },
        {
          "duration": 0.19230750000000185,
          "durationTicks": 40,
          "midi": 58,
          "name": "A#3",
          "ticks": 4261,
          "time": 20.485556437499998,
          "velocity": 0.5196850393700787
        },
        {
          "duration": 0.08653837499999995,
          "durationTicks": 18,
          "midi": 59,
          "name": "B3",
          "ticks": 4302,
          "time": 20.682671624999998,
          "velocity": 0.5196850393700787
        },
        {
          "duration": 0.31730737500000217,
          "durationTicks": 66,
          "midi": 59,
          "name": "B3",
          "ticks": 4321,
          "time": 20.774017687499995,
          "velocity": 0.5196850393700787
        },
        {
          "duration": 0.25961512499999984,
          "durationTicks": 54,
          "midi": 33,
          "name": "A1",
          "ticks": 4388,
          "time": 21.09613275,
          "velocity": 0.5118110236220472
        },
        {
          "duration": 0.16826906250000206,
          "durationTicks": 35,
          "midi": 59,
          "name": "B3",
          "ticks": 4443,
          "time": 21.360555562499997,
          "velocity": 0.5196850393700787
        },
        {
          "duration": 0.0528845624999974,
          "durationTicks": 11,
          "midi": 59,
          "name": "B3",
          "ticks": 4478,
          "time": 21.528824625,
          "velocity": 0.5118110236220472
        },
        {
          "duration": 0.09134606250000132,
          "durationTicks": 19,
          "midi": 59,
          "name": "B3",
          "ticks": 4489,
          "time": 21.581709187499996,
          "velocity": 0.5275590551181102
        },
        {
          "duration": 0.08173068749999857,
          "durationTicks": 17,
          "midi": 67,
          "name": "G4",
          "ticks": 4509,
          "time": 21.6778629375,
          "velocity": 0.5354330708661418
        },
        {
          "duration": 0.1730767499999999,
          "durationTicks": 36,
          "midi": 60,
          "name": "C4",
          "ticks": 4526,
          "time": 21.759593624999997,
          "velocity": 0.5354330708661418
        },
        {
          "duration": 0.048076874999999575,
          "durationTicks": 10,
          "midi": 59,
          "name": "B3",
          "ticks": 4563,
          "time": 21.9374780625,
          "velocity": 0.5354330708661418
        },
        {
          "duration": 0.41346112499999776,
          "durationTicks": 86,
          "midi": 60,
          "name": "C4",
          "ticks": 4574,
          "time": 21.990362625,
          "velocity": 0.5275590551181102
        },
        {
          "duration": 0.37019193749999957,
          "durationTicks": 77,
          "midi": 60,
          "name": "C4",
          "ticks": 4660,
          "time": 22.403823749999997,
          "velocity": 0.5275590551181102
        },
        {
          "duration": 0.4615380000000009,
          "durationTicks": 96,
          "midi": 62,
          "name": "D4",
          "ticks": 4737,
          "time": 22.774015687499997,
          "velocity": 0.5275590551181102
        },
        {
          "duration": 0.14423062500000228,
          "durationTicks": 30,
          "midi": 33,
          "name": "A1",
          "ticks": 4834,
          "time": 23.240361374999996,
          "velocity": 0.5118110236220472
        },
        {
          "duration": 0.2163459374999981,
          "durationTicks": 45,
          "midi": 68,
          "name": "G#4",
          "ticks": 4865,
          "time": 23.3893996875,
          "velocity": 0.5275590551181102
        },
        {
          "duration": 0.09134606249999777,
          "durationTicks": 19,
          "midi": 60,
          "name": "C4",
          "ticks": 4911,
          "time": 23.6105533125,
          "velocity": 0.5196850393700787
        },
        {
          "duration": 0.24038437499999787,
          "durationTicks": 50,
          "midi": 59,
          "name": "B3",
          "ticks": 4931,
          "time": 23.706707062499998,
          "velocity": 0.5196850393700787
        },
        {
          "duration": 0.16826906250000206,
          "durationTicks": 35,
          "midi": 74,
          "name": "D5",
          "ticks": 4981,
          "time": 23.947091437499996,
          "velocity": 0.5039370078740157
        },
        {
          "duration": 0.04326918750000175,
          "durationTicks": 9,
          "midi": 60,
          "name": "C4",
          "ticks": 5017,
          "time": 24.120168187499996,
          "velocity": 0.5196850393700787
        },
        {
          "duration": 0.07692299999999719,
          "durationTicks": 16,
          "midi": 60,
          "name": "C4",
          "ticks": 5027,
          "time": 24.1682450625,
          "velocity": 0.5354330708661418
        },
        {
          "duration": 0.19711518750000323,
          "durationTicks": 41,
          "midi": 80,
          "name": "G#5",
          "ticks": 5043,
          "time": 24.245168062499996,
          "velocity": 0.5118110236220472
        },
        {
          "duration": 0.15384600000000148,
          "durationTicks": 32,
          "midi": 58,
          "name": "A#3",
          "ticks": 5088,
          "time": 24.461513999999998,
          "velocity": 0.5275590551181102
        },
        {
          "duration": 0.3124996875000008,
          "durationTicks": 65,
          "midi": 57,
          "name": "A3",
          "ticks": 5121,
          "time": 24.620167687499997,
          "velocity": 0.6456692913385826
        },
        {
          "duration": 0.6057686250000032,
          "durationTicks": 126,
          "midi": 33,
          "name": "A1",
          "ticks": 5187,
          "time": 24.937475062499995,
          "velocity": 0.5669291338582677
        },
        {
          "duration": 0.26923049999999904,
          "durationTicks": 56,
          "midi": 49,
          "name": "C#3",
          "ticks": 5314,
          "time": 25.548051374999996,
          "velocity": 0.7007874015748031
        },
        {
          "duration": 0.3124996875000008,
          "durationTicks": 65,
          "midi": 56,
          "name": "G#3",
          "ticks": 5379,
          "time": 25.860551062499997,
          "velocity": 0.5433070866141733
        },
        {
          "duration": 0.05769225000000233,
          "durationTicks": 12,
          "midi": 56,
          "name": "G#3",
          "ticks": 5445,
          "time": 26.177858437499996,
          "velocity": 0.5590551181102362
        },
        {
          "duration": 0.06730762500000154,
          "durationTicks": 14,
          "midi": 56,
          "name": "G#3",
          "ticks": 5458,
          "time": 26.240358374999996,
          "velocity": 0.5590551181102362
        },
        {
          "duration": 0.19711518750000323,
          "durationTicks": 41,
          "midi": 55,
          "name": "G3",
          "ticks": 5473,
          "time": 26.312473687499995,
          "velocity": 0.6062992125984252
        },
        {
          "duration": 0.12980756249999814,
          "durationTicks": 27,
          "midi": 59,
          "name": "B3",
          "ticks": 5514,
          "time": 26.509588875,
          "velocity": 0.5196850393700787
        },
        {
          "duration": 0.6682685625000033,
          "durationTicks": 139,
          "midi": 59,
          "name": "B3",
          "ticks": 5542,
          "time": 26.644204124999995,
          "velocity": 0.5196850393700787
        },
        {
          "duration": 0.18269212500000265,
          "durationTicks": 38,
          "midi": 57,
          "name": "A3",
          "ticks": 5682,
          "time": 27.317280374999996,
          "velocity": 0.5748031496062992
        },
        {
          "duration": 0.08653837499999995,
          "durationTicks": 18,
          "midi": 60,
          "name": "C4",
          "ticks": 5721,
          "time": 27.504780187499996,
          "velocity": 0.5275590551181102
        },
        {
          "duration": 0.11538449999999756,
          "durationTicks": 24,
          "midi": 57,
          "name": "A3",
          "ticks": 5740,
          "time": 27.596126249999998,
          "velocity": 0.5748031496062992
        },
        {
          "duration": 0.3076919999999994,
          "durationTicks": 64,
          "midi": 57,
          "name": "A3",
          "ticks": 5765,
          "time": 27.716318437499996,
          "velocity": 0.5905511811023622
        },
        {
          "duration": 0.30769200000000296,
          "durationTicks": 64,
          "midi": 58,
          "name": "A#3",
          "ticks": 5872,
          "time": 28.230740999999995,
          "velocity": 0.6141732283464567
        },
        {
          "duration": 0.06249993750000016,
          "durationTicks": 13,
          "midi": 59,
          "name": "B3",
          "ticks": 5937,
          "time": 28.543240687499996,
          "velocity": 0.5748031496062992
        },
        {
          "duration": 0.11538450000000111,
          "durationTicks": 24,
          "midi": 59,
          "name": "B3",
          "ticks": 5951,
          "time": 28.610548312499997,
          "velocity": 0.5669291338582677
        },
        {
          "duration": 0.10096143750000053,
          "durationTicks": 21,
          "midi": 59,
          "name": "B3",
          "ticks": 5976,
          "time": 28.730740499999996,
          "velocity": 0.5511811023622047
        },
        {
          "duration": 0.24519206249999925,
          "durationTicks": 51,
          "midi": 61,
          "name": "C#4",
          "ticks": 5997,
          "time": 28.831701937499997,
          "velocity": 0.5826771653543307
        },
        {
          "duration": 0.09615374999999915,
          "durationTicks": 20,
          "midi": 33,
          "name": "A1",
          "ticks": 6049,
          "time": 29.081701687499997,
          "velocity": 0.5118110236220472
        },
        {
          "duration": 0.20192287500000106,
          "durationTicks": 42,
          "midi": 58,
          "name": "A#3",
          "ticks": 6070,
          "time": 29.182663124999994,
          "velocity": 0.5905511811023622
        },
        {
          "duration": 0.16346137500000069,
          "durationTicks": 34,
          "midi": 59,
          "name": "B3",
          "ticks": 6113,
          "time": 29.389393687499997,
          "velocity": 0.5354330708661418
        },
        {
          "duration": 0.06730762499999798,
          "durationTicks": 14,
          "midi": 61,
          "name": "C#4",
          "ticks": 6148,
          "time": 29.55766275,
          "velocity": 0.5826771653543307
        },
        {
          "duration": 0.15384599999999793,
          "durationTicks": 32,
          "midi": 60,
          "name": "C4",
          "ticks": 6163,
          "time": 29.629778062499998,
          "velocity": 0.5433070866141733
        },
        {
          "duration": 0.06730762499999798,
          "durationTicks": 14,
          "midi": 59,
          "name": "B3",
          "ticks": 6196,
          "time": 29.788431749999997,
          "velocity": 0.5669291338582677
        },
        {
          "duration": 0.12980756249999814,
          "durationTicks": 27,
          "midi": 59,
          "name": "B3",
          "ticks": 6211,
          "time": 29.8605470625,
          "velocity": 0.5511811023622047
        },
        {
          "duration": 0.048076874999999575,
          "durationTicks": 10,
          "midi": 59,
          "name": "B3",
          "ticks": 6239,
          "time": 29.995162312499996,
          "velocity": 0.5669291338582677
        },
        {
          "duration": 0.20192287500000106,
          "durationTicks": 42,
          "midi": 59,
          "name": "B3",
          "ticks": 6250,
          "time": 30.048046874999997,
          "velocity": 0.5433070866141733
        },
        {
          "duration": 0.04807687499999602,
          "durationTicks": 10,
          "midi": 61,
          "name": "C#4",
          "ticks": 6292,
          "time": 30.249969749999998,
          "velocity": 0.6062992125984252
        },
        {
          "duration": 1.2211526249999984,
          "durationTicks": 254,
          "midi": 58,
          "name": "A#3",
          "ticks": 6303,
          "time": 30.302854312499996,
          "velocity": 0.5354330708661418
        },
        {
          "duration": 0.12499987500000032,
          "durationTicks": 26,
          "midi": 59,
          "name": "B3",
          "ticks": 6558,
          "time": 31.528814624999995,
          "velocity": 0.6299212598425197
        },
        {
          "duration": 0.14423062500000228,
          "durationTicks": 30,
          "midi": 63,
          "name": "D#4",
          "ticks": 6590,
          "time": 31.682660624999993,
          "velocity": 0.5748031496062992
        },
        {
          "duration": 0.043269187499998196,
          "durationTicks": 9,
          "midi": 57,
          "name": "A3",
          "ticks": 6621,
          "time": 31.831698937499997,
          "velocity": 0.5196850393700787
        },
        {
          "duration": 0.18269212499999554,
          "durationTicks": 38,
          "midi": 58,
          "name": "A#3",
          "ticks": 6630,
          "time": 31.874968124999995,
          "velocity": 0.5511811023622047
        },
        {
          "duration": 0.06730762499999798,
          "durationTicks": 14,
          "midi": 58,
          "name": "A#3",
          "ticks": 6669,
          "time": 32.062467937499996,
          "velocity": 0.5511811023622047
        },
        {
          "duration": 0.2451920624999957,
          "durationTicks": 51,
          "midi": 59,
          "name": "B3",
          "ticks": 6684,
          "time": 32.13458325,
          "velocity": 0.5590551181102362
        },
        {
          "duration": 0.17788443749999772,
          "durationTicks": 37,
          "midi": 60,
          "name": "C4",
          "ticks": 6736,
          "time": 32.384583,
          "velocity": 0.5590551181102362
        },
        {
          "duration": 0.14423062499999872,
          "durationTicks": 30,
          "midi": 59,
          "name": "B3",
          "ticks": 6774,
          "time": 32.567275124999995,
          "velocity": 0.5511811023622047
        },
        {
          "duration": 0.26923049999999904,
          "durationTicks": 56,
          "midi": 60,
          "name": "C4",
          "ticks": 6805,
          "time": 32.7163134375,
          "velocity": 0.6062992125984252
        },
        {
          "duration": 0.13461524999999597,
          "durationTicks": 28,
          "midi": 60,
          "name": "C4",
          "ticks": 6862,
          "time": 32.990351624999995,
          "velocity": 0.5826771653543307
        },
        {
          "duration": 0.06730762499999798,
          "durationTicks": 14,
          "midi": 60,
          "name": "C4",
          "ticks": 6891,
          "time": 33.129774562499996,
          "velocity": 0.5984251968503937
        },
        {
          "duration": 0.043269187499994644,
          "durationTicks": 9,
          "midi": 60,
          "name": "C4",
          "ticks": 6906,
          "time": 33.201889875,
          "velocity": 0.5669291338582677
        },
        {
          "duration": 0.26923049999999904,
          "durationTicks": 56,
          "midi": 60,
          "name": "C4",
          "ticks": 6916,
          "time": 33.24996675,
          "velocity": 0.5511811023622047
        },
        {
          "duration": 0.09615374999999915,
          "durationTicks": 20,
          "midi": 64,
          "name": "E4",
          "ticks": 6972,
          "time": 33.51919725,
          "velocity": 0.5826771653543307
        },
        {
          "duration": 1.2836525625000021,
          "durationTicks": 267,
          "midi": 60,
          "name": "C4",
          "ticks": 6993,
          "time": 33.620158687499995,
          "velocity": 0.5905511811023622
        },
        {
          "duration": 0.07692300000000074,
          "durationTicks": 16,
          "midi": 60,
          "name": "C4",
          "ticks": 7270,
          "time": 34.951888124999996,
          "velocity": 0.5826771653543307
        },
        {
          "duration": 0.06249993750000016,
          "durationTicks": 13,
          "midi": 59,
          "name": "B3",
          "ticks": 7287,
          "time": 35.033618812499995,
          "velocity": 0.5590551181102362
        },
        {
          "duration": 0.12019218750000249,
          "durationTicks": 25,
          "midi": 59,
          "name": "B3",
          "ticks": 7304,
          "time": 35.115349499999994,
          "velocity": 0.5354330708661418
        },
        {
          "duration": 0.3317304374999992,
          "durationTicks": 69,
          "midi": 60,
          "name": "C4",
          "ticks": 7330,
          "time": 35.240349375,
          "velocity": 0.5433070866141733
        },
        {
          "duration": 0.12019218750000249,
          "durationTicks": 25,
          "midi": 60,
          "name": "C4",
          "ticks": 7400,
          "time": 35.57688749999999,
          "velocity": 0.5354330708661418
        },
        {
          "duration": 0.1586536874999993,
          "durationTicks": 33,
          "midi": 60,
          "name": "C4",
          "ticks": 7426,
          "time": 35.701887375,
          "velocity": 0.5590551181102362
        },
        {
          "duration": 0.2259613124999973,
          "durationTicks": 47,
          "midi": 59,
          "name": "B3",
          "ticks": 7459,
          "time": 35.8605410625,
          "velocity": 0.5354330708661418
        },
        {
          "duration": 0.11057681249999973,
          "durationTicks": 23,
          "midi": 58,
          "name": "A#3",
          "ticks": 7506,
          "time": 36.086502374999995,
          "velocity": 0.5275590551181102
        },
        {
          "duration": 0.3173073749999986,
          "durationTicks": 66,
          "midi": 61,
          "name": "C#4",
          "ticks": 7529,
          "time": 36.197079187499995,
          "velocity": 0.6220472440944882
        },
        {
          "duration": 0.07211531249999581,
          "durationTicks": 15,
          "midi": 60,
          "name": "C4",
          "ticks": 7596,
          "time": 36.51919425,
          "velocity": 0.6141732283464567
        },
        {
          "duration": 0.18269212499999554,
          "durationTicks": 38,
          "midi": 60,
          "name": "C4",
          "ticks": 7612,
          "time": 36.59611725,
          "velocity": 0.5748031496062992
        },
        {
          "duration": 0.06249993750000016,
          "durationTicks": 13,
          "midi": 59,
          "name": "B3",
          "ticks": 7676,
          "time": 36.903809249999995,
          "velocity": 0.5354330708661418
        },
        {
          "duration": 0.25480743749999846,
          "durationTicks": 53,
          "midi": 60,
          "name": "C4",
          "ticks": 7690,
          "time": 36.971116875,
          "velocity": 0.5511811023622047
        },
        {
          "duration": 0.2259613124999973,
          "durationTicks": 47,
          "midi": 59,
          "name": "B3",
          "ticks": 7758,
          "time": 37.298039624999994,
          "velocity": 0.5590551181102362
        },
        {
          "duration": 0.09134606250000132,
          "durationTicks": 19,
          "midi": 60,
          "name": "C4",
          "ticks": 7806,
          "time": 37.528808624999996,
          "velocity": 0.5905511811023622
        },
        {
          "duration": 0.06730762499999798,
          "durationTicks": 14,
          "midi": 71,
          "name": "B4",
          "ticks": 7825,
          "time": 37.6201546875,
          "velocity": 0.5354330708661418
        },
        {
          "duration": 0.0528845624999974,
          "durationTicks": 11,
          "midi": 59,
          "name": "B3",
          "ticks": 7840,
          "time": 37.69227,
          "velocity": 0.5511811023622047
        },
        {
          "duration": 0.18269212500000265,
          "durationTicks": 38,
          "midi": 57,
          "name": "A3",
          "ticks": 7852,
          "time": 37.749962249999996,
          "velocity": 0.5354330708661418
        },
        {
          "duration": 0.20192287499999395,
          "durationTicks": 42,
          "midi": 59,
          "name": "B3",
          "ticks": 7890,
          "time": 37.932654375,
          "velocity": 0.5511811023622047
        },
        {
          "duration": 0.0865383750000035,
          "durationTicks": 18,
          "midi": 59,
          "name": "B3",
          "ticks": 7933,
          "time": 38.1393849375,
          "velocity": 0.5275590551181102
        },
        {
          "duration": 0.25480743749999135,
          "durationTicks": 53,
          "midi": 60,
          "name": "C4",
          "ticks": 7951,
          "time": 38.2259233125,
          "velocity": 0.5511811023622047
        },
        {
          "duration": 0.4230765000000076,
          "durationTicks": 88,
          "midi": 53,
          "name": "F3",
          "ticks": 8007,
          "time": 38.49515381249999,
          "velocity": 0.5118110236220472
        },
        {
          "duration": 0.10096143750000408,
          "durationTicks": 21,
          "midi": 61,
          "name": "C#4",
          "ticks": 8096,
          "time": 38.92303799999999,
          "velocity": 0.5984251968503937
        },
        {
          "duration": 0.13461525000000307,
          "durationTicks": 28,
          "midi": 60,
          "name": "C4",
          "ticks": 8117,
          "time": 39.023999437499995,
          "velocity": 0.5354330708661418
        },
        {
          "duration": 0.1394229375000009,
          "durationTicks": 29,
          "midi": 60,
          "name": "C4",
          "ticks": 8146,
          "time": 39.163422374999996,
          "velocity": 0.5275590551181102
        },
        {
          "duration": 0.12980756249999814,
          "durationTicks": 27,
          "midi": 61,
          "name": "C#4",
          "ticks": 8175,
          "time": 39.3028453125,
          "velocity": 0.5590551181102362
        },
        {
          "duration": 0.14903831249999655,
          "durationTicks": 31,
          "midi": 60,
          "name": "C4",
          "ticks": 8203,
          "time": 39.4374605625,
          "velocity": 0.5590551181102362
        },
        {
          "duration": 1.8749981249999976,
          "durationTicks": 390,
          "midi": 61,
          "name": "C#4",
          "ticks": 8235,
          "time": 39.591306562499994,
          "velocity": 0.5511811023622047
        },
        {
          "duration": 0.06249993750000726,
          "durationTicks": 13,
          "midi": 64,
          "name": "E4",
          "ticks": 8625,
          "time": 41.46630468749999,
          "velocity": 0.5984251968503937
        },
        {
          "duration": 0.04326918750000175,
          "durationTicks": 9,
          "midi": 59,
          "name": "B3",
          "ticks": 8639,
          "time": 41.53361231249999,
          "velocity": 0.5196850393700787
        },
        {
          "duration": 0.16826906249999496,
          "durationTicks": 35,
          "midi": 59,
          "name": "B3",
          "ticks": 8649,
          "time": 41.5816891875,
          "velocity": 0.5433070866141733
        },
        {
          "duration": 0.06249993750000016,
          "durationTicks": 13,
          "midi": 59,
          "name": "B3",
          "ticks": 8685,
          "time": 41.7547659375,
          "velocity": 0.5196850393700787
        },
        {
          "duration": 0.1057691250000019,
          "durationTicks": 22,
          "midi": 61,
          "name": "C#4",
          "ticks": 8699,
          "time": 41.822073562499995,
          "velocity": 0.5984251968503937
        },
        {
          "duration": 0.11057681249999973,
          "durationTicks": 23,
          "midi": 58,
          "name": "A#3",
          "ticks": 8722,
          "time": 41.932650374999994,
          "velocity": 0.5354330708661418
        },
        {
          "duration": 0.07692300000000074,
          "durationTicks": 16,
          "midi": 61,
          "name": "C#4",
          "ticks": 8745,
          "time": 42.043227187499994,
          "velocity": 0.6299212598425197
        },
        {
          "duration": 0.20192287500000106,
          "durationTicks": 42,
          "midi": 61,
          "name": "C#4",
          "ticks": 8762,
          "time": 42.12495787499999,
          "velocity": 0.6692913385826772
        },
        {
          "duration": 0.3990380625000043,
          "durationTicks": 83,
          "midi": 61,
          "name": "C#4",
          "ticks": 8804,
          "time": 42.326880749999994,
          "velocity": 0.5905511811023622
        },
        {
          "duration": 0.16826906249999496,
          "durationTicks": 35,
          "midi": 61,
          "name": "C#4",
          "ticks": 8946,
          "time": 43.009572375,
          "velocity": 0.5905511811023622
        },
        {
          "duration": 0.07211531249999581,
          "durationTicks": 15,
          "midi": 61,
          "name": "C#4",
          "ticks": 8982,
          "time": 43.182649125,
          "velocity": 0.5826771653543307
        },
        {
          "duration": 0.16826906249999496,
          "durationTicks": 35,
          "midi": 57,
          "name": "A3",
          "ticks": 8998,
          "time": 43.259572125,
          "velocity": 0.5275590551181102
        },
        {
          "duration": 0.1057691249999948,
          "durationTicks": 22,
          "midi": 61,
          "name": "C#4",
          "ticks": 9034,
          "time": 43.432648875,
          "velocity": 0.5433070866141733
        },
        {
          "duration": 0.09134606250000132,
          "durationTicks": 19,
          "midi": 61,
          "name": "C#4",
          "ticks": 9057,
          "time": 43.5432256875,
          "velocity": 0.5433070866141733
        },
        {
          "duration": 0.28846125000000455,
          "durationTicks": 60,
          "midi": 59,
          "name": "B3",
          "ticks": 9077,
          "time": 43.63937943749999,
          "velocity": 0.5511811023622047
        },
        {
          "duration": 0.2451920625000028,
          "durationTicks": 51,
          "midi": 58,
          "name": "A#3",
          "ticks": 9138,
          "time": 43.93264837499999,
          "velocity": 0.5433070866141733
        },
        {
          "duration": 0.1394229374999938,
          "durationTicks": 29,
          "midi": 61,
          "name": "C#4",
          "ticks": 9190,
          "time": 44.182648125,
          "velocity": 0.5590551181102362
        },
        {
          "duration": 0.44230724999999893,
          "durationTicks": 92,
          "midi": 58,
          "name": "A#3",
          "ticks": 9220,
          "time": 44.32687875,
          "velocity": 0.5669291338582677
        },
        {
          "duration": 0.13461524999999597,
          "durationTicks": 28,
          "midi": 60,
          "name": "C4",
          "ticks": 9312,
          "time": 44.769186,
          "velocity": 0.5354330708661418
        },
        {
          "duration": 0.09134606250000132,
          "durationTicks": 19,
          "midi": 60,
          "name": "C4",
          "ticks": 9341,
          "time": 44.90860893749999,
          "velocity": 0.5984251968503937
        },
        {
          "duration": 0.12019218750000249,
          "durationTicks": 25,
          "midi": 60,
          "name": "C4",
          "ticks": 9360,
          "time": 44.99995499999999,
          "velocity": 0.5433070866141733
        },
        {
          "duration": 1.1009604374999995,
          "durationTicks": 229,
          "midi": 61,
          "name": "C#4",
          "ticks": 9385,
          "time": 45.120147187499995,
          "velocity": 0.5511811023622047
        },
        {
          "duration": 0.10096143750000408,
          "durationTicks": 21,
          "midi": 59,
          "name": "B3",
          "ticks": 9615,
          "time": 46.22591531249999,
          "velocity": 0.5590551181102362
        },
        {
          "duration": 0.23557668750000005,
          "durationTicks": 49,
          "midi": 61,
          "name": "C#4",
          "ticks": 9637,
          "time": 46.331684437499995,
          "velocity": 0.5433070866141733
        },
        {
          "duration": 0.28846125000000455,
          "durationTicks": 60,
          "midi": 61,
          "name": "C#4",
          "ticks": 9687,
          "time": 46.57206881249999,
          "velocity": 0.5669291338582677
        },
        {
          "duration": 0.17788443749999772,
          "durationTicks": 37,
          "midi": 60,
          "name": "C4",
          "ticks": 9748,
          "time": 46.865337749999995,
          "velocity": 0.5511811023622047
        },
        {
          "duration": 0.18269212500000265,
          "durationTicks": 38,
          "midi": 61,
          "name": "C#4",
          "ticks": 9785,
          "time": 47.04322218749999,
          "velocity": 0.5039370078740157
        },
        {
          "duration": 0.11057681250000684,
          "durationTicks": 23,
          "midi": 60,
          "name": "C4",
          "ticks": 9824,
          "time": 47.23072199999999,
          "velocity": 0.5354330708661418
        },
        {
          "duration": 0.3269227500000085,
          "durationTicks": 68,
          "midi": 62,
          "name": "D4",
          "ticks": 9848,
          "time": 47.34610649999999,
          "velocity": 0.5590551181102362
        },
        {
          "duration": 0.6249993750000016,
          "durationTicks": 130,
          "midi": 59,
          "name": "B3",
          "ticks": 9917,
          "time": 47.67783693749999,
          "velocity": 0.5433070866141733
        },
        {
          "duration": 0.2451920625000028,
          "durationTicks": 51,
          "midi": 61,
          "name": "C#4",
          "ticks": 10048,
          "time": 48.307643999999996,
          "velocity": 0.6220472440944882
        },
        {
          "duration": 0.3173073750000057,
          "durationTicks": 66,
          "midi": 61,
          "name": "C#4",
          "ticks": 10100,
          "time": 48.55764374999999,
          "velocity": 0.5984251968503937
        },
        {
          "duration": 0.09134606250000132,
          "durationTicks": 19,
          "midi": 62,
          "name": "D4",
          "ticks": 10167,
          "time": 48.87975881249999,
          "velocity": 0.6377952755905512
        },
        {
          "duration": 0.36057656250000036,
          "durationTicks": 75,
          "midi": 61,
          "name": "C#4",
          "ticks": 10187,
          "time": 48.97591256249999,
          "velocity": 0.5590551181102362
        },
        {
          "duration": 0.07211531249999581,
          "durationTicks": 15,
          "midi": 61,
          "name": "C#4",
          "ticks": 10263,
          "time": 49.3412968125,
          "velocity": 0.5590551181102362
        },
        {
          "duration": 0.27403818749999687,
          "durationTicks": 57,
          "midi": 59,
          "name": "B3",
          "ticks": 10279,
          "time": 49.4182198125,
          "velocity": 0.5433070866141733
        },
        {
          "duration": 0.28846124999999745,
          "durationTicks": 60,
          "midi": 61,
          "name": "C#4",
          "ticks": 10337,
          "time": 49.69706568749999,
          "velocity": 0.5748031496062992
        },
        {
          "duration": 0.04326918750000175,
          "durationTicks": 9,
          "midi": 61,
          "name": "C#4",
          "ticks": 10398,
          "time": 49.990334624999996,
          "velocity": 0.5669291338582677
        },
        {
          "duration": 0.07211531250000291,
          "durationTicks": 15,
          "midi": 61,
          "name": "C#4",
          "ticks": 10408,
          "time": 50.038411499999995,
          "velocity": 0.5590551181102362
        },
        {
          "duration": 0.22115362499999236,
          "durationTicks": 46,
          "midi": 61,
          "name": "C#4",
          "ticks": 10423,
          "time": 50.1105268125,
          "velocity": 0.5984251968503937
        },
        {
          "duration": 0.09134606250000132,
          "durationTicks": 19,
          "midi": 63,
          "name": "D#4",
          "ticks": 10470,
          "time": 50.336488124999995,
          "velocity": 0.6456692913385826
        },
        {
          "duration": 0.05769225000000233,
          "durationTicks": 12,
          "midi": 59,
          "name": "B3",
          "ticks": 10489,
          "time": 50.4278341875,
          "velocity": 0.5118110236220472
        },
        {
          "duration": 0.0865383750000035,
          "durationTicks": 18,
          "midi": 63,
          "name": "D#4",
          "ticks": 10502,
          "time": 50.49033412499999,
          "velocity": 0.5669291338582677
        },
        {
          "duration": 0.1394229375000009,
          "durationTicks": 29,
          "midi": 60,
          "name": "C4",
          "ticks": 10520,
          "time": 50.57687249999999,
          "velocity": 0.5433070866141733
        },
        {
          "duration": 0.1394229375000009,
          "durationTicks": 29,
          "midi": 60,
          "name": "C4",
          "ticks": 10549,
          "time": 50.716295437499994,
          "velocity": 0.5196850393700787
        },
        {
          "duration": 0.6586531874999935,
          "durationTicks": 137,
          "midi": 62,
          "name": "D4",
          "ticks": 10579,
          "time": 50.8605260625,
          "velocity": 0.5748031496062992
        },
        {
          "duration": 0.09134606250000132,
          "durationTicks": 19,
          "midi": 61,
          "name": "C#4",
          "ticks": 10716,
          "time": 51.51917924999999,
          "velocity": 0.6062992125984252
        },
        {
          "duration": 0.09615375000000626,
          "durationTicks": 20,
          "midi": 60,
          "name": "C4",
          "ticks": 10736,
          "time": 51.61533299999999,
          "velocity": 0.5590551181102362
        },
        {
          "duration": 0.04807687500000668,
          "durationTicks": 10,
          "midi": 62,
          "name": "D4",
          "ticks": 10757,
          "time": 51.71629443749999,
          "velocity": 0.5196850393700787
        },
        {
          "duration": 0.32692275000000137,
          "durationTicks": 68,
          "midi": 62,
          "name": "D4",
          "ticks": 10768,
          "time": 51.769178999999994,
          "velocity": 0.5196850393700787
        },
        {
          "duration": 0.2115382499999967,
          "durationTicks": 44,
          "midi": 63,
          "name": "D#4",
          "ticks": 10836,
          "time": 52.096101749999995,
          "velocity": 0.5511811023622047
        },
        {
          "duration": 0.23076900000000222,
          "durationTicks": 48,
          "midi": 63,
          "name": "D#4",
          "ticks": 10880,
          "time": 52.30763999999999,
          "velocity": 0.5748031496062992
        },
        {
          "duration": 0.14903831249999655,
          "durationTicks": 31,
          "midi": 61,
          "name": "C#4",
          "ticks": 10928,
          "time": 52.538408999999994,
          "velocity": 0.5590551181102362
        },
        {
          "duration": 0.24038437499999787,
          "durationTicks": 50,
          "midi": 60,
          "name": "C4",
          "ticks": 10960,
          "time": 52.692254999999996,
          "velocity": 0.5354330708661418
        },
        {
          "duration": 0.2644228124999941,
          "durationTicks": 55,
          "midi": 60,
          "name": "C4",
          "ticks": 11011,
          "time": 52.9374470625,
          "velocity": 0.5511811023622047
        },
        {
          "duration": 0.06730762500000509,
          "durationTicks": 14,
          "midi": 63,
          "name": "D#4",
          "ticks": 11066,
          "time": 53.20186987499999,
          "velocity": 0.5590551181102362
        },
        {
          "duration": 0.11057681250000684,
          "durationTicks": 23,
          "midi": 59,
          "name": "B3",
          "ticks": 11081,
          "time": 53.27398518749999,
          "velocity": 0.5354330708661418
        },
        {
          "duration": 0.06730762500000509,
          "durationTicks": 14,
          "midi": 64,
          "name": "E4",
          "ticks": 11105,
          "time": 53.38936968749999,
          "velocity": 0.6062992125984252
        },
        {
          "duration": 0.04807687500000668,
          "durationTicks": 10,
          "midi": 66,
          "name": "F#4",
          "ticks": 11120,
          "time": 53.46148499999999,
          "velocity": 0.5748031496062992
        },
        {
          "duration": 0.7403838749999991,
          "durationTicks": 154,
          "midi": 58,
          "name": "A#3",
          "ticks": 11131,
          "time": 53.51436956249999,
          "velocity": 0.5275590551181102
        },
        {
          "duration": 0.11538450000000466,
          "durationTicks": 24,
          "midi": 62,
          "name": "D4",
          "ticks": 11286,
          "time": 54.25956112499999,
          "velocity": 0.5826771653543307
        },
        {
          "duration": 0.04326918750000175,
          "durationTicks": 9,
          "midi": 62,
          "name": "D4",
          "ticks": 11310,
          "time": 54.374945624999995,
          "velocity": 0.5748031496062992
        },
        {
          "duration": 0.6923069999999996,
          "durationTicks": 144,
          "midi": 62,
          "name": "D4",
          "ticks": 11320,
          "time": 54.423022499999995,
          "velocity": 0.5669291338582677
        },
        {
          "duration": 0.05769225000000233,
          "durationTicks": 12,
          "midi": 57,
          "name": "A3",
          "ticks": 11465,
          "time": 55.12013718749999,
          "velocity": 0.5196850393700787
        },
        {
          "duration": 0.2932689375000024,
          "durationTicks": 61,
          "midi": 62,
          "name": "D4",
          "ticks": 11478,
          "time": 55.18263712499999,
          "velocity": 0.5669291338582677
        },
        {
          "duration": 0.04326918750000175,
          "durationTicks": 9,
          "midi": 59,
          "name": "B3",
          "ticks": 11540,
          "time": 55.48071374999999,
          "velocity": 0.5275590551181102
        },
        {
          "duration": 0.08653837499999639,
          "durationTicks": 18,
          "midi": 60,
          "name": "C4",
          "ticks": 11549,
          "time": 55.523982937499994,
          "velocity": 0.5354330708661418
        },
        {
          "duration": 0.09134606250000132,
          "durationTicks": 19,
          "midi": 62,
          "name": "D4",
          "ticks": 11568,
          "time": 55.615328999999996,
          "velocity": 0.5669291338582677
        },
        {
          "duration": 0.37499962499999384,
          "durationTicks": 78,
          "midi": 62,
          "name": "D4",
          "ticks": 11588,
          "time": 55.711482749999995,
          "velocity": 0.5984251968503937
        },
        {
          "duration": 0.16346137500000424,
          "durationTicks": 34,
          "midi": 64,
          "name": "E4",
          "ticks": 11667,
          "time": 56.09129006249999,
          "velocity": 0.6141732283464567
        },
        {
          "duration": 0.08173068750000567,
          "durationTicks": 17,
          "midi": 62,
          "name": "D4",
          "ticks": 11702,
          "time": 56.25955912499999,
          "velocity": 0.5669291338582677
        },
        {
          "duration": 0.09134606250000132,
          "durationTicks": 19,
          "midi": 60,
          "name": "C4",
          "ticks": 11720,
          "time": 56.34609749999999,
          "velocity": 0.5433070866141733
        },
        {
          "duration": 0.5432686874999959,
          "durationTicks": 113,
          "midi": 60,
          "name": "C4",
          "ticks": 11739,
          "time": 56.43744356249999,
          "velocity": 0.5511811023622047
        },
        {
          "duration": 0.6634608750000055,
          "durationTicks": 138,
          "midi": 61,
          "name": "C#4",
          "ticks": 11852,
          "time": 56.98071224999999,
          "velocity": 0.5984251968503937
        },
        {
          "duration": 0.2980766250000002,
          "durationTicks": 62,
          "midi": 63,
          "name": "D#4",
          "ticks": 11990,
          "time": 57.644173124999995,
          "velocity": 0.5748031496062992
        },
        {
          "duration": 0.1057691250000019,
          "durationTicks": 22,
          "midi": 63,
          "name": "D#4",
          "ticks": 12053,
          "time": 57.94705743749999,
          "velocity": 0.5590551181102362
        },
        {
          "duration": 0.13461524999999597,
          "durationTicks": 28,
          "midi": 62,
          "name": "D4",
          "ticks": 12076,
          "time": 58.05763424999999,
          "velocity": 0.5433070866141733
        },
        {
          "duration": 0.16346137500000424,
          "durationTicks": 34,
          "midi": 60,
          "name": "C4",
          "ticks": 12104,
          "time": 58.19224949999999,
          "velocity": 0.5354330708661418
        },
        {
          "duration": 0.09134606249999422,
          "durationTicks": 19,
          "midi": 59,
          "name": "B3",
          "ticks": 12139,
          "time": 58.3605185625,
          "velocity": 0.5275590551181102
        },
        {
          "duration": 0.06730762499999798,
          "durationTicks": 14,
          "midi": 74,
          "name": "D5",
          "ticks": 12159,
          "time": 58.4566723125,
          "velocity": 0.5984251968503937
        },
        {
          "duration": 0.048076874999999575,
          "durationTicks": 10,
          "midi": 65,
          "name": "F4",
          "ticks": 12174,
          "time": 58.52878762499999,
          "velocity": 0.6141732283464567
        },
        {
          "duration": 0.0865383750000035,
          "durationTicks": 18,
          "midi": 60,
          "name": "C4",
          "ticks": 12185,
          "time": 58.58167218749999,
          "velocity": 0.5511811023622047
        },
        {
          "duration": 0.06730762499999798,
          "durationTicks": 14,
          "midi": 62,
          "name": "D4",
          "ticks": 12204,
          "time": 58.67301824999999,
          "velocity": 0.5826771653543307
        },
        {
          "duration": 0.05769225000000233,
          "durationTicks": 12,
          "midi": 60,
          "name": "C4",
          "ticks": 12218,
          "time": 58.74032587499999,
          "velocity": 0.5275590551181102
        },
        {
          "duration": 0.0528845624999974,
          "durationTicks": 11,
          "midi": 64,
          "name": "E4",
          "ticks": 12231,
          "time": 58.8028258125,
          "velocity": 0.6220472440944882
        },
        {
          "duration": 0.11057681249999973,
          "durationTicks": 23,
          "midi": 63,
          "name": "D#4",
          "ticks": 12242,
          "time": 58.855710374999994,
          "velocity": 0.6141732283464567
        },
        {
          "duration": 0.10096143749999698,
          "durationTicks": 21,
          "midi": 61,
          "name": "C#4",
          "ticks": 12267,
          "time": 58.975902562499996,
          "velocity": 0.5669291338582677
        },
        {
          "duration": 0.052884562500004506,
          "durationTicks": 11,
          "midi": 59,
          "name": "B3",
          "ticks": 12289,
          "time": 59.08167168749999,
          "velocity": 0.5275590551181102
        },
        {
          "duration": 0.5336533125000003,
          "durationTicks": 111,
          "midi": 63,
          "name": "D#4",
          "ticks": 12301,
          "time": 59.139363937499986,
          "velocity": 0.5669291338582677
        },
        {
          "duration": 0.22596131249999019,
          "durationTicks": 47,
          "midi": 63,
          "name": "D#4",
          "ticks": 12602,
          "time": 60.586477875,
          "velocity": 0.5748031496062992
        },
        {
          "duration": 0.06730762499999088,
          "durationTicks": 14,
          "midi": 60,
          "name": "C4",
          "ticks": 12650,
          "time": 60.817246874999995,
          "velocity": 0.5511811023622047
        },
        {
          "duration": 0.07692299999999364,
          "durationTicks": 16,
          "midi": 62,
          "name": "D4",
          "ticks": 12665,
          "time": 60.8893621875,
          "velocity": 0.5511811023622047
        },
        {
          "duration": 0.04807687500000668,
          "durationTicks": 10,
          "midi": 57,
          "name": "A3",
          "ticks": 12682,
          "time": 60.97109287499999,
          "velocity": 0.5275590551181102
        },
        {
          "duration": 0.16346137499999713,
          "durationTicks": 34,
          "midi": 58,
          "name": "A#3",
          "ticks": 12693,
          "time": 61.023977437499994,
          "velocity": 0.5511811023622047
        },
        {
          "duration": 0.2259613125000044,
          "durationTicks": 47,
          "midi": 59,
          "name": "B3",
          "ticks": 12727,
          "time": 61.18743881249999,
          "velocity": 0.5354330708661418
        },
        {
          "duration": 0.07692300000000785,
          "durationTicks": 16,
          "midi": 58,
          "name": "A#3",
          "ticks": 12775,
          "time": 61.418207812499986,
          "velocity": 0.5669291338582677
        },
        {
          "duration": 0.5288456250000024,
          "durationTicks": 110,
          "midi": 59,
          "name": "B3",
          "ticks": 12792,
          "time": 61.49993849999999,
          "velocity": 0.5196850393700787
        },
        {
          "duration": 0.09615375000000626,
          "durationTicks": 20,
          "midi": 63,
          "name": "D#4",
          "ticks": 12903,
          "time": 62.03359181249999,
          "velocity": 0.5590551181102362
        },
        {
          "duration": 0.12980756249999814,
          "durationTicks": 27,
          "midi": 60,
          "name": "C4",
          "ticks": 12924,
          "time": 62.134553249999996,
          "velocity": 0.5433070866141733
        },
        {
          "duration": 0.09134606250000843,
          "durationTicks": 19,
          "midi": 60,
          "name": "C4",
          "ticks": 12952,
          "time": 62.26916849999999,
          "velocity": 0.5354330708661418
        },
        {
          "duration": 0.11538449999999756,
          "durationTicks": 24,
          "midi": 60,
          "name": "C4",
          "ticks": 12971,
          "time": 62.3605145625,
          "velocity": 0.5511811023622047
        },
        {
          "duration": 0.2451920624999957,
          "durationTicks": 51,
          "midi": 61,
          "name": "C#4",
          "ticks": 12996,
          "time": 62.480706749999996,
          "velocity": 0.5748031496062992
        },
        {
          "duration": 0.28365356250000673,
          "durationTicks": 59,
          "midi": 61,
          "name": "C#4",
          "ticks": 13081,
          "time": 62.88936018749999,
          "velocity": 0.6062992125984252
        },
        {
          "duration": 0.10096143750000408,
          "durationTicks": 21,
          "midi": 60,
          "name": "C4",
          "ticks": 13141,
          "time": 63.177821437499986,
          "velocity": 0.6220472440944882
        },
        {
          "duration": 0.19711518750000323,
          "durationTicks": 41,
          "midi": 62,
          "name": "D4",
          "ticks": 13162,
          "time": 63.27878287499999,
          "velocity": 0.5354330708661418
        },
        {
          "duration": 0.28846124999999745,
          "durationTicks": 60,
          "midi": 63,
          "name": "D#4",
          "ticks": 13204,
          "time": 63.48070574999999,
          "velocity": 0.5905511811023622
        },
        {
          "duration": 0.12499987500000032,
          "durationTicks": 26,
          "midi": 61,
          "name": "C#4",
          "ticks": 13267,
          "time": 63.78359006249999,
          "velocity": 0.5669291338582677
        },
        {
          "duration": 0.052884562500004506,
          "durationTicks": 11,
          "midi": 61,
          "name": "C#4",
          "ticks": 13293,
          "time": 63.90858993749999,
          "velocity": 0.6062992125984252
        },
        {
          "duration": 0.11538450000000466,
          "durationTicks": 24,
          "midi": 60,
          "name": "C4",
          "ticks": 13304,
          "time": 63.961474499999994,
          "velocity": 0.5433070866141733
        },
        {
          "duration": 0.05288456250001161,
          "durationTicks": 11,
          "midi": 64,
          "name": "E4",
          "ticks": 13329,
          "time": 64.08166668749999,
          "velocity": 0.5826771653543307
        },
        {
          "duration": 0.2451920624999957,
          "durationTicks": 51,
          "midi": 59,
          "name": "B3",
          "ticks": 13341,
          "time": 64.13935893749999,
          "velocity": 0.5354330708661418
        },
        {
          "duration": 0.13461524999999597,
          "durationTicks": 28,
          "midi": 64,
          "name": "E4",
          "ticks": 13392,
          "time": 64.38455099999999,
          "velocity": 0.5826771653543307
        },
        {
          "duration": 0.17307674999999278,
          "durationTicks": 36,
          "midi": 60,
          "name": "C4",
          "ticks": 13421,
          "time": 64.5239739375,
          "velocity": 0.5354330708661418
        },
        {
          "duration": 0.09615375000001336,
          "durationTicks": 20,
          "midi": 60,
          "name": "C4",
          "ticks": 13458,
          "time": 64.70185837499999,
          "velocity": 0.5590551181102362
        },
        {
          "duration": 0.06730762499998377,
          "durationTicks": 14,
          "midi": 64,
          "name": "E4",
          "ticks": 13478,
          "time": 64.798012125,
          "velocity": 0.5590551181102362
        },
        {
          "duration": 0.04807687499999247,
          "durationTicks": 10,
          "midi": 59,
          "name": "B3",
          "ticks": 13493,
          "time": 64.8701274375,
          "velocity": 0.5275590551181102
        },
        {
          "duration": 0.17788443750001193,
          "durationTicks": 37,
          "midi": 63,
          "name": "D#4",
          "ticks": 13504,
          "time": 64.92301199999999,
          "velocity": 0.5748031496062992
        },
        {
          "duration": 0.413461125000012,
          "durationTicks": 86,
          "midi": 57,
          "name": "A3",
          "ticks": 13542,
          "time": 65.10570412499999,
          "velocity": 0.5433070866141733
        },
        {
          "duration": 0.16346137499999713,
          "durationTicks": 34,
          "midi": 64,
          "name": "E4",
          "ticks": 13628,
          "time": 65.51916525,
          "velocity": 0.6220472440944882
        },
        {
          "duration": 0.09134606249999422,
          "durationTicks": 19,
          "midi": 64,
          "name": "E4",
          "ticks": 13695,
          "time": 65.84128031249999,
          "velocity": 0.5433070866141733
        },
        {
          "duration": 0.2788458749999876,
          "durationTicks": 58,
          "midi": 62,
          "name": "D4",
          "ticks": 13715,
          "time": 65.9374340625,
          "velocity": 0.5275590551181102
        },
        {
          "duration": 0.13461524999999597,
          "durationTicks": 28,
          "midi": 63,
          "name": "D#4",
          "ticks": 13773,
          "time": 66.21627993749999,
          "velocity": 0.5433070866141733
        },
        {
          "duration": 0.0865383750000035,
          "durationTicks": 18,
          "midi": 33,
          "name": "A1",
          "ticks": 13802,
          "time": 66.35570287499999,
          "velocity": 0.5118110236220472
        },
        {
          "duration": 0.12980756250000525,
          "durationTicks": 27,
          "midi": 58,
          "name": "A#3",
          "ticks": 13821,
          "time": 66.44704893749999,
          "velocity": 0.5590551181102362
        },
        {
          "duration": 0.1586536875000064,
          "durationTicks": 33,
          "midi": 63,
          "name": "D#4",
          "ticks": 13848,
          "time": 66.57685649999999,
          "velocity": 0.5511811023622047
        },
        {
          "duration": 0.0865383750000035,
          "durationTicks": 18,
          "midi": 57,
          "name": "A3",
          "ticks": 13882,
          "time": 66.74031787499999,
          "velocity": 0.5354330708661418
        },
        {
          "duration": 0.1249998749999861,
          "durationTicks": 26,
          "midi": 59,
          "name": "B3",
          "ticks": 13901,
          "time": 66.8316639375,
          "velocity": 0.5433070866141733
        },
        {
          "duration": 0.06730762499998377,
          "durationTicks": 14,
          "midi": 63,
          "name": "D#4",
          "ticks": 13928,
          "time": 66.9614715,
          "velocity": 0.5669291338582677
        },
        {
          "duration": 0.06730762499999798,
          "durationTicks": 14,
          "midi": 59,
          "name": "B3",
          "ticks": 13943,
          "time": 67.03358681249999,
          "velocity": 0.5118110236220472
        },
        {
          "duration": 0.12019218749999538,
          "durationTicks": 25,
          "midi": 58,
          "name": "A#3",
          "ticks": 13958,
          "time": 67.105702125,
          "velocity": 0.5590551181102362
        },
        {
          "duration": 0.12499987500000032,
          "durationTicks": 26,
          "midi": 56,
          "name": "G#3",
          "ticks": 13984,
          "time": 67.230702,
          "velocity": 0.5511811023622047
        },
        {
          "duration": 0.0673076250000122,
          "durationTicks": 14,
          "midi": 63,
          "name": "D#4",
          "ticks": 14011,
          "time": 67.36050956249998,
          "velocity": 0.5590551181102362
        },
        {
          "duration": 0.05769225000000233,
          "durationTicks": 12,
          "midi": 33,
          "name": "A1",
          "ticks": 14026,
          "time": 67.43262487499999,
          "velocity": 0.5118110236220472
        },
        {
          "duration": 0.07211531250000291,
          "durationTicks": 15,
          "midi": 62,
          "name": "D4",
          "ticks": 14039,
          "time": 67.4951248125,
          "velocity": 0.5433070866141733
        },
        {
          "duration": 0.10096143750000408,
          "durationTicks": 21,
          "midi": 62,
          "name": "D4",
          "ticks": 14054,
          "time": 67.567240125,
          "velocity": 0.5590551181102362
        },
        {
          "duration": 0.11057681249998552,
          "durationTicks": 23,
          "midi": 64,
          "name": "E4",
          "ticks": 14075,
          "time": 67.6682015625,
          "velocity": 0.5669291338582677
        },
        {
          "duration": 0.07692299999999364,
          "durationTicks": 16,
          "midi": 59,
          "name": "B3",
          "ticks": 14099,
          "time": 67.78358606249999,
          "velocity": 0.5433070866141733
        },
        {
          "duration": 0.12499987500000032,
          "durationTicks": 26,
          "midi": 64,
          "name": "E4",
          "ticks": 14116,
          "time": 67.86531674999999,
          "velocity": 0.5826771653543307
        },
        {
          "duration": 0.3124996875000079,
          "durationTicks": 65,
          "midi": 60,
          "name": "C4",
          "ticks": 14142,
          "time": 67.99031662499999,
          "velocity": 0.5433070866141733
        },
        {
          "duration": 0.18269212500000265,
          "durationTicks": 38,
          "midi": 60,
          "name": "C4",
          "ticks": 14208,
          "time": 68.30762399999999,
          "velocity": 0.5511811023622047
        },
        {
          "duration": 0.23557668749998584,
          "durationTicks": 49,
          "midi": 33,
          "name": "A1",
          "ticks": 14250,
          "time": 68.509546875,
          "velocity": 0.5118110236220472
        },
        {
          "duration": 0.12980756249999104,
          "durationTicks": 27,
          "midi": 60,
          "name": "C4",
          "ticks": 14300,
          "time": 68.74993125,
          "velocity": 0.5196850393700787
        },
        {
          "duration": 0.09134606249999422,
          "durationTicks": 19,
          "midi": 60,
          "name": "C4",
          "ticks": 14327,
          "time": 68.8797388125,
          "velocity": 0.5196850393700787
        },
        {
          "duration": 0.17307674999999278,
          "durationTicks": 36,
          "midi": 62,
          "name": "D4",
          "ticks": 14347,
          "time": 68.9758925625,
          "velocity": 0.5196850393700787
        },
        {
          "duration": 0.37499962500000095,
          "durationTicks": 78,
          "midi": 62,
          "name": "D4",
          "ticks": 14383,
          "time": 69.14896931249999,
          "velocity": 0.5196850393700787
        },
        {
          "duration": 0.2451920625000099,
          "durationTicks": 51,
          "midi": 33,
          "name": "A1",
          "ticks": 14465,
          "time": 69.54319968749999,
          "velocity": 0.5118110236220472
        },
        {
          "duration": 0.12499987500000032,
          "durationTicks": 26,
          "midi": 59,
          "name": "B3",
          "ticks": 14517,
          "time": 69.7931994375,
          "velocity": 0.5196850393700787
        },
        {
          "duration": 0.21634593749999453,
          "durationTicks": 45,
          "midi": 59,
          "name": "B3",
          "ticks": 14544,
          "time": 69.923007,
          "velocity": 0.5196850393700787
        },
        {
          "duration": 0.05769225000000233,
          "durationTicks": 12,
          "midi": 60,
          "name": "C4",
          "ticks": 14589,
          "time": 70.13935293749999,
          "velocity": 0.5118110236220472
        },
        {
          "duration": 0.08173068750001278,
          "durationTicks": 17,
          "midi": 60,
          "name": "C4",
          "ticks": 14631,
          "time": 70.34127581249999,
          "velocity": 0.5118110236220472
        },
        {
          "duration": 0.1394229375000009,
          "durationTicks": 29,
          "midi": 59,
          "name": "B3",
          "ticks": 14649,
          "time": 70.42781418749999,
          "velocity": 0.5275590551181102
        },
        {
          "duration": 0.6634608749999984,
          "durationTicks": 138,
          "midi": 52,
          "name": "E3",
          "ticks": 14710,
          "time": 70.72108312499999,
          "velocity": 0.5984251968503937
        },
        {
          "duration": 1.4855754375000032,
          "durationTicks": 309,
          "midi": 51,
          "name": "D#3",
          "ticks": 14850,
          "time": 71.39415937499999,
          "velocity": 0.5590551181102362
        },
        {
          "duration": 0.13461525000001018,
          "durationTicks": 28,
          "midi": 59,
          "name": "B3",
          "ticks": 15160,
          "time": 72.88454249999998,
          "velocity": 0.5196850393700787
        },
        {
          "duration": 0.07692299999999364,
          "durationTicks": 16,
          "midi": 60,
          "name": "C4",
          "ticks": 15189,
          "time": 73.0239654375,
          "velocity": 0.5196850393700787
        },
        {
          "duration": 0.7355761875000013,
          "durationTicks": 153,
          "midi": 51,
          "name": "D#3",
          "ticks": 15206,
          "time": 73.105696125,
          "velocity": 0.5826771653543307
        },
        {
          "duration": 0.2259613125000044,
          "durationTicks": 47,
          "midi": 52,
          "name": "E3",
          "ticks": 15360,
          "time": 73.84607999999999,
          "velocity": 0.5590551181102362
        },
        {
          "duration": 0.15384600000000148,
          "durationTicks": 32,
          "midi": 51,
          "name": "D#3",
          "ticks": 15409,
          "time": 74.08165668749999,
          "velocity": 0.5511811023622047
        },
        {
          "duration": 0.4711533750000001,
          "durationTicks": 98,
          "midi": 52,
          "name": "E3",
          "ticks": 15442,
          "time": 74.24031037499999,
          "velocity": 0.5905511811023622
        },
        {
          "duration": 0.15384600000000148,
          "durationTicks": 32,
          "midi": 33,
          "name": "A1",
          "ticks": 15544,
          "time": 74.73069449999998,
          "velocity": 0.5984251968503937
        },
        {
          "duration": 0.10576912500000901,
          "durationTicks": 22,
          "midi": 62,
          "name": "D4",
          "ticks": 15577,
          "time": 74.88934818749999,
          "velocity": 0.5511811023622047
        },
        {
          "duration": 0.23557668750000005,
          "durationTicks": 49,
          "midi": 48,
          "name": "C3",
          "ticks": 15603,
          "time": 75.01434806249999,
          "velocity": 0.5748031496062992
        },
        {
          "duration": 0.34134581249999485,
          "durationTicks": 71,
          "midi": 55,
          "name": "G3",
          "ticks": 15652,
          "time": 75.24992474999999,
          "velocity": 0.5590551181102362
        },
        {
          "duration": 0.3365381249999899,
          "durationTicks": 70,
          "midi": 51,
          "name": "D#3",
          "ticks": 15725,
          "time": 75.6008859375,
          "velocity": 0.5590551181102362
        },
        {
          "duration": 0.11538450000000466,
          "durationTicks": 24,
          "midi": 48,
          "name": "C3",
          "ticks": 15797,
          "time": 75.9470394375,
          "velocity": 0.5826771653543307
        },
        {
          "duration": 0.08173068750001278,
          "durationTicks": 17,
          "midi": 59,
          "name": "B3",
          "ticks": 15823,
          "time": 76.07203931249998,
          "velocity": 0.5196850393700787
        },
        {
          "duration": 0.2115382500000038,
          "durationTicks": 44,
          "midi": 59,
          "name": "B3",
          "ticks": 15841,
          "time": 76.15857768749999,
          "velocity": 0.5275590551181102
        },
        {
          "duration": 1.8653827499999949,
          "durationTicks": 388,
          "midi": 59,
          "name": "B3",
          "ticks": 15886,
          "time": 76.374923625,
          "velocity": 0.5748031496062992
        },
        {
          "duration": 0.23076899999999512,
          "durationTicks": 48,
          "midi": 57,
          "name": "A3",
          "ticks": 16275,
          "time": 78.2451140625,
          "velocity": 0.5118110236220472
        },
        {
          "duration": 0.1394229375000009,
          "durationTicks": 29,
          "midi": 59,
          "name": "B3",
          "ticks": 16324,
          "time": 78.48069075,
          "velocity": 0.5196850393700787
        },
        {
          "duration": 0.4230765000000076,
          "durationTicks": 88,
          "midi": 59,
          "name": "B3",
          "ticks": 16354,
          "time": 78.62492137499999,
          "velocity": 0.5196850393700787
        },
        {
          "duration": 0.16346137499998292,
          "durationTicks": 34,
          "midi": 51,
          "name": "D#3",
          "ticks": 16443,
          "time": 79.0528055625,
          "velocity": 0.6141732283464567
        },
        {
          "duration": 0.41346112499998355,
          "durationTicks": 86,
          "midi": 60,
          "name": "C4",
          "ticks": 16478,
          "time": 79.221074625,
          "velocity": 0.5354330708661418
        },
        {
          "duration": 0.1586536875000064,
          "durationTicks": 33,
          "midi": 51,
          "name": "D#3",
          "ticks": 16565,
          "time": 79.63934343749999,
          "velocity": 0.5511811023622047
        },
        {
          "duration": 0.25480743750000556,
          "durationTicks": 53,
          "midi": 52,
          "name": "E3",
          "ticks": 16600,
          "time": 79.80761249999999,
          "velocity": 0.5590551181102362
        },
        {
          "duration": 0.6538455000000027,
          "durationTicks": 136,
          "midi": 42,
          "name": "F#2",
          "ticks": 16657,
          "time": 80.08165068749999,
          "velocity": 0.6692913385826772
        },
        {
          "duration": 0.3365381249999899,
          "durationTicks": 70,
          "midi": 52,
          "name": "E3",
          "ticks": 16794,
          "time": 80.740303875,
          "velocity": 0.5905511811023622
        },
        {
          "duration": 0.0528845624999974,
          "durationTicks": 11,
          "midi": 51,
          "name": "D#3",
          "ticks": 16866,
          "time": 81.086457375,
          "velocity": 0.5590551181102362
        },
        {
          "duration": 0.11057681249999973,
          "durationTicks": 23,
          "midi": 51,
          "name": "D#3",
          "ticks": 16878,
          "time": 81.144149625,
          "velocity": 0.5590551181102362
        },
        {
          "duration": 0.16346137499999713,
          "durationTicks": 34,
          "midi": 51,
          "name": "D#3",
          "ticks": 16903,
          "time": 81.26434181249999,
          "velocity": 0.5433070866141733
        },
        {
          "duration": 0.09615374999999915,
          "durationTicks": 20,
          "midi": 50,
          "name": "D3",
          "ticks": 16938,
          "time": 81.432610875,
          "velocity": 0.5590551181102362
        },
        {
          "duration": 0.09134606250000843,
          "durationTicks": 19,
          "midi": 59,
          "name": "B3",
          "ticks": 16959,
          "time": 81.53357231249998,
          "velocity": 0.5275590551181102
        },
        {
          "duration": 0.32692274999999427,
          "durationTicks": 68,
          "midi": 51,
          "name": "D#3",
          "ticks": 16979,
          "time": 81.6297260625,
          "velocity": 0.5826771653543307
        },
        {
          "duration": 0.04807687499999247,
          "durationTicks": 10,
          "midi": 51,
          "name": "D#3",
          "ticks": 17049,
          "time": 81.96626418749999,
          "velocity": 0.5748031496062992
        },
        {
          "duration": 0.14903831249999655,
          "durationTicks": 31,
          "midi": 51,
          "name": "D#3",
          "ticks": 17061,
          "time": 82.02395643749999,
          "velocity": 0.5590551181102362
        },
        {
          "duration": 0.0528845624999974,
          "durationTicks": 11,
          "midi": 49,
          "name": "C#3",
          "ticks": 17093,
          "time": 82.17780243749999,
          "velocity": 0.5669291338582677
        },
        {
          "duration": 0.12019218749999538,
          "durationTicks": 25,
          "midi": 47,
          "name": "B2",
          "ticks": 17105,
          "time": 82.2354946875,
          "velocity": 0.5354330708661418
        },
        {
          "duration": 0.173076750000007,
          "durationTicks": 36,
          "midi": 50,
          "name": "D3",
          "ticks": 17131,
          "time": 82.36049456249998,
          "velocity": 0.5511811023622047
        },
        {
          "duration": 0.17788443749999772,
          "durationTicks": 37,
          "midi": 48,
          "name": "C3",
          "ticks": 17168,
          "time": 82.53837899999999,
          "velocity": 0.5511811023622047
        },
        {
          "duration": 0.12980756250000525,
          "durationTicks": 27,
          "midi": 52,
          "name": "E3",
          "ticks": 17206,
          "time": 82.72107112499998,
          "velocity": 0.5590551181102362
        },
        {
          "duration": 1.221152625000002,
          "durationTicks": 254,
          "midi": 49,
          "name": "C#3",
          "ticks": 17235,
          "time": 82.8604940625,
          "velocity": 0.5669291338582677
        },
        {
          "duration": 0.04807687500000668,
          "durationTicks": 10,
          "midi": 48,
          "name": "C3",
          "ticks": 17491,
          "time": 84.0912620625,
          "velocity": 0.5354330708661418
        },
        {
          "duration": 0.16346137500001134,
          "durationTicks": 34,
          "midi": 49,
          "name": "C#3",
          "ticks": 17503,
          "time": 84.14895431249998,
          "velocity": 0.5590551181102362
        },
        {
          "duration": 0.10576912500000901,
          "durationTicks": 22,
          "midi": 51,
          "name": "D#3",
          "ticks": 17539,
          "time": 84.32203106249999,
          "velocity": 0.6062992125984252
        },
        {
          "duration": 0.04326918749998754,
          "durationTicks": 9,
          "midi": 59,
          "name": "B3",
          "ticks": 17563,
          "time": 84.4374155625,
          "velocity": 0.5118110236220472
        },
        {
          "duration": 0.24038437500000498,
          "durationTicks": 50,
          "midi": 51,
          "name": "D#3",
          "ticks": 17574,
          "time": 84.49030012499999,
          "velocity": 0.5669291338582677
        },
        {
          "duration": 0.06249993749999305,
          "durationTicks": 13,
          "midi": 52,
          "name": "E3",
          "ticks": 17625,
          "time": 84.73549218749999,
          "velocity": 0.5354330708661418
        },
        {
          "duration": 0.24038437499999077,
          "durationTicks": 50,
          "midi": 57,
          "name": "A3",
          "ticks": 17639,
          "time": 84.8027998125,
          "velocity": 0.6220472440944882
        },
        {
          "duration": 0.37499962500000095,
          "durationTicks": 78,
          "midi": 60,
          "name": "C4",
          "ticks": 17694,
          "time": 85.06722262499999,
          "velocity": 0.5354330708661418
        },
        {
          "duration": 0.23076899999999512,
          "durationTicks": 48,
          "midi": 51,
          "name": "D#3",
          "ticks": 17774,
          "time": 85.451837625,
          "velocity": 0.5511811023622047
        },
        {
          "duration": 0.71634543750001,
          "durationTicks": 149,
          "midi": 51,
          "name": "D#3",
          "ticks": 17824,
          "time": 85.69222199999999,
          "velocity": 0.5669291338582677
        },
        {
          "duration": 0.19711518750000323,
          "durationTicks": 41,
          "midi": 50,
          "name": "D3",
          "ticks": 17974,
          "time": 86.41337512499999,
          "velocity": 0.5511811023622047
        },
        {
          "duration": 0.25480743750000556,
          "durationTicks": 53,
          "midi": 52,
          "name": "E3",
          "ticks": 18015,
          "time": 86.61049031249999,
          "velocity": 0.5748031496062992
        },
        {
          "duration": 0.20192287499999395,
          "durationTicks": 42,
          "midi": 51,
          "name": "D#3",
          "ticks": 18070,
          "time": 86.87491312499999,
          "velocity": 0.5433070866141733
        },
        {
          "duration": 0.09615374999999915,
          "durationTicks": 20,
          "midi": 59,
          "name": "B3",
          "ticks": 18113,
          "time": 87.08164368749999,
          "velocity": 0.5275590551181102
        },
        {
          "duration": 0.7115377500000051,
          "durationTicks": 148,
          "midi": 63,
          "name": "D#4",
          "ticks": 18133,
          "time": 87.17779743749999,
          "velocity": 0.5826771653543307
        },
        {
          "duration": 1.7499982500000044,
          "durationTicks": 364,
          "midi": 55,
          "name": "G3",
          "ticks": 18282,
          "time": 87.89414287499999,
          "velocity": 0.5433070866141733
        },
        {
          "duration": 0.16826906250000206,
          "durationTicks": 35,
          "midi": 62,
          "name": "D4",
          "ticks": 18646,
          "time": 89.64414112499999,
          "velocity": 0.5826771653543307
        },
        {
          "duration": 0.5096148749999969,
          "durationTicks": 106,
          "midi": 51,
          "name": "D#3",
          "ticks": 18681,
          "time": 89.81241018749999,
          "velocity": 0.5511811023622047
        },
        {
          "duration": 0.2980766249999931,
          "durationTicks": 62,
          "midi": 51,
          "name": "D#3",
          "ticks": 18788,
          "time": 90.32683275,
          "velocity": 0.5511811023622047
        },
        {
          "duration": 0.11538450000000466,
          "durationTicks": 24,
          "midi": 51,
          "name": "D#3",
          "ticks": 18851,
          "time": 90.62971706249999,
          "velocity": 0.6299212598425197
        },
        {
          "duration": 0.3124996874999937,
          "durationTicks": 65,
          "midi": 51,
          "name": "D#3",
          "ticks": 18877,
          "time": 90.75471693749999,
          "velocity": 0.5669291338582677
        },
        {
          "duration": 0.05769224999998812,
          "durationTicks": 12,
          "midi": 51,
          "name": "D#3",
          "ticks": 18943,
          "time": 91.07202431249999,
          "velocity": 0.5905511811023622
        },
        {
          "duration": 0.17307674999999278,
          "durationTicks": 36,
          "midi": 52,
          "name": "E3",
          "ticks": 18956,
          "time": 91.13452425,
          "velocity": 0.5433070866141733
        },
        {
          "duration": 0.7019223749999952,
          "durationTicks": 146,
          "midi": 52,
          "name": "E3",
          "ticks": 18993,
          "time": 91.3124086875,
          "velocity": 0.5905511811023622
        },
        {
          "duration": 0.5576917500000036,
          "durationTicks": 116,
          "midi": 51,
          "name": "D#3",
          "ticks": 19140,
          "time": 92.01913875,
          "velocity": 0.5984251968503937
        },
        {
          "duration": 0.11538450000000466,
          "durationTicks": 24,
          "midi": 58,
          "name": "A#3",
          "ticks": 19257,
          "time": 92.58163818749999,
          "velocity": 0.5433070866141733
        },
        {
          "duration": 0.09134606250000843,
          "durationTicks": 19,
          "midi": 60,
          "name": "C4",
          "ticks": 19282,
          "time": 92.70183037499999,
          "velocity": 0.5196850393700787
        },
        {
          "duration": 0.35576887500000964,
          "durationTicks": 74,
          "midi": 59,
          "name": "B3",
          "ticks": 19302,
          "time": 92.79798412499999,
          "velocity": 0.5590551181102362
        },
        {
          "duration": 0.5384609999999981,
          "durationTicks": 112,
          "midi": 62,
          "name": "D4",
          "ticks": 19376,
          "time": 93.153753,
          "velocity": 0.5669291338582677
        },
        {
          "duration": 0.11538450000000466,
          "durationTicks": 24,
          "midi": 71,
          "name": "B4",
          "ticks": 19489,
          "time": 93.69702168749998,
          "velocity": 0.5433070866141733
        },
        {
          "duration": 0.09134606250000843,
          "durationTicks": 19,
          "midi": 63,
          "name": "D#4",
          "ticks": 19513,
          "time": 93.81240618749999,
          "velocity": 0.5433070866141733
        },
        {
          "duration": 0.5048071875000062,
          "durationTicks": 105,
          "midi": 51,
          "name": "D#3",
          "ticks": 19533,
          "time": 93.90855993749999,
          "velocity": 0.5748031496062992
        },
        {
          "duration": 0.04807687500000668,
          "durationTicks": 10,
          "midi": 54,
          "name": "F#3",
          "ticks": 19640,
          "time": 94.42298249999999,
          "velocity": 0.5905511811023622
        },
        {
          "duration": 0.8269222500000097,
          "durationTicks": 172,
          "midi": 54,
          "name": "F#3",
          "ticks": 19651,
          "time": 94.47586706249999,
          "velocity": 0.6062992125984252
        },
        {
          "duration": 0.17788443749999772,
          "durationTicks": 37,
          "midi": 55,
          "name": "G3",
          "ticks": 19825,
          "time": 95.31240468749999,
          "velocity": 0.5748031496062992
        },
        {
          "duration": 0.13461524999999597,
          "durationTicks": 28,
          "midi": 57,
          "name": "A3",
          "ticks": 19863,
          "time": 95.4950968125,
          "velocity": 0.5826771653543307
        },
        {
          "duration": 0.07211531250000291,
          "durationTicks": 15,
          "midi": 57,
          "name": "A3",
          "ticks": 19892,
          "time": 95.63451975,
          "velocity": 0.6141732283464567
        },
        {
          "duration": 0.09615374999999915,
          "durationTicks": 20,
          "midi": 58,
          "name": "A#3",
          "ticks": 19908,
          "time": 95.71144274999999,
          "velocity": 0.5748031496062992
        },
        {
          "duration": 0.20192287499999395,
          "durationTicks": 42,
          "midi": 55,
          "name": "G3",
          "ticks": 19929,
          "time": 95.8124041875,
          "velocity": 0.5669291338582677
        },
        {
          "duration": 0.18269212499998844,
          "durationTicks": 38,
          "midi": 56,
          "name": "G#3",
          "ticks": 20081,
          "time": 96.54317268749999,
          "velocity": 0.5984251968503937
        },
        {
          "duration": 0.1249998749999861,
          "durationTicks": 26,
          "midi": 55,
          "name": "G3",
          "ticks": 20123,
          "time": 96.7450955625,
          "velocity": 0.5826771653543307
        },
        {
          "duration": 0.08173068749999857,
          "durationTicks": 17,
          "midi": 60,
          "name": "C4",
          "ticks": 20149,
          "time": 96.87009543749998,
          "velocity": 0.5354330708661418
        },
        {
          "duration": 0.10576912500000901,
          "durationTicks": 22,
          "midi": 57,
          "name": "A3",
          "ticks": 20167,
          "time": 96.95663381249999,
          "velocity": 0.6141732283464567
        },
        {
          "duration": 0.3653842499999911,
          "durationTicks": 76,
          "midi": 60,
          "name": "C4",
          "ticks": 20190,
          "time": 97.06721062499999,
          "velocity": 0.5354330708661418
        },
        {
          "duration": 0.5480763749999937,
          "durationTicks": 114,
          "midi": 62,
          "name": "D4",
          "ticks": 20270,
          "time": 97.451825625,
          "velocity": 0.5275590551181102
        },
        {
          "duration": 0.04326918750000175,
          "durationTicks": 9,
          "midi": 61,
          "name": "C#4",
          "ticks": 20385,
          "time": 98.00470968749998,
          "velocity": 0.5748031496062992
        },
        {
          "duration": 0.1394229375000009,
          "durationTicks": 29,
          "midi": 59,
          "name": "B3",
          "ticks": 20395,
          "time": 98.05278656249999,
          "velocity": 0.5826771653543307
        },
        {
          "duration": 0.30288431249999803,
          "durationTicks": 63,
          "midi": 61,
          "name": "C#4",
          "ticks": 20425,
          "time": 98.19701718749998,
          "velocity": 0.5590551181102362
        },
        {
          "duration": 0.06730762499999798,
          "durationTicks": 14,
          "midi": 59,
          "name": "B3",
          "ticks": 20508,
          "time": 98.59605524999999,
          "velocity": 0.5826771653543307
        },
        {
          "duration": 0.2259613125000044,
          "durationTicks": 47,
          "midi": 59,
          "name": "B3",
          "ticks": 20523,
          "time": 98.6681705625,
          "velocity": 0.5511811023622047
        },
        {
          "duration": 0.05769225000000233,
          "durationTicks": 12,
          "midi": 59,
          "name": "B3",
          "ticks": 20571,
          "time": 98.89893956249999,
          "velocity": 0.5118110236220472
        },
        {
          "duration": 0.05288456250001161,
          "durationTicks": 11,
          "midi": 58,
          "name": "A#3",
          "ticks": 20584,
          "time": 98.96143949999998,
          "velocity": 0.5826771653543307
        },
        {
          "duration": 0.0865383750000035,
          "durationTicks": 18,
          "midi": 60,
          "name": "C4",
          "ticks": 20596,
          "time": 99.01913174999999,
          "velocity": 0.5275590551181102
        },
        {
          "duration": 0.0865383750000035,
          "durationTicks": 18,
          "midi": 57,
          "name": "A3",
          "ticks": 20615,
          "time": 99.1104778125,
          "velocity": 0.5748031496062992
        },
        {
          "duration": 0.1586536875000064,
          "durationTicks": 33,
          "midi": 60,
          "name": "C4",
          "ticks": 20634,
          "time": 99.20182387499999,
          "velocity": 0.5354330708661418
        },
        {
          "duration": 0.04807687500000668,
          "durationTicks": 10,
          "midi": 57,
          "name": "A3",
          "ticks": 20668,
          "time": 99.36528524999999,
          "velocity": 0.5748031496062992
        },
        {
          "duration": 0.04807687500000668,
          "durationTicks": 10,
          "midi": 59,
          "name": "B3",
          "ticks": 20679,
          "time": 99.41816981249998,
          "velocity": 0.5196850393700787
        },
        {
          "duration": 0.05288456249998319,
          "durationTicks": 11,
          "midi": 59,
          "name": "B3",
          "ticks": 20690,
          "time": 99.471054375,
          "velocity": 0.5275590551181102
        },
        {
          "duration": 0.1923074999999983,
          "durationTicks": 40,
          "midi": 57,
          "name": "A3",
          "ticks": 20702,
          "time": 99.528746625,
          "velocity": 0.5669291338582677
        },
        {
          "duration": 0.7548069375000068,
          "durationTicks": 157,
          "midi": 58,
          "name": "A#3",
          "ticks": 20743,
          "time": 99.72586181249999,
          "velocity": 0.5354330708661418
        },
        {
          "duration": 0.14903831249999655,
          "durationTicks": 31,
          "midi": 55,
          "name": "G3",
          "ticks": 20983,
          "time": 100.87970681249999,
          "velocity": 0.6062992125984252
        },
        {
          "duration": 0.17307674999999278,
          "durationTicks": 36,
          "midi": 54,
          "name": "F#3",
          "ticks": 21015,
          "time": 101.03355281249999,
          "velocity": 0.5905511811023622
        },
        {
          "duration": 0.14423062499999162,
          "durationTicks": 30,
          "midi": 57,
          "name": "A3",
          "ticks": 21052,
          "time": 101.21143724999999,
          "velocity": 0.5275590551181102
        },
        {
          "duration": 0.04326918749998754,
          "durationTicks": 9,
          "midi": 50,
          "name": "D3",
          "ticks": 21083,
          "time": 101.3604755625,
          "velocity": 0.5275590551181102
        },
        {
          "duration": 0.16826906250000206,
          "durationTicks": 35,
          "midi": 57,
          "name": "A3",
          "ticks": 21093,
          "time": 101.40855243749999,
          "velocity": 0.5275590551181102
        },
        {
          "duration": 0.2115382500000038,
          "durationTicks": 44,
          "midi": 59,
          "name": "B3",
          "ticks": 21129,
          "time": 101.58162918749998,
          "velocity": 0.5275590551181102
        },
        {
          "duration": 0.10096143749998987,
          "durationTicks": 21,
          "midi": 59,
          "name": "B3",
          "ticks": 21174,
          "time": 101.797975125,
          "velocity": 0.5196850393700787
        },
        {
          "duration": 0.4182688125000027,
          "durationTicks": 87,
          "midi": 33,
          "name": "A1",
          "ticks": 21195,
          "time": 101.89893656249998,
          "velocity": 0.5275590551181102
        },
        {
          "duration": 0.17788443749999772,
          "durationTicks": 37,
          "midi": 60,
          "name": "C4",
          "ticks": 21283,
          "time": 102.32201306249999,
          "velocity": 0.5905511811023622
        },
        {
          "duration": 0.16826906250000206,
          "durationTicks": 35,
          "midi": 59,
          "name": "B3",
          "ticks": 21324,
          "time": 102.51912825,
          "velocity": 0.5826771653543307
        },
        {
          "duration": 0.12019218749999538,
          "durationTicks": 25,
          "midi": 60,
          "name": "C4",
          "ticks": 21360,
          "time": 102.69220499999999,
          "velocity": 0.5905511811023622
        },
        {
          "duration": 0.15384600000000148,
          "durationTicks": 32,
          "midi": 60,
          "name": "C4",
          "ticks": 21386,
          "time": 102.81720487499999,
          "velocity": 0.5511811023622047
        },
        {
          "duration": 0.673076249999994,
          "durationTicks": 140,
          "midi": 59,
          "name": "B3",
          "ticks": 21419,
          "time": 102.9758585625,
          "velocity": 0.5748031496062992
        },
        {
          "duration": 0.30769199999998875,
          "durationTicks": 64,
          "midi": 60,
          "name": "C4",
          "ticks": 21560,
          "time": 103.65374249999999,
          "velocity": 0.6141732283464567
        },
        {
          "duration": 0.3701919375000102,
          "durationTicks": 77,
          "midi": 55,
          "name": "G3",
          "ticks": 21624,
          "time": 103.96143449999998,
          "velocity": 0.5433070866141733
        },
        {
          "duration": 0.08653837499998929,
          "durationTicks": 18,
          "midi": 55,
          "name": "G3",
          "ticks": 21740,
          "time": 104.51912625,
          "velocity": 0.5826771653543307
        },
        {
          "duration": 0.14903831249999655,
          "durationTicks": 31,
          "midi": 59,
          "name": "B3",
          "ticks": 21759,
          "time": 104.6104723125,
          "velocity": 0.5354330708661418
        },
        {
          "duration": 0.05288456249998319,
          "durationTicks": 11,
          "midi": 57,
          "name": "A3",
          "ticks": 21791,
          "time": 104.7643183125,
          "velocity": 0.5826771653543307
        },
        {
          "duration": 0.11538450000000466,
          "durationTicks": 24,
          "midi": 60,
          "name": "C4",
          "ticks": 21802,
          "time": 104.81720287499998,
          "velocity": 0.5433070866141733
        },
        {
          "duration": 0.0528845624999974,
          "durationTicks": 11,
          "midi": 56,
          "name": "G#3",
          "ticks": 21827,
          "time": 104.93739506249999,
          "velocity": 0.5433070866141733
        },
        {
          "duration": 0.24038437499999077,
          "durationTicks": 50,
          "midi": 60,
          "name": "C4",
          "ticks": 21839,
          "time": 104.99508731249999,
          "velocity": 0.5196850393700787
        },
        {
          "duration": 0.04807687500000668,
          "durationTicks": 10,
          "midi": 59,
          "name": "B3",
          "ticks": 21890,
          "time": 105.24027937499999,
          "velocity": 0.5275590551181102
        },
        {
          "duration": 0.05769225000000233,
          "durationTicks": 12,
          "midi": 55,
          "name": "G3",
          "ticks": 21901,
          "time": 105.29316393749998,
          "velocity": 0.6299212598425197
        },
        {
          "duration": 0.12499987500000032,
          "durationTicks": 26,
          "midi": 55,
          "name": "G3",
          "ticks": 21914,
          "time": 105.35566387499999,
          "velocity": 0.6220472440944882
        },
        {
          "duration": 0.04807687499999247,
          "durationTicks": 10,
          "midi": 59,
          "name": "B3",
          "ticks": 21941,
          "time": 105.4854714375,
          "velocity": 0.5354330708661418
        },
        {
          "duration": 0.3990380625000114,
          "durationTicks": 83,
          "midi": 57,
          "name": "A3",
          "ticks": 21952,
          "time": 105.53835599999998,
          "velocity": 0.5433070866141733
        },
        {
          "duration": 0.26923050000000615,
          "durationTicks": 56,
          "midi": 56,
          "name": "G#3",
          "ticks": 22035,
          "time": 105.93739406249999,
          "velocity": 0.5905511811023622
        },
        {
          "duration": 0.11057681249998552,
          "durationTicks": 23,
          "midi": 57,
          "name": "A3",
          "ticks": 22091,
          "time": 106.2066245625,
          "velocity": 0.5511811023622047
        },
        {
          "duration": 0.1586536875000064,
          "durationTicks": 33,
          "midi": 57,
          "name": "A3",
          "ticks": 22115,
          "time": 106.32200906249999,
          "velocity": 0.5511811023622047
        },
        {
          "duration": 0.04807687500000668,
          "durationTicks": 10,
          "midi": 56,
          "name": "G#3",
          "ticks": 22149,
          "time": 106.48547043749998,
          "velocity": 0.5511811023622047
        },
        {
          "duration": 0.14903831249999655,
          "durationTicks": 31,
          "midi": 57,
          "name": "A3",
          "ticks": 22160,
          "time": 106.538355,
          "velocity": 0.5590551181102362
        },
        {
          "duration": 0.06249993749999305,
          "durationTicks": 13,
          "midi": 57,
          "name": "A3",
          "ticks": 22191,
          "time": 106.68739331249999,
          "velocity": 0.5826771653543307
        },
        {
          "duration": 0.15384599999998727,
          "durationTicks": 32,
          "midi": 56,
          "name": "G#3",
          "ticks": 22205,
          "time": 106.75470093749999,
          "velocity": 0.5511811023622047
        },
        {
          "duration": 0.12019218749999538,
          "durationTicks": 25,
          "midi": 56,
          "name": "G#3",
          "ticks": 22238,
          "time": 106.913354625,
          "velocity": 0.5748031496062992
        },
        {
          "duration": 0.173076750000007,
          "durationTicks": 36,
          "midi": 57,
          "name": "A3",
          "ticks": 22264,
          "time": 107.03835449999998,
          "velocity": 0.5275590551181102
        },
        {
          "duration": 0.07211531250000291,
          "durationTicks": 15,
          "midi": 55,
          "name": "G3",
          "ticks": 22301,
          "time": 107.2162389375,
          "velocity": 0.6220472440944882
        },
        {
          "duration": 0.17307674999999278,
          "durationTicks": 36,
          "midi": 57,
          "name": "A3",
          "ticks": 22317,
          "time": 107.29316193749999,
          "velocity": 0.5826771653543307
        },
        {
          "duration": 0.12980756249999104,
          "durationTicks": 27,
          "midi": 59,
          "name": "B3",
          "ticks": 22354,
          "time": 107.47104637499999,
          "velocity": 0.5275590551181102
        },
        {
          "duration": 0.19711518749998902,
          "durationTicks": 41,
          "midi": 58,
          "name": "A#3",
          "ticks": 22382,
          "time": 107.605661625,
          "velocity": 0.5826771653543307
        },
        {
          "duration": 0.6346147499999972,
          "durationTicks": 132,
          "midi": 59,
          "name": "B3",
          "ticks": 22438,
          "time": 107.87489212499999,
          "velocity": 0.5748031496062992
        },
        {
          "duration": 0.16826906249998785,
          "durationTicks": 35,
          "midi": 60,
          "name": "C4",
          "ticks": 22571,
          "time": 108.51431456249999,
          "velocity": 0.5511811023622047
        },
        {
          "duration": 0.11057681249998552,
          "durationTicks": 23,
          "midi": 57,
          "name": "A3",
          "ticks": 22607,
          "time": 108.6873913125,
          "velocity": 0.6220472440944882
        },
        {
          "duration": 0.20673056249999888,
          "durationTicks": 43,
          "midi": 56,
          "name": "G#3",
          "ticks": 22769,
          "time": 109.46623668749999,
          "velocity": 0.5669291338582677
        },
        {
          "duration": 0.4182688124999885,
          "durationTicks": 87,
          "midi": 49,
          "name": "C#3",
          "ticks": 22813,
          "time": 109.67777493749999,
          "velocity": 0.5511811023622047
        },
        {
          "duration": 0.06249993749999305,
          "durationTicks": 13,
          "midi": 57,
          "name": "A3",
          "ticks": 22901,
          "time": 110.1008514375,
          "velocity": 0.5748031496062992
        },
        {
          "duration": 0.13461525000001018,
          "durationTicks": 28,
          "midi": 57,
          "name": "A3",
          "ticks": 22915,
          "time": 110.16815906249998,
          "velocity": 0.5748031496062992
        },
        {
          "duration": 0.21634593749999453,
          "durationTicks": 45,
          "midi": 59,
          "name": "B3",
          "ticks": 22943,
          "time": 110.30277431249999,
          "velocity": 0.5196850393700787
        },
        {
          "duration": 0.10096143749998987,
          "durationTicks": 21,
          "midi": 58,
          "name": "A#3",
          "ticks": 22989,
          "time": 110.52392793749999,
          "velocity": 0.5984251968503937
        },
        {
          "duration": 0.16826906250000206,
          "durationTicks": 35,
          "midi": 58,
          "name": "A#3",
          "ticks": 23011,
          "time": 110.62969706249999,
          "velocity": 0.5905511811023622
        },
        {
          "duration": 0.0673076250000122,
          "durationTicks": 14,
          "midi": 56,
          "name": "G#3",
          "ticks": 23047,
          "time": 110.80277381249998,
          "velocity": 0.5905511811023622
        },
        {
          "duration": 0.05769225000000233,
          "durationTicks": 12,
          "midi": 58,
          "name": "A#3",
          "ticks": 23062,
          "time": 110.87488912499998,
          "velocity": 0.5748031496062992
        },
        {
          "duration": 0.11057681249999973,
          "durationTicks": 23,
          "midi": 59,
          "name": "B3",
          "ticks": 23075,
          "time": 110.93738906249999,
          "velocity": 0.5354330708661418
        },
        {
          "duration": 0.7451915624999828,
          "durationTicks": 155,
          "midi": 57,
          "name": "A3",
          "ticks": 23099,
          "time": 111.0527735625,
          "velocity": 0.5905511811023622
        },
        {
          "duration": 0.4519226249999946,
          "durationTicks": 94,
          "midi": 54,
          "name": "F#3",
          "ticks": 23255,
          "time": 111.8027728125,
          "velocity": 0.5984251968503937
        },
        {
          "duration": 0.2451920624999957,
          "durationTicks": 51,
          "midi": 53,
          "name": "F3",
          "ticks": 23355,
          "time": 112.28354156249999,
          "velocity": 0.6535433070866141
        },
        {
          "duration": 0.2932689375000024,
          "durationTicks": 61,
          "midi": 55,
          "name": "G3",
          "ticks": 23420,
          "time": 112.59604124999998,
          "velocity": 0.5590551181102362
        },
        {
          "duration": 0.07211531250000291,
          "durationTicks": 15,
          "midi": 55,
          "name": "G3",
          "ticks": 23482,
          "time": 112.89411787499998,
          "velocity": 0.5669291338582677
        },
        {
          "duration": 0.14903831250001076,
          "durationTicks": 31,
          "midi": 54,
          "name": "F#3",
          "ticks": 23509,
          "time": 113.02392543749998,
          "velocity": 0.5748031496062992
        },
        {
          "duration": 0.16826906250000206,
          "durationTicks": 35,
          "midi": 56,
          "name": "G#3",
          "ticks": 23542,
          "time": 113.18257912499999,
          "velocity": 0.5826771653543307
        },
        {
          "duration": 0.32211506250000355,
          "durationTicks": 67,
          "midi": 55,
          "name": "G3",
          "ticks": 23578,
          "time": 113.35565587499998,
          "velocity": 0.5511811023622047
        },
        {
          "duration": 0.3124996874999937,
          "durationTicks": 65,
          "midi": 33,
          "name": "A1",
          "ticks": 23649,
          "time": 113.69700168749999,
          "velocity": 0.5511811023622047
        },
        {
          "duration": 0.23076899999999512,
          "durationTicks": 48,
          "midi": 56,
          "name": "G#3",
          "ticks": 23715,
          "time": 114.01430906249999,
          "velocity": 0.5748031496062992
        },
        {
          "duration": 0.08173068750001278,
          "durationTicks": 17,
          "midi": 56,
          "name": "G#3",
          "ticks": 23764,
          "time": 114.24988574999998,
          "velocity": 0.5511811023622047
        },
        {
          "duration": 0.05769225000000233,
          "durationTicks": 12,
          "midi": 57,
          "name": "A3",
          "ticks": 23782,
          "time": 114.33642412499998,
          "velocity": 0.6141732283464567
        },
        {
          "duration": 0.04326918750000175,
          "durationTicks": 9,
          "midi": 57,
          "name": "A3",
          "ticks": 23795,
          "time": 114.39892406249999,
          "velocity": 0.5669291338582677
        },
        {
          "duration": 0.0721153124999887,
          "durationTicks": 15,
          "midi": 60,
          "name": "C4",
          "ticks": 23805,
          "time": 114.4470009375,
          "velocity": 0.5354330708661418
        },
        {
          "duration": 0.19711518750000323,
          "durationTicks": 41,
          "midi": 57,
          "name": "A3",
          "ticks": 23821,
          "time": 114.52392393749999,
          "velocity": 0.5669291338582677
        },
        {
          "duration": 0.04807687499999247,
          "durationTicks": 10,
          "midi": 57,
          "name": "A3",
          "ticks": 23862,
          "time": 114.72103912499999,
          "velocity": 0.6456692913385826
        },
        {
          "duration": 0.08173068749999857,
          "durationTicks": 17,
          "midi": 57,
          "name": "A3",
          "ticks": 23873,
          "time": 114.77392368749999,
          "velocity": 0.6771653543307087
        },
        {
          "duration": 0.11538450000000466,
          "durationTicks": 24,
          "midi": 57,
          "name": "A3",
          "ticks": 23891,
          "time": 114.86046206249999,
          "velocity": 0.6456692913385826
        },
        {
          "duration": 0.4903841249999914,
          "durationTicks": 102,
          "midi": 59,
          "name": "B3",
          "ticks": 23996,
          "time": 115.36526925,
          "velocity": 0.5669291338582677
        },
        {
          "duration": 0.06730762499999798,
          "durationTicks": 14,
          "midi": 55,
          "name": "G3",
          "ticks": 24099,
          "time": 115.8604610625,
          "velocity": 0.5669291338582677
        },
        {
          "duration": 0.0673076250000122,
          "durationTicks": 14,
          "midi": 60,
          "name": "C4",
          "ticks": 24114,
          "time": 115.93257637499998,
          "velocity": 0.5905511811023622
        },
        {
          "duration": 0.07211531250000291,
          "durationTicks": 15,
          "midi": 59,
          "name": "B3",
          "ticks": 24129,
          "time": 116.00469168749999,
          "velocity": 0.5275590551181102
        },
        {
          "duration": 0.1586536875000064,
          "durationTicks": 33,
          "midi": 56,
          "name": "G#3",
          "ticks": 24145,
          "time": 116.08161468749998,
          "velocity": 0.5669291338582677
        },
        {
          "duration": 0.1586536875000064,
          "durationTicks": 33,
          "midi": 59,
          "name": "B3",
          "ticks": 24179,
          "time": 116.24507606249999,
          "velocity": 0.5511811023622047
        },
        {
          "duration": 0.0865383750000035,
          "durationTicks": 18,
          "midi": 60,
          "name": "C4",
          "ticks": 24213,
          "time": 116.40853743749999,
          "velocity": 0.5354330708661418
        },
        {
          "duration": 0.09134606250000843,
          "durationTicks": 19,
          "midi": 58,
          "name": "A#3",
          "ticks": 24232,
          "time": 116.49988349999998,
          "velocity": 0.5354330708661418
        },
        {
          "duration": 0.06249993750000726,
          "durationTicks": 13,
          "midi": 60,
          "name": "C4",
          "ticks": 24252,
          "time": 116.59603724999998,
          "velocity": 0.5511811023622047
        },
        {
          "duration": 0.05288456249998319,
          "durationTicks": 11,
          "midi": 61,
          "name": "C#4",
          "ticks": 24266,
          "time": 116.66334487499999,
          "velocity": 0.5984251968503937
        },
        {
          "duration": 0.10096143749998987,
          "durationTicks": 21,
          "midi": 59,
          "name": "B3",
          "ticks": 24278,
          "time": 116.721037125,
          "velocity": 0.5275590551181102
        },
        {
          "duration": 0.21634593749999453,
          "durationTicks": 45,
          "midi": 58,
          "name": "A#3",
          "ticks": 24300,
          "time": 116.82680624999999,
          "velocity": 0.5511811023622047
        },
        {
          "duration": 0.12980756250000525,
          "durationTicks": 27,
          "midi": 59,
          "name": "B3",
          "ticks": 24345,
          "time": 117.04315218749998,
          "velocity": 0.5511811023622047
        },
        {
          "duration": 0.04807687500000668,
          "durationTicks": 10,
          "midi": 59,
          "name": "B3",
          "ticks": 24373,
          "time": 117.17776743749998,
          "velocity": 0.6062992125984252
        },
        {
          "duration": 0.05769224999998812,
          "durationTicks": 12,
          "midi": 61,
          "name": "C#4",
          "ticks": 24384,
          "time": 117.23065199999999,
          "velocity": 0.5669291338582677
        },
        {
          "duration": 0.05769225000000233,
          "durationTicks": 12,
          "midi": 60,
          "name": "C4",
          "ticks": 24396,
          "time": 117.28834424999998,
          "velocity": 0.5354330708661418
        },
        {
          "duration": 0.3173073749999986,
          "durationTicks": 66,
          "midi": 59,
          "name": "B3",
          "ticks": 24409,
          "time": 117.35084418749999,
          "velocity": 0.5275590551181102
        },
        {
          "duration": 0.5528840624999987,
          "durationTicks": 115,
          "midi": 59,
          "name": "B3",
          "ticks": 24476,
          "time": 117.67295924999999,
          "velocity": 0.5905511811023622
        },
        {
          "duration": 0.2115382499999896,
          "durationTicks": 44,
          "midi": 60,
          "name": "C4",
          "ticks": 24592,
          "time": 118.230651,
          "velocity": 0.5748031496062992
        },
        {
          "duration": 0.2836535624999925,
          "durationTicks": 59,
          "midi": 61,
          "name": "C#4",
          "ticks": 24637,
          "time": 118.44699693749999,
          "velocity": 0.5669291338582677
        },
        {
          "duration": 0.10576912499998059,
          "durationTicks": 22,
          "midi": 59,
          "name": "B3",
          "ticks": 24697,
          "time": 118.7354581875,
          "velocity": 0.5905511811023622
        },
        {
          "duration": 0.04326918750000175,
          "durationTicks": 9,
          "midi": 61,
          "name": "C#4",
          "ticks": 24720,
          "time": 118.84603499999999,
          "velocity": 0.5826771653543307
        },
        {
          "duration": 0.12980756250000525,
          "durationTicks": 27,
          "midi": 59,
          "name": "B3",
          "ticks": 24730,
          "time": 118.894111875,
          "velocity": 0.5905511811023622
        },
        {
          "duration": 0.04326918750000175,
          "durationTicks": 9,
          "midi": 61,
          "name": "C#4",
          "ticks": 24758,
          "time": 119.02872712499997,
          "velocity": 0.5748031496062992
        },
        {
          "duration": 0.09615374999999915,
          "durationTicks": 20,
          "midi": 60,
          "name": "C4",
          "ticks": 24768,
          "time": 119.07680399999998,
          "velocity": 0.5275590551181102
        },
        {
          "duration": 0.49519181250001054,
          "durationTicks": 103,
          "midi": 60,
          "name": "C4",
          "ticks": 24789,
          "time": 119.17776543749999,
          "velocity": 0.5826771653543307
        },
        {
          "duration": 0.14423062500000583,
          "durationTicks": 30,
          "midi": 62,
          "name": "D4",
          "ticks": 24892,
          "time": 119.67295725,
          "velocity": 0.6535433070866141
        },
        {
          "duration": 0.10096143750000408,
          "durationTicks": 21,
          "midi": 61,
          "name": "C#4",
          "ticks": 24923,
          "time": 119.82199556249998,
          "velocity": 0.5748031496062992
        },
        {
          "duration": 0.11538449999999045,
          "durationTicks": 24,
          "midi": 63,
          "name": "D#4",
          "ticks": 24944,
          "time": 119.92295699999998,
          "velocity": 0.6299212598425197
        },
        {
          "duration": 0.05769224999998812,
          "durationTicks": 12,
          "midi": 60,
          "name": "C4",
          "ticks": 24969,
          "time": 120.04314918749999,
          "velocity": 0.5748031496062992
        },
        {
          "duration": 0.677883937499999,
          "durationTicks": 141,
          "midi": 62,
          "name": "D4",
          "ticks": 24982,
          "time": 120.105649125,
          "velocity": 0.5590551181102362
        },
        {
          "duration": 0.278845875000016,
          "durationTicks": 58,
          "midi": 62,
          "name": "D4",
          "ticks": 25124,
          "time": 120.78834074999997,
          "velocity": 0.6141732283464567
        },
        {
          "duration": 0.16826906249998785,
          "durationTicks": 35,
          "midi": 61,
          "name": "C#4",
          "ticks": 25183,
          "time": 121.0719943125,
          "velocity": 0.5669291338582677
        },
        {
          "duration": 0.05769225000000233,
          "durationTicks": 12,
          "midi": 62,
          "name": "D4",
          "ticks": 25219,
          "time": 121.24507106249999,
          "velocity": 0.5196850393700787
        },
        {
          "duration": 0.28365356250000673,
          "durationTicks": 59,
          "midi": 61,
          "name": "C#4",
          "ticks": 25232,
          "time": 121.30757099999998,
          "velocity": 0.5669291338582677
        },
        {
          "duration": 0.11057681250001394,
          "durationTicks": 23,
          "midi": 33,
          "name": "A1",
          "ticks": 25292,
          "time": 121.59603224999998,
          "velocity": 0.5118110236220472
        },
        {
          "duration": 0.23076899999999512,
          "durationTicks": 48,
          "midi": 62,
          "name": "D4",
          "ticks": 25315,
          "time": 121.7066090625,
          "velocity": 0.5748031496062992
        },
        {
          "duration": 0.07692300000000785,
          "durationTicks": 16,
          "midi": 59,
          "name": "B3",
          "ticks": 25364,
          "time": 121.94218574999998,
          "velocity": 0.5275590551181102
        },
        {
          "duration": 0.09134606249998001,
          "durationTicks": 19,
          "midi": 61,
          "name": "C#4",
          "ticks": 25381,
          "time": 122.02391643749999,
          "velocity": 0.5905511811023622
        },
        {
          "duration": 0.21153825000001802,
          "durationTicks": 44,
          "midi": 60,
          "name": "C4",
          "ticks": 25400,
          "time": 122.11526249999997,
          "velocity": 0.5433070866141733
        },
        {
          "duration": 0.16346137500001134,
          "durationTicks": 34,
          "midi": 60,
          "name": "C4",
          "ticks": 25445,
          "time": 122.33160843749998,
          "velocity": 0.5433070866141733
        },
        {
          "duration": 0.10576912499998059,
          "durationTicks": 22,
          "midi": 63,
          "name": "D#4",
          "ticks": 25480,
          "time": 122.4998775,
          "velocity": 0.5826771653543307
        },
        {
          "duration": 0.11538450000000466,
          "durationTicks": 24,
          "midi": 59,
          "name": "B3",
          "ticks": 25502,
          "time": 122.60564662499998,
          "velocity": 0.5354330708661418
        },
        {
          "duration": 0.16826906249998785,
          "durationTicks": 35,
          "midi": 62,
          "name": "D4",
          "ticks": 25527,
          "time": 122.72583881249999,
          "velocity": 0.5748031496062992
        },
        {
          "duration": 0.8413453125000103,
          "durationTicks": 175,
          "midi": 57,
          "name": "A3",
          "ticks": 25563,
          "time": 122.89891556249998,
          "velocity": 0.5354330708661418
        },
        {
          "duration": 0.07692300000000785,
          "durationTicks": 16,
          "midi": 59,
          "name": "B3",
          "ticks": 25739,
          "time": 123.74506856249998,
          "velocity": 0.5826771653543307
        },
        {
          "duration": 0.3173073750000128,
          "durationTicks": 66,
          "midi": 57,
          "name": "A3",
          "ticks": 25763,
          "time": 123.86045306249997,
          "velocity": 0.6614173228346457
        },
        {
          "duration": 0.23076899999999512,
          "durationTicks": 48,
          "midi": 56,
          "name": "G#3",
          "ticks": 25834,
          "time": 124.201798875,
          "velocity": 0.5826771653543307
        },
        {
          "duration": 0.1394229375000151,
          "durationTicks": 29,
          "midi": 58,
          "name": "A#3",
          "ticks": 25883,
          "time": 124.43737556249998,
          "velocity": 0.5748031496062992
        },
        {
          "duration": 0.173076750000007,
          "durationTicks": 36,
          "midi": 54,
          "name": "F#3",
          "ticks": 25913,
          "time": 124.58160618749997,
          "velocity": 0.6062992125984252
        },
        {
          "duration": 0.22596131249999019,
          "durationTicks": 47,
          "midi": 56,
          "name": "G#3",
          "ticks": 25950,
          "time": 124.75949062499998,
          "velocity": 0.5826771653543307
        },
        {
          "duration": 0.05769224999998812,
          "durationTicks": 12,
          "midi": 55,
          "name": "G3",
          "ticks": 25998,
          "time": 124.990259625,
          "velocity": 0.5511811023622047
        },
        {
          "duration": 0.18269212499998844,
          "durationTicks": 38,
          "midi": 56,
          "name": "G#3",
          "ticks": 26011,
          "time": 125.0527595625,
          "velocity": 0.5590551181102362
        },
        {
          "duration": 0.07692299999997942,
          "durationTicks": 16,
          "midi": 33,
          "name": "A1",
          "ticks": 26050,
          "time": 125.240259375,
          "velocity": 0.5118110236220472
        },
        {
          "duration": 0.2596151249999963,
          "durationTicks": 54,
          "midi": 57,
          "name": "A3",
          "ticks": 26070,
          "time": 125.33641312499999,
          "velocity": 0.6377952755905512
        },
        {
          "duration": 0.08173068749999857,
          "durationTicks": 17,
          "midi": 57,
          "name": "A3",
          "ticks": 26125,
          "time": 125.6008359375,
          "velocity": 0.5511811023622047
        },
        {
          "duration": 0.15384599999998727,
          "durationTicks": 32,
          "midi": 56,
          "name": "G#3",
          "ticks": 26143,
          "time": 125.6873743125,
          "velocity": 0.5590551181102362
        },
        {
          "duration": 0.16346137499998292,
          "durationTicks": 34,
          "midi": 57,
          "name": "A3",
          "ticks": 26176,
          "time": 125.84602799999999,
          "velocity": 0.5826771653543307
        },
        {
          "duration": 0.11057681249998552,
          "durationTicks": 23,
          "midi": 58,
          "name": "A#3",
          "ticks": 26211,
          "time": 126.01429706249999,
          "velocity": 0.5905511811023622
        },
        {
          "duration": 0.17788443750001193,
          "durationTicks": 37,
          "midi": 58,
          "name": "A#3",
          "ticks": 26235,
          "time": 126.12968156249998,
          "velocity": 0.5984251968503937
        },
        {
          "duration": 0.3653842500000195,
          "durationTicks": 76,
          "midi": 56,
          "name": "G#3",
          "ticks": 26273,
          "time": 126.31237368749997,
          "velocity": 0.6062992125984252
        },
        {
          "duration": 0.37980731249997746,
          "durationTicks": 79,
          "midi": 60,
          "name": "C4",
          "ticks": 26350,
          "time": 126.682565625,
          "velocity": 0.6220472440944882
        },
        {
          "duration": 0.2932689375000024,
          "durationTicks": 61,
          "midi": 58,
          "name": "A#3",
          "ticks": 26430,
          "time": 127.06718062499999,
          "velocity": 0.5669291338582677
        },
        {
          "duration": 0.11538450000000466,
          "durationTicks": 24,
          "midi": 33,
          "name": "A1",
          "ticks": 26492,
          "time": 127.36525724999997,
          "velocity": 0.5118110236220472
        },
        {
          "duration": 0.14423062500000583,
          "durationTicks": 30,
          "midi": 61,
          "name": "C#4",
          "ticks": 26517,
          "time": 127.48544943749998,
          "velocity": 0.5748031496062992
        },
        {
          "duration": 0.4038457500000021,
          "durationTicks": 84,
          "midi": 59,
          "name": "B3",
          "ticks": 26548,
          "time": 127.63448774999999,
          "velocity": 0.5590551181102362
        },
        {
          "duration": 0.14903831250001076,
          "durationTicks": 31,
          "midi": 58,
          "name": "A#3",
          "ticks": 26633,
          "time": 128.04314118749997,
          "velocity": 0.5748031496062992
        },
        {
          "duration": 0.24038437499999077,
          "durationTicks": 50,
          "midi": 59,
          "name": "B3",
          "ticks": 26664,
          "time": 128.19217949999998,
          "velocity": 0.5590551181102362
        },
        {
          "duration": 0.1874998125000218,
          "durationTicks": 39,
          "midi": 59,
          "name": "B3",
          "ticks": 26715,
          "time": 128.43737156249998,
          "velocity": 0.5511811023622047
        },
        {
          "duration": 0.9855759374999877,
          "durationTicks": 205,
          "midi": 58,
          "name": "A#3",
          "ticks": 26755,
          "time": 128.6296790625,
          "velocity": 0.5275590551181102
        },
        {
          "duration": 0.4230765000000076,
          "durationTicks": 88,
          "midi": 57,
          "name": "A3",
          "ticks": 26961,
          "time": 129.6200626875,
          "velocity": 0.5748031496062992
        },
        {
          "duration": 0.08173068750002699,
          "durationTicks": 17,
          "midi": 56,
          "name": "G#3",
          "ticks": 27050,
          "time": 130.04794687499998,
          "velocity": 0.5748031496062992
        },
        {
          "duration": 0.14423062500000583,
          "durationTicks": 30,
          "midi": 58,
          "name": "A#3",
          "ticks": 27068,
          "time": 130.13448524999998,
          "velocity": 0.5511811023622047
        },
        {
          "duration": 0.0865383750000035,
          "durationTicks": 18,
          "midi": 60,
          "name": "C4",
          "ticks": 27099,
          "time": 130.2835235625,
          "velocity": 0.5748031496062992
        },
        {
          "duration": 0.05769225000000233,
          "durationTicks": 12,
          "midi": 57,
          "name": "A3",
          "ticks": 27118,
          "time": 130.374869625,
          "velocity": 0.5196850393700787
        },
        {
          "duration": 0.2451920624999957,
          "durationTicks": 51,
          "midi": 58,
          "name": "A#3",
          "ticks": 27131,
          "time": 130.43736956249998,
          "velocity": 0.5748031496062992
        },
        {
          "duration": 0.06730762499998377,
          "durationTicks": 14,
          "midi": 57,
          "name": "A3",
          "ticks": 27183,
          "time": 130.68736931249998,
          "velocity": 0.5669291338582677
        },
        {
          "duration": 0.12980756249999104,
          "durationTicks": 27,
          "midi": 58,
          "name": "A#3",
          "ticks": 27198,
          "time": 130.759484625,
          "velocity": 0.5590551181102362
        },
        {
          "duration": 0.8076915000000042,
          "durationTicks": 168,
          "midi": 60,
          "name": "C4",
          "ticks": 27226,
          "time": 130.894099875,
          "velocity": 0.5669291338582677
        },
        {
          "duration": 0.05769225000000233,
          "durationTicks": 12,
          "midi": 60,
          "name": "C4",
          "ticks": 27394,
          "time": 131.701791375,
          "velocity": 0.5590551181102362
        },
        {
          "duration": 0.5192302499999926,
          "durationTicks": 108,
          "midi": 60,
          "name": "C4",
          "ticks": 27407,
          "time": 131.76429131249998,
          "velocity": 0.5433070866141733
        },
        {
          "duration": 0.519230250000021,
          "durationTicks": 108,
          "midi": 62,
          "name": "D4",
          "ticks": 27516,
          "time": 132.28832924999998,
          "velocity": 0.5511811023622047
        },
        {
          "duration": 0.32692274999999427,
          "durationTicks": 68,
          "midi": 62,
          "name": "D4",
          "ticks": 27625,
          "time": 132.8123671875,
          "velocity": 0.5669291338582677
        },
        {
          "duration": 0.27403818749999687,
          "durationTicks": 57,
          "midi": 33,
          "name": "A1",
          "ticks": 27694,
          "time": 133.144097625,
          "velocity": 0.5118110236220472
        },
        {
          "duration": 0.10576912500002322,
          "durationTicks": 22,
          "midi": 64,
          "name": "E4",
          "ticks": 27752,
          "time": 133.42294349999997,
          "velocity": 0.5748031496062992
        },
        {
          "duration": 0.09134606250000843,
          "durationTicks": 19,
          "midi": 64,
          "name": "E4",
          "ticks": 27774,
          "time": 133.528712625,
          "velocity": 0.5511811023622047
        },
        {
          "duration": 0.05288456250002582,
          "durationTicks": 11,
          "midi": 60,
          "name": "C4",
          "ticks": 27794,
          "time": 133.62486637499998,
          "velocity": 0.5905511811023622
        },
        {
          "duration": 0.2259613125000044,
          "durationTicks": 47,
          "midi": 60,
          "name": "C4",
          "ticks": 27806,
          "time": 133.68255862499998,
          "velocity": 0.5590551181102362
        },
        {
          "duration": 0.05769225000000233,
          "durationTicks": 12,
          "midi": 60,
          "name": "C4",
          "ticks": 27854,
          "time": 133.91332762499997,
          "velocity": 0.5275590551181102
        },
        {
          "duration": 0.2067305625000131,
          "durationTicks": 43,
          "midi": 64,
          "name": "E4",
          "ticks": 27866,
          "time": 133.97101987499997,
          "velocity": 0.6299212598425197
        },
        {
          "duration": 0.05769225000000233,
          "durationTicks": 12,
          "midi": 59,
          "name": "B3",
          "ticks": 27910,
          "time": 134.18255812499999,
          "velocity": 0.5354330708661418
        },
        {
          "duration": 0.1682690625000305,
          "durationTicks": 35,
          "midi": 59,
          "name": "B3",
          "ticks": 27923,
          "time": 134.24505806249996,
          "velocity": 0.5511811023622047
        },
        {
          "duration": 0.09615374999998494,
          "durationTicks": 20,
          "midi": 58,
          "name": "A#3",
          "ticks": 27958,
          "time": 134.413327125,
          "velocity": 0.5275590551181102
        },
        {
          "duration": 0.8269222499999955,
          "durationTicks": 172,
          "midi": 60,
          "name": "C4",
          "ticks": 27979,
          "time": 134.51428856249998,
          "velocity": 0.5433070866141733
        },
        {
          "duration": 0.09615374999998494,
          "durationTicks": 20,
          "midi": 57,
          "name": "A3",
          "ticks": 28152,
          "time": 135.34601849999999,
          "velocity": 0.5511811023622047
        },
        {
          "duration": 0.10096143750001829,
          "durationTicks": 21,
          "midi": 59,
          "name": "B3",
          "ticks": 28172,
          "time": 135.44217224999997,
          "velocity": 0.5433070866141733
        },
        {
          "duration": 0.26923049999999193,
          "durationTicks": 56,
          "midi": 59,
          "name": "B3",
          "ticks": 28210,
          "time": 135.624864375,
          "velocity": 0.5669291338582677
        },
        {
          "duration": 0.1923074999999983,
          "durationTicks": 40,
          "midi": 59,
          "name": "B3",
          "ticks": 28267,
          "time": 135.89890256249998,
          "velocity": 0.5748031496062992
        },
        {
          "duration": 0.18269212499998844,
          "durationTicks": 38,
          "midi": 57,
          "name": "A3",
          "ticks": 28308,
          "time": 136.09601775,
          "velocity": 0.5354330708661418
        },
        {
          "duration": 0.09134606249998001,
          "durationTicks": 19,
          "midi": 59,
          "name": "B3",
          "ticks": 28348,
          "time": 136.28832524999999,
          "velocity": 0.5354330708661418
        },
        {
          "duration": 0.1442306249999774,
          "durationTicks": 30,
          "midi": 59,
          "name": "B3",
          "ticks": 28368,
          "time": 136.384479,
          "velocity": 0.5433070866141733
        },
        {
          "duration": 0.22115362499999947,
          "durationTicks": 46,
          "midi": 61,
          "name": "C#4",
          "ticks": 28399,
          "time": 136.53351731249998,
          "velocity": 0.5826771653543307
        },
        {
          "duration": 0.11057681249999973,
          "durationTicks": 23,
          "midi": 59,
          "name": "B3",
          "ticks": 28445,
          "time": 136.75467093749998,
          "velocity": 0.5905511811023622
        },
        {
          "duration": 0.23557668749998584,
          "durationTicks": 49,
          "midi": 59,
          "name": "B3",
          "ticks": 28469,
          "time": 136.87005543749999,
          "velocity": 0.5511811023622047
        },
        {
          "duration": 0.12019218749998117,
          "durationTicks": 25,
          "midi": 59,
          "name": "B3",
          "ticks": 28519,
          "time": 137.1104398125,
          "velocity": 0.5433070866141733
        },
        {
          "duration": 0.13461524999999597,
          "durationTicks": 28,
          "midi": 59,
          "name": "B3",
          "ticks": 28545,
          "time": 137.2354396875,
          "velocity": 0.5511811023622047
        },
        {
          "duration": 0.16346137500002555,
          "durationTicks": 34,
          "midi": 63,
          "name": "D#4",
          "ticks": 28574,
          "time": 137.37486262499996,
          "velocity": 0.5669291338582677
        },
        {
          "duration": 0.36057656250000036,
          "durationTicks": 75,
          "midi": 61,
          "name": "C#4",
          "ticks": 28609,
          "time": 137.5431316875,
          "velocity": 0.5354330708661418
        },
        {
          "duration": 0.4519226250000088,
          "durationTicks": 94,
          "midi": 60,
          "name": "C4",
          "ticks": 28685,
          "time": 137.90851593749997,
          "velocity": 0.5433070866141733
        },
        {
          "duration": 0.32211506250001776,
          "durationTicks": 67,
          "midi": 62,
          "name": "D4",
          "ticks": 28779,
          "time": 138.36043856249998,
          "velocity": 0.5433070866141733
        },
        {
          "duration": 0.25480743749997714,
          "durationTicks": 53,
          "midi": 67,
          "name": "G4",
          "ticks": 28878,
          "time": 138.83639962499998,
          "velocity": 0.5511811023622047
        },
        {
          "duration": 0.10096143750001829,
          "durationTicks": 21,
          "midi": 66,
          "name": "F#4",
          "ticks": 28931,
          "time": 139.09120706249996,
          "velocity": 0.5669291338582677
        },
        {
          "duration": 0.11057681249999973,
          "durationTicks": 23,
          "midi": 52,
          "name": "E3",
          "ticks": 28953,
          "time": 139.19697618749998,
          "velocity": 0.5669291338582677
        },
        {
          "duration": 0.11538450000000466,
          "durationTicks": 24,
          "midi": 59,
          "name": "B3",
          "ticks": 28977,
          "time": 139.3123606875,
          "velocity": 0.5433070866141733
        },
        {
          "duration": 0.10096143749998987,
          "durationTicks": 21,
          "midi": 63,
          "name": "D#4",
          "ticks": 29002,
          "time": 139.432552875,
          "velocity": 0.5590551181102362
        },
        {
          "duration": 0.09615375000004178,
          "durationTicks": 20,
          "midi": 64,
          "name": "E4",
          "ticks": 29024,
          "time": 139.53832199999997,
          "velocity": 0.5118110236220472
        },
        {
          "duration": 0.05769225000000233,
          "durationTicks": 12,
          "midi": 63,
          "name": "D#4",
          "ticks": 29045,
          "time": 139.63928343749998,
          "velocity": 0.5196850393700787
        },
        {
          "duration": 0.09615375000001336,
          "durationTicks": 20,
          "midi": 60,
          "name": "C4",
          "ticks": 29063,
          "time": 139.7258218125,
          "velocity": 0.5275590551181102
        },
        {
          "duration": 0.07692299999999364,
          "durationTicks": 16,
          "midi": 64,
          "name": "E4",
          "ticks": 29084,
          "time": 139.82678324999998,
          "velocity": 0.6220472440944882
        },
        {
          "duration": 0.07211531250001713,
          "durationTicks": 15,
          "midi": 60,
          "name": "C4",
          "ticks": 29100,
          "time": 139.90370624999997,
          "velocity": 0.5354330708661418
        },
        {
          "duration": 0.11538450000000466,
          "durationTicks": 24,
          "midi": 62,
          "name": "D4",
          "ticks": 29116,
          "time": 139.98062925,
          "velocity": 0.5826771653543307
        },
        {
          "duration": 0.5432686875000172,
          "durationTicks": 113,
          "midi": 60,
          "name": "C4",
          "ticks": 29141,
          "time": 140.10082143749997,
          "velocity": 0.5984251968503937
        },
        {
          "duration": 0.3509611875000189,
          "durationTicks": 73,
          "midi": 52,
          "name": "E3",
          "ticks": 29256,
          "time": 140.65370549999997,
          "velocity": 0.5826771653543307
        },
        {
          "duration": 0.956729812500015,
          "durationTicks": 199,
          "midi": 51,
          "name": "D#3",
          "ticks": 29330,
          "time": 141.00947437499997,
          "velocity": 0.5669291338582677
        },
        {
          "duration": 0.3076920000000314,
          "durationTicks": 64,
          "midi": 51,
          "name": "D#3",
          "ticks": 29531,
          "time": 141.97581956249996,
          "velocity": 0.5511811023622047
        },
        {
          "duration": 0.13461524999996755,
          "durationTicks": 28,
          "midi": 59,
          "name": "B3",
          "ticks": 29596,
          "time": 142.28831925,
          "velocity": 0.5196850393700787
        },
        {
          "duration": 0.05769225000000233,
          "durationTicks": 12,
          "midi": 60,
          "name": "C4",
          "ticks": 29625,
          "time": 142.42774218749997,
          "velocity": 0.5196850393700787
        },
        {
          "duration": 0.7355761875000155,
          "durationTicks": 153,
          "midi": 51,
          "name": "D#3",
          "ticks": 29637,
          "time": 142.48543443749998,
          "velocity": 0.5433070866141733
        },
        {
          "duration": 0.23557668750001426,
          "durationTicks": 49,
          "midi": 52,
          "name": "E3",
          "ticks": 29792,
          "time": 143.23062599999997,
          "velocity": 0.5590551181102362
        },
        {
          "duration": 0.6346147499999972,
          "durationTicks": 132,
          "midi": 51,
          "name": "D#3",
          "ticks": 29842,
          "time": 143.471010375,
          "velocity": 0.5826771653543307
        },
        {
          "duration": 0.1394229375000009,
          "durationTicks": 29,
          "midi": 33,
          "name": "A1",
          "ticks": 29978,
          "time": 144.12485587499998,
          "velocity": 0.5984251968503937
        },
        {
          "duration": 0.19711518750000323,
          "durationTicks": 41,
          "midi": 62,
          "name": "D4",
          "ticks": 30008,
          "time": 144.2690865,
          "velocity": 0.5433070866141733
        },
        {
          "duration": 0.12980756250001946,
          "durationTicks": 27,
          "midi": 52,
          "name": "E3",
          "ticks": 30050,
          "time": 144.47100937499997,
          "velocity": 0.5826771653543307
        },
        {
          "duration": 0.04807687499999247,
          "durationTicks": 10,
          "midi": 60,
          "name": "C4",
          "ticks": 30078,
          "time": 144.605624625,
          "velocity": 0.5275590551181102
        },
        {
          "duration": 0.5817301874999998,
          "durationTicks": 121,
          "midi": 51,
          "name": "D#3",
          "ticks": 30089,
          "time": 144.6585091875,
          "velocity": 0.5590551181102362
        },
        {
          "duration": 0.04807687499999247,
          "durationTicks": 10,
          "midi": 51,
          "name": "D#3",
          "ticks": 30211,
          "time": 145.2450470625,
          "velocity": 0.5669291338582677
        },
        {
          "duration": 0.07692299999999364,
          "durationTicks": 16,
          "midi": 56,
          "name": "G#3",
          "ticks": 30222,
          "time": 145.297931625,
          "velocity": 0.5275590551181102
        },
        {
          "duration": 0.1057691249999948,
          "durationTicks": 22,
          "midi": 50,
          "name": "D3",
          "ticks": 30239,
          "time": 145.3796623125,
          "velocity": 0.5905511811023622
        },
        {
          "duration": 0.2980766249999931,
          "durationTicks": 62,
          "midi": 59,
          "name": "B3",
          "ticks": 30262,
          "time": 145.490239125,
          "velocity": 0.5196850393700787
        },
        {
          "duration": 1.8173058750000166,
          "durationTicks": 378,
          "midi": 59,
          "name": "B3",
          "ticks": 30325,
          "time": 145.7931234375,
          "velocity": 0.5826771653543307
        },
        {
          "duration": 0.25480743750000556,
          "durationTicks": 53,
          "midi": 57,
          "name": "A3",
          "ticks": 30704,
          "time": 147.61523699999998,
          "velocity": 0.5118110236220472
        },
        {
          "duration": 0.1201921875000096,
          "durationTicks": 25,
          "midi": 59,
          "name": "B3",
          "ticks": 30758,
          "time": 147.87485212499996,
          "velocity": 0.5275590551181102
        },
        {
          "duration": 0.13461524999996755,
          "durationTicks": 28,
          "midi": 59,
          "name": "B3",
          "ticks": 30784,
          "time": 147.999852,
          "velocity": 0.5196850393700787
        },
        {
          "duration": 0.6249993750000158,
          "durationTicks": 130,
          "midi": 51,
          "name": "D#3",
          "ticks": 30813,
          "time": 148.13927493749998,
          "velocity": 0.5748031496062992
        },
        {
          "duration": 0.45192262499998037,
          "durationTicks": 94,
          "midi": 60,
          "name": "C4",
          "ticks": 30943,
          "time": 148.7642743125,
          "velocity": 0.5275590551181102
        },
        {
          "duration": 1.254806437500008,
          "durationTicks": 261,
          "midi": 52,
          "name": "E3",
          "ticks": 31038,
          "time": 149.22100462499998,
          "velocity": 0.5511811023622047
        },
        {
          "duration": 0.2499997499999722,
          "durationTicks": 52,
          "midi": 51,
          "name": "D#3",
          "ticks": 31300,
          "time": 150.48061875,
          "velocity": 0.5511811023622047
        },
        {
          "duration": 0.1971151874999748,
          "durationTicks": 41,
          "midi": 50,
          "name": "D3",
          "ticks": 31354,
          "time": 150.740233875,
          "velocity": 0.5511811023622047
        },
        {
          "duration": 0.8317299375000005,
          "durationTicks": 173,
          "midi": 59,
          "name": "B3",
          "ticks": 31395,
          "time": 150.93734906249998,
          "velocity": 0.5511811023622047
        },
        {
          "duration": 0.0865383750000035,
          "durationTicks": 18,
          "midi": 51,
          "name": "D#3",
          "ticks": 31569,
          "time": 151.77388668749998,
          "velocity": 0.5669291338582677
        },
        {
          "duration": 0.24038437499999077,
          "durationTicks": 50,
          "midi": 49,
          "name": "C#3",
          "ticks": 31588,
          "time": 151.86523275,
          "velocity": 0.5511811023622047
        },
        {
          "duration": 0.14423062500000583,
          "durationTicks": 30,
          "midi": 52,
          "name": "E3",
          "ticks": 31639,
          "time": 152.11042481249999,
          "velocity": 0.5511811023622047
        },
        {
          "duration": 1.4567293125000162,
          "durationTicks": 303,
          "midi": 49,
          "name": "C#3",
          "ticks": 31671,
          "time": 152.26427081249997,
          "velocity": 0.5669291338582677
        },
        {
          "duration": 0.09615374999998494,
          "durationTicks": 20,
          "midi": 51,
          "name": "D#3",
          "ticks": 31975,
          "time": 153.7258078125,
          "velocity": 0.5984251968503937
        },
        {
          "duration": 0.0673076250000122,
          "durationTicks": 14,
          "midi": 59,
          "name": "B3",
          "ticks": 31996,
          "time": 153.82676924999998,
          "velocity": 0.5196850393700787
        },
        {
          "duration": 0.14423062500000583,
          "durationTicks": 30,
          "midi": 51,
          "name": "D#3",
          "ticks": 32012,
          "time": 153.90369224999998,
          "velocity": 0.5748031496062992
        },
        {
          "duration": 0.1201921875000096,
          "durationTicks": 25,
          "midi": 51,
          "name": "D#3",
          "ticks": 32043,
          "time": 154.0527305625,
          "velocity": 0.5511811023622047
        },
        {
          "duration": 0.04807687500002089,
          "durationTicks": 10,
          "midi": 60,
          "name": "C4",
          "ticks": 32069,
          "time": 154.17773043749997,
          "velocity": 0.5275590551181102
        },
        {
          "duration": 0.2067305625000131,
          "durationTicks": 43,
          "midi": 51,
          "name": "D#3",
          "ticks": 32081,
          "time": 154.23542268749998,
          "velocity": 0.6535433070866141
        },
        {
          "duration": 0.38942268750000153,
          "durationTicks": 81,
          "midi": 60,
          "name": "C4",
          "ticks": 32128,
          "time": 154.46138399999998,
          "velocity": 0.5275590551181102
        },
        {
          "duration": 0.04326918749998754,
          "durationTicks": 9,
          "midi": 51,
          "name": "D#3",
          "ticks": 32210,
          "time": 154.855614375,
          "velocity": 0.5433070866141733
        },
        {
          "duration": 0.18269212499998844,
          "durationTicks": 38,
          "midi": 50,
          "name": "D3",
          "ticks": 32221,
          "time": 154.90849893749999,
          "velocity": 0.5669291338582677
        },
        {
          "duration": 0.7499992500000019,
          "durationTicks": 156,
          "midi": 51,
          "name": "D#3",
          "ticks": 32260,
          "time": 155.09599874999998,
          "velocity": 0.5748031496062992
        },
        {
          "duration": 0.1057691249999948,
          "durationTicks": 22,
          "midi": 49,
          "name": "C#3",
          "ticks": 32417,
          "time": 155.85080568749999,
          "velocity": 0.5433070866141733
        },
        {
          "duration": 0.05769225000000233,
          "durationTicks": 12,
          "midi": 50,
          "name": "D3",
          "ticks": 32441,
          "time": 155.96619018749996,
          "velocity": 0.5196850393700787
        },
        {
          "duration": 0.23076900000000933,
          "durationTicks": 48,
          "midi": 52,
          "name": "E3",
          "ticks": 32454,
          "time": 156.02869012499997,
          "velocity": 0.5590551181102362
        },
        {
          "duration": 0.16826906250000206,
          "durationTicks": 35,
          "midi": 51,
          "name": "D#3",
          "ticks": 32503,
          "time": 156.26426681249998,
          "velocity": 0.5590551181102362
        },
        {
          "duration": 0.06730762499998377,
          "durationTicks": 14,
          "midi": 60,
          "name": "C4",
          "ticks": 32539,
          "time": 156.4373435625,
          "velocity": 0.5354330708661418
        },
        {
          "duration": 0.0673076250000122,
          "durationTicks": 14,
          "midi": 59,
          "name": "B3",
          "ticks": 32554,
          "time": 156.50945887499998,
          "velocity": 0.5196850393700787
        },
        {
          "duration": 0.1682690625000305,
          "durationTicks": 35,
          "midi": 48,
          "name": "C3",
          "ticks": 32570,
          "time": 156.58638187499997,
          "velocity": 0.5905511811023622
        },
        {
          "duration": 0.22115362499999947,
          "durationTicks": 46,
          "midi": 50,
          "name": "D3",
          "ticks": 32607,
          "time": 156.76426631249998,
          "velocity": 0.5748031496062992
        },
        {
          "duration": 0.19711518750003165,
          "durationTicks": 41,
          "midi": 49,
          "name": "C#3",
          "ticks": 32654,
          "time": 156.99022762499996,
          "velocity": 0.5826771653543307
        },
        {
          "duration": 0.16346137500002555,
          "durationTicks": 34,
          "midi": 55,
          "name": "G3",
          "ticks": 32697,
          "time": 157.19695818749997,
          "velocity": 0.5511811023622047
        },
        {
          "duration": 0.1201921875000096,
          "durationTicks": 25,
          "midi": 48,
          "name": "C3",
          "ticks": 32733,
          "time": 157.37003493749998,
          "velocity": 0.6062992125984252
        },
        {
          "duration": 0.9230760000000089,
          "durationTicks": 192,
          "midi": 51,
          "name": "D#3",
          "ticks": 32760,
          "time": 157.49984249999997,
          "velocity": 0.5905511811023622
        },
        {
          "duration": 0.4230764999999792,
          "durationTicks": 88,
          "midi": 49,
          "name": "C#3",
          "ticks": 32953,
          "time": 158.42772618749999,
          "velocity": 0.5826771653543307
        },
        {
          "duration": 0.355768874999967,
          "durationTicks": 74,
          "midi": 51,
          "name": "D#3",
          "ticks": 33043,
          "time": 158.8604180625,
          "velocity": 0.5590551181102362
        },
        {
          "duration": 0.2451920624999957,
          "durationTicks": 51,
          "midi": 51,
          "name": "D#3",
          "ticks": 33118,
          "time": 159.220994625,
          "velocity": 0.5669291338582677
        },
        {
          "duration": 0.09134606250000843,
          "durationTicks": 19,
          "midi": 49,
          "name": "C#3",
          "ticks": 33171,
          "time": 159.47580206249998,
          "velocity": 0.5826771653543307
        },
        {
          "duration": 0.3076920000000314,
          "durationTicks": 64,
          "midi": 51,
          "name": "D#3",
          "ticks": 33192,
          "time": 159.57676349999997,
          "velocity": 0.5433070866141733
        },
        {
          "duration": 0.0721153124999887,
          "durationTicks": 15,
          "midi": 50,
          "name": "D3",
          "ticks": 33257,
          "time": 159.88926318749998,
          "velocity": 0.5433070866141733
        },
        {
          "duration": 1.4759600625000076,
          "durationTicks": 307,
          "midi": 52,
          "name": "E3",
          "ticks": 33273,
          "time": 159.96618618749997,
          "velocity": 0.5826771653543307
        },
        {
          "duration": 0.5384610000000123,
          "durationTicks": 112,
          "midi": 51,
          "name": "D#3",
          "ticks": 33582,
          "time": 161.451761625,
          "velocity": 0.5905511811023622
        },
        {
          "duration": 0.04807687499999247,
          "durationTicks": 10,
          "midi": 60,
          "name": "C4",
          "ticks": 33695,
          "time": 161.99503031249998,
          "velocity": 0.5354330708661418
        },
        {
          "duration": 0.05769225000000233,
          "durationTicks": 12,
          "midi": 48,
          "name": "C3",
          "ticks": 33707,
          "time": 162.05272256249998,
          "velocity": 0.5354330708661418
        },
        {
          "duration": 0.0721153124999887,
          "durationTicks": 15,
          "midi": 60,
          "name": "C4",
          "ticks": 33720,
          "time": 162.1152225,
          "velocity": 0.5196850393700787
        },
        {
          "duration": 0.21153825000001802,
          "durationTicks": 44,
          "midi": 51,
          "name": "D#3",
          "ticks": 33737,
          "time": 162.1969531875,
          "velocity": 0.5669291338582677
        },
        {
          "duration": 0.04326918749998754,
          "durationTicks": 9,
          "midi": 49,
          "name": "C#3",
          "ticks": 33782,
          "time": 162.41329912499998,
          "velocity": 0.5826771653543307
        },
        {
          "duration": 0.0865383750000035,
          "durationTicks": 18,
          "midi": 50,
          "name": "D3",
          "ticks": 33793,
          "time": 162.46618368749998,
          "velocity": 0.5196850393700787
        },
        {
          "duration": 0.3653842500000053,
          "durationTicks": 76,
          "midi": 51,
          "name": "D#3",
          "ticks": 33813,
          "time": 162.5623374375,
          "velocity": 0.5590551181102362
        },
        {
          "duration": 0.3846149999999966,
          "durationTicks": 80,
          "midi": 63,
          "name": "D#4",
          "ticks": 33889,
          "time": 162.9277216875,
          "velocity": 0.5748031496062992
        },
        {
          "duration": 0.08173068749997014,
          "durationTicks": 17,
          "midi": 64,
          "name": "E4",
          "ticks": 33970,
          "time": 163.317144375,
          "velocity": 0.5984251968503937
        },
        {
          "duration": 1.8413443124999844,
          "durationTicks": 383,
          "midi": 57,
          "name": "A3",
          "ticks": 33988,
          "time": 163.40368275,
          "velocity": 0.5196850393700787
        },
        {
          "duration": 0.04326918749998754,
          "durationTicks": 9,
          "midi": 59,
          "name": "B3",
          "ticks": 34372,
          "time": 165.24983475,
          "velocity": 0.5196850393700787
        },
        {
          "duration": 0.11057681249999973,
          "durationTicks": 23,
          "midi": 59,
          "name": "B3",
          "ticks": 34382,
          "time": 165.29791162499998,
          "velocity": 0.5196850393700787
        },
        {
          "duration": 0.07692300000002206,
          "durationTicks": 16,
          "midi": 59,
          "name": "B3",
          "ticks": 34406,
          "time": 165.41329612499996,
          "velocity": 0.5118110236220472
        },
        {
          "duration": 0.16826906250000206,
          "durationTicks": 35,
          "midi": 60,
          "name": "C4",
          "ticks": 34423,
          "time": 165.4950268125,
          "velocity": 0.5196850393700787
        },
        {
          "duration": 0.16826906249997364,
          "durationTicks": 35,
          "midi": 60,
          "name": "C4",
          "ticks": 34459,
          "time": 165.6681035625,
          "velocity": 0.5118110236220472
        },
        {
          "duration": 0.06249993749997884,
          "durationTicks": 13,
          "midi": 60,
          "name": "C4",
          "ticks": 34495,
          "time": 165.8411803125,
          "velocity": 0.5196850393700787
        },
        {
          "duration": 0.14903831250001076,
          "durationTicks": 31,
          "midi": 60,
          "name": "C4",
          "ticks": 34509,
          "time": 165.90848793749998,
          "velocity": 0.5196850393700787
        },
        {
          "duration": 0.09615374999998494,
          "durationTicks": 20,
          "midi": 60,
          "name": "C4",
          "ticks": 34540,
          "time": 166.05752625,
          "velocity": 0.5118110236220472
        },
        {
          "duration": 0.2644228125000154,
          "durationTicks": 55,
          "midi": 60,
          "name": "C4",
          "ticks": 34560,
          "time": 166.15367999999998,
          "velocity": 0.5196850393700787
        },
        {
          "duration": 0.0673076250000122,
          "durationTicks": 14,
          "midi": 60,
          "name": "C4",
          "ticks": 34616,
          "time": 166.42291049999997,
          "velocity": 0.5196850393700787
        },
        {
          "duration": 0.05769225000000233,
          "durationTicks": 12,
          "midi": 60,
          "name": "C4",
          "ticks": 34631,
          "time": 166.49502581249996,
          "velocity": 0.5196850393700787
        },
        {
          "duration": 0.07211531250001713,
          "durationTicks": 15,
          "midi": 61,
          "name": "C#4",
          "ticks": 34644,
          "time": 166.55752574999997,
          "velocity": 0.5196850393700787
        },
        {
          "duration": 0.1249998749999861,
          "durationTicks": 26,
          "midi": 62,
          "name": "D4",
          "ticks": 34660,
          "time": 166.63444875,
          "velocity": 0.5196850393700787
        },
        {
          "duration": 0.0865383750000035,
          "durationTicks": 18,
          "midi": 62,
          "name": "D4",
          "ticks": 34686,
          "time": 166.75944862499998,
          "velocity": 0.5196850393700787
        },
        {
          "duration": 0.0865383750000035,
          "durationTicks": 18,
          "midi": 62,
          "name": "D4",
          "ticks": 34705,
          "time": 166.85079468749998,
          "velocity": 0.5118110236220472
        },
        {
          "duration": 0.06249993750000726,
          "durationTicks": 13,
          "midi": 61,
          "name": "C#4",
          "ticks": 34724,
          "time": 166.94214074999996,
          "velocity": 0.5196850393700787
        },
        {
          "duration": 0.1923074999999983,
          "durationTicks": 40,
          "midi": 60,
          "name": "C4",
          "ticks": 34738,
          "time": 167.00944837499998,
          "velocity": 0.5196850393700787
        },
        {
          "duration": 0.04807687500002089,
          "durationTicks": 10,
          "midi": 60,
          "name": "C4",
          "ticks": 34779,
          "time": 167.20656356249998,
          "velocity": 0.5275590551181102
        },
        {
          "duration": 0.0673076250000122,
          "durationTicks": 14,
          "midi": 60,
          "name": "C4",
          "ticks": 34790,
          "time": 167.25944812499998,
          "velocity": 0.5196850393700787
        },
        {
          "duration": 0.14903831249998234,
          "durationTicks": 31,
          "midi": 62,
          "name": "D4",
          "ticks": 34804,
          "time": 167.32675575,
          "velocity": 0.5275590551181102
        },
        {
          "duration": 0.06249993750000726,
          "durationTicks": 13,
          "midi": 62,
          "name": "D4",
          "ticks": 34836,
          "time": 167.48060174999998,
          "velocity": 0.5196850393700787
        },
        {
          "duration": 0.07211531250001713,
          "durationTicks": 15,
          "midi": 62,
          "name": "D4",
          "ticks": 34850,
          "time": 167.54790937499996,
          "velocity": 0.5118110236220472
        },
        {
          "duration": 0.0721153124999887,
          "durationTicks": 15,
          "midi": 62,
          "name": "D4",
          "ticks": 34866,
          "time": 167.62483237499998,
          "velocity": 0.5118110236220472
        },
        {
          "duration": 0.1394229375000009,
          "durationTicks": 29,
          "midi": 60,
          "name": "C4",
          "ticks": 34882,
          "time": 167.70175537499998,
          "velocity": 0.5196850393700787
        },
        {
          "duration": 0.20192287500000816,
          "durationTicks": 42,
          "midi": 60,
          "name": "C4",
          "ticks": 34911,
          "time": 167.84117831249998,
          "velocity": 0.5196850393700787
        },
        {
          "duration": 0.11538450000000466,
          "durationTicks": 24,
          "midi": 59,
          "name": "B3",
          "ticks": 34954,
          "time": 168.047908875,
          "velocity": 0.5275590551181102
        },
        {
          "duration": 0.04326918749998754,
          "durationTicks": 9,
          "midi": 59,
          "name": "B3",
          "ticks": 34979,
          "time": 168.16810106249997,
          "velocity": 0.5118110236220472
        },
        {
          "duration": 0.14903831250001076,
          "durationTicks": 31,
          "midi": 59,
          "name": "B3",
          "ticks": 34989,
          "time": 168.2161779375,
          "velocity": 0.5196850393700787
        },
        {
          "duration": 0.1201921875000096,
          "durationTicks": 25,
          "midi": 59,
          "name": "B3",
          "ticks": 35021,
          "time": 168.37002393749998,
          "velocity": 0.5118110236220472
        },
        {
          "duration": 0.1971151874999748,
          "durationTicks": 41,
          "midi": 59,
          "name": "B3",
          "ticks": 35047,
          "time": 168.4950238125,
          "velocity": 0.5118110236220472
        },
        {
          "duration": 0.05288456249996898,
          "durationTicks": 11,
          "midi": 59,
          "name": "B3",
          "ticks": 35089,
          "time": 168.6969466875,
          "velocity": 0.5118110236220472
        },
        {
          "duration": 0.2259613125000044,
          "durationTicks": 47,
          "midi": 59,
          "name": "B3",
          "ticks": 35101,
          "time": 168.75463893749998,
          "velocity": 0.5196850393700787
        },
        {
          "duration": 0.1394229375000009,
          "durationTicks": 29,
          "midi": 59,
          "name": "B3",
          "ticks": 35149,
          "time": 168.98540793749999,
          "velocity": 0.5196850393700787
        },
        {
          "duration": 0.0528845624999974,
          "durationTicks": 11,
          "midi": 58,
          "name": "A#3",
          "ticks": 35179,
          "time": 169.1296385625,
          "velocity": 0.5196850393700787
        },
        {
          "duration": 0.06730762499998377,
          "durationTicks": 14,
          "midi": 57,
          "name": "A3",
          "ticks": 35191,
          "time": 169.1873308125,
          "velocity": 0.5118110236220472
        },
        {
          "duration": 0.12019218749998117,
          "durationTicks": 25,
          "midi": 57,
          "name": "A3",
          "ticks": 35206,
          "time": 169.25944612499998,
          "velocity": 0.5118110236220472
        },
        {
          "duration": 0.33653812500003255,
          "durationTicks": 70,
          "midi": 57,
          "name": "A3",
          "ticks": 35232,
          "time": 169.38444599999997,
          "velocity": 0.5118110236220472
        },
        {
          "duration": 0.1394229375000009,
          "durationTicks": 29,
          "midi": 57,
          "name": "A3",
          "ticks": 35303,
          "time": 169.72579181249998,
          "velocity": 0.5196850393700787
        },
        {
          "duration": 0.7163454375000242,
          "durationTicks": 149,
          "midi": 33,
          "name": "A1",
          "ticks": 35336,
          "time": 169.88444549999997,
          "velocity": 0.5118110236220472
        },
        {
          "duration": 0.1923074999999983,
          "durationTicks": 40,
          "midi": 57,
          "name": "A3",
          "ticks": 35486,
          "time": 170.60559862499997,
          "velocity": 0.5118110236220472
        },
        {
          "duration": 0.1442306249999774,
          "durationTicks": 30,
          "midi": 57,
          "name": "A3",
          "ticks": 35527,
          "time": 170.8027138125,
          "velocity": 0.5196850393700787
        },
        {
          "duration": 0.25480743750000556,
          "durationTicks": 53,
          "midi": 59,
          "name": "B3",
          "ticks": 35558,
          "time": 170.95175212499998,
          "velocity": 0.5196850393700787
        },
        {
          "duration": 0.11538450000000466,
          "durationTicks": 24,
          "midi": 59,
          "name": "B3",
          "ticks": 35611,
          "time": 171.2065595625,
          "velocity": 0.5118110236220472
        },
        {
          "duration": 0.0865383750000035,
          "durationTicks": 18,
          "midi": 60,
          "name": "C4",
          "ticks": 35636,
          "time": 171.32675174999997,
          "velocity": 0.5196850393700787
        },
        {
          "duration": 0.09134606250000843,
          "durationTicks": 19,
          "midi": 60,
          "name": "C4",
          "ticks": 35655,
          "time": 171.41809781249998,
          "velocity": 0.5118110236220472
        },
        {
          "duration": 0.19230750000002672,
          "durationTicks": 40,
          "midi": 60,
          "name": "C4",
          "ticks": 35675,
          "time": 171.51425156249996,
          "velocity": 0.5118110236220472
        },
        {
          "duration": 0.05288456249996898,
          "durationTicks": 11,
          "midi": 60,
          "name": "C4",
          "ticks": 35715,
          "time": 171.7065590625,
          "velocity": 0.5196850393700787
        },
        {
          "duration": 0.0865383750000035,
          "durationTicks": 18,
          "midi": 60,
          "name": "C4",
          "ticks": 35726,
          "time": 171.75944362499996,
          "velocity": 0.5196850393700787
        },
        {
          "duration": 0.08173068749999857,
          "durationTicks": 17,
          "midi": 60,
          "name": "C4",
          "ticks": 35745,
          "time": 171.85078968749997,
          "velocity": 0.5118110236220472
        },
        {
          "duration": 0.173076750000007,
          "durationTicks": 36,
          "midi": 60,
          "name": "C4",
          "ticks": 35763,
          "time": 171.93732806249997,
          "velocity": 0.5196850393700787
        },
        {
          "duration": 0.1586536874999922,
          "durationTicks": 33,
          "midi": 60,
          "name": "C4",
          "ticks": 35800,
          "time": 172.11521249999998,
          "velocity": 0.5196850393700787
        },
        {
          "duration": 0.16346137499999713,
          "durationTicks": 34,
          "midi": 60,
          "name": "C4",
          "ticks": 35834,
          "time": 172.27867387499998,
          "velocity": 0.5118110236220472
        },
        {
          "duration": 0.09615374999998494,
          "durationTicks": 20,
          "midi": 60,
          "name": "C4",
          "ticks": 35869,
          "time": 172.44694293749998,
          "velocity": 0.5196850393700787
        },
        {
          "duration": 0.2836535624999783,
          "durationTicks": 59,
          "midi": 60,
          "name": "C4",
          "ticks": 35890,
          "time": 172.547904375,
          "velocity": 0.5118110236220472
        },
        {
          "duration": 0.08173068749999857,
          "durationTicks": 17,
          "midi": 60,
          "name": "C4",
          "ticks": 35950,
          "time": 172.83636562499998,
          "velocity": 0.5196850393700787
        },
        {
          "duration": 0.21634593749999453,
          "durationTicks": 45,
          "midi": 60,
          "name": "C4",
          "ticks": 35968,
          "time": 172.922904,
          "velocity": 0.5196850393700787
        },
        {
          "duration": 0.3124996875000363,
          "durationTicks": 65,
          "midi": 62,
          "name": "D4",
          "ticks": 36014,
          "time": 173.14405762499996,
          "velocity": 0.5196850393700787
        },
        {
          "duration": 0.13461524999999597,
          "durationTicks": 28,
          "midi": 60,
          "name": "C4",
          "ticks": 36080,
          "time": 173.46136499999997,
          "velocity": 0.5196850393700787
        },
        {
          "duration": 0.20192287499997974,
          "durationTicks": 42,
          "midi": 60,
          "name": "C4",
          "ticks": 36109,
          "time": 173.6007879375,
          "velocity": 0.5196850393700787
        },
        {
          "duration": 0.04326918750001596,
          "durationTicks": 9,
          "midi": 60,
          "name": "C4",
          "ticks": 36151,
          "time": 173.80271081249998,
          "velocity": 0.5196850393700787
        },
        {
          "duration": 0.14423062500000583,
          "durationTicks": 30,
          "midi": 59,
          "name": "B3",
          "ticks": 36161,
          "time": 173.85078768749997,
          "velocity": 0.5196850393700787
        },
        {
          "duration": 0.0865383750000035,
          "durationTicks": 18,
          "midi": 59,
          "name": "B3",
          "ticks": 36192,
          "time": 173.99982599999998,
          "velocity": 0.5196850393700787
        },
        {
          "duration": 0.18269212499998844,
          "durationTicks": 38,
          "midi": 59,
          "name": "B3",
          "ticks": 36211,
          "time": 174.0911720625,
          "velocity": 0.5118110236220472
        },
        {
          "duration": 0.2067305625000131,
          "durationTicks": 43,
          "midi": 59,
          "name": "B3",
          "ticks": 36249,
          "time": 174.27386418749998,
          "velocity": 0.5118110236220472
        },
        {
          "duration": 0.24038437499999077,
          "durationTicks": 50,
          "midi": 59,
          "name": "B3",
          "ticks": 36292,
          "time": 174.48059475,
          "velocity": 0.5196850393700787
        },
        {
          "duration": 0.0865383750000035,
          "durationTicks": 18,
          "midi": 59,
          "name": "B3",
          "ticks": 36343,
          "time": 174.7257868125,
          "velocity": 0.5196850393700787
        },
        {
          "duration": 0.11057681249999973,
          "durationTicks": 23,
          "midi": 59,
          "name": "B3",
          "ticks": 36361,
          "time": 174.8123251875,
          "velocity": 0.5196850393700787
        },
        {
          "duration": 0.10576912499996638,
          "durationTicks": 22,
          "midi": 57,
          "name": "A3",
          "ticks": 36385,
          "time": 174.9277096875,
          "velocity": 0.5118110236220472
        },
        {
          "duration": 0.12980756250001946,
          "durationTicks": 27,
          "midi": 57,
          "name": "A3",
          "ticks": 36408,
          "time": 175.03828649999997,
          "velocity": 0.5118110236220472
        },
        {
          "duration": 0.2307689999999809,
          "durationTicks": 48,
          "midi": 57,
          "name": "A3",
          "ticks": 36436,
          "time": 175.17290175,
          "velocity": 0.5196850393700787
        },
        {
          "duration": 0.11057681249999973,
          "durationTicks": 23,
          "midi": 57,
          "name": "A3",
          "ticks": 36485,
          "time": 175.40847843749998,
          "velocity": 0.5118110236220472
        },
        {
          "duration": 0.14903831249998234,
          "durationTicks": 31,
          "midi": 57,
          "name": "A3",
          "ticks": 36509,
          "time": 175.52386293749998,
          "velocity": 0.5196850393700787
        },
        {
          "duration": 0.04326918749998754,
          "durationTicks": 9,
          "midi": 45,
          "name": "A2",
          "ticks": 36542,
          "time": 175.68251662499998,
          "velocity": 0.5118110236220472
        },
        {
          "duration": 0.6249993750000158,
          "durationTicks": 130,
          "midi": 33,
          "name": "A1",
          "ticks": 36555,
          "time": 175.74501656249998,
          "velocity": 0.5118110236220472
        },
        {
          "duration": 0.1538460000000157,
          "durationTicks": 32,
          "midi": 57,
          "name": "A3",
          "ticks": 36686,
          "time": 176.37482362499998,
          "velocity": 0.5196850393700787
        },
        {
          "duration": 0.10576912500002322,
          "durationTicks": 22,
          "midi": 57,
          "name": "A3",
          "ticks": 36719,
          "time": 176.53347731249997,
          "velocity": 0.5118110236220472
        },
        {
          "duration": 0.06730762499998377,
          "durationTicks": 14,
          "midi": 57,
          "name": "A3",
          "ticks": 36742,
          "time": 176.644054125,
          "velocity": 0.5196850393700787
        },
        {
          "duration": 0.0528845624999974,
          "durationTicks": 11,
          "midi": 58,
          "name": "A#3",
          "ticks": 36757,
          "time": 176.71616943749999,
          "velocity": 0.5118110236220472
        },
        {
          "duration": 0.2836535624999783,
          "durationTicks": 59,
          "midi": 59,
          "name": "B3",
          "ticks": 36769,
          "time": 176.7738616875,
          "velocity": 0.5196850393700787
        },
        {
          "duration": 0.04807687500002089,
          "durationTicks": 10,
          "midi": 59,
          "name": "B3",
          "ticks": 36828,
          "time": 177.05751524999997,
          "velocity": 0.5196850393700787
        },
        {
          "duration": 0.18269212500001686,
          "durationTicks": 38,
          "midi": 60,
          "name": "C4",
          "ticks": 36839,
          "time": 177.11039981249996,
          "velocity": 0.5196850393700787
        },
        {
          "duration": 0.08173068749999857,
          "durationTicks": 17,
          "midi": 60,
          "name": "C4",
          "ticks": 36877,
          "time": 177.29309193749998,
          "velocity": 0.5196850393700787
        },
        {
          "duration": 0.16346137499999713,
          "durationTicks": 34,
          "midi": 60,
          "name": "C4",
          "ticks": 36895,
          "time": 177.37963031249998,
          "velocity": 0.5196850393700787
        },
        {
          "duration": 0.0865383750000035,
          "durationTicks": 18,
          "midi": 60,
          "name": "C4",
          "ticks": 36929,
          "time": 177.54309168749998,
          "velocity": 0.5196850393700787
        },
        {
          "duration": 0.3317304374999992,
          "durationTicks": 69,
          "midi": 60,
          "name": "C4",
          "ticks": 36948,
          "time": 177.63443775,
          "velocity": 0.5196850393700787
        },
        {
          "duration": 0.20192287499997974,
          "durationTicks": 42,
          "midi": 60,
          "name": "C4",
          "ticks": 37017,
          "time": 177.9661681875,
          "velocity": 0.5196850393700787
        },
        {
          "duration": 0.10576912499996638,
          "durationTicks": 22,
          "midi": 62,
          "name": "D4",
          "ticks": 37060,
          "time": 178.17289875,
          "velocity": 0.5196850393700787
        },
        {
          "duration": 0.2451920624999957,
          "durationTicks": 51,
          "midi": 62,
          "name": "D4",
          "ticks": 37083,
          "time": 178.28347556249997,
          "velocity": 0.5196850393700787
        },
        {
          "duration": 0.12019218749998117,
          "durationTicks": 25,
          "midi": 60,
          "name": "C4",
          "ticks": 37135,
          "time": 178.5334753125,
          "velocity": 0.5196850393700787
        },
        {
          "duration": 0.11057681249997131,
          "durationTicks": 23,
          "midi": 60,
          "name": "C4",
          "ticks": 37161,
          "time": 178.6584751875,
          "velocity": 0.5196850393700787
        },
        {
          "duration": 0.1201921875000096,
          "durationTicks": 25,
          "midi": 60,
          "name": "C4",
          "ticks": 37184,
          "time": 178.76905199999996,
          "velocity": 0.5196850393700787
        },
        {
          "duration": 0.10096143750001829,
          "durationTicks": 21,
          "midi": 62,
          "name": "D4",
          "ticks": 37209,
          "time": 178.88924418749997,
          "velocity": 0.5275590551181102
        },
        {
          "duration": 0.0528845624999974,
          "durationTicks": 11,
          "midi": 62,
          "name": "D4",
          "ticks": 37230,
          "time": 178.990205625,
          "velocity": 0.5354330708661418
        },
        {
          "duration": 0.05288456249996898,
          "durationTicks": 11,
          "midi": 62,
          "name": "D4",
          "ticks": 37242,
          "time": 179.047897875,
          "velocity": 0.5196850393700787
        },
        {
          "duration": 0.08173068749997014,
          "durationTicks": 17,
          "midi": 62,
          "name": "D4",
          "ticks": 37254,
          "time": 179.105590125,
          "velocity": 0.5118110236220472
        },
        {
          "duration": 0.0673076250000122,
          "durationTicks": 14,
          "midi": 62,
          "name": "D4",
          "ticks": 37272,
          "time": 179.19212849999997,
          "velocity": 0.5118110236220472
        },
        {
          "duration": 0.1923074999999983,
          "durationTicks": 40,
          "midi": 60,
          "name": "C4",
          "ticks": 37287,
          "time": 179.26424381249998,
          "velocity": 0.5196850393700787
        },
        {
          "duration": 0.10576912500002322,
          "durationTicks": 22,
          "midi": 60,
          "name": "C4",
          "ticks": 37328,
          "time": 179.46135899999996,
          "velocity": 0.5196850393700787
        },
        {
          "duration": 0.19711518750000323,
          "durationTicks": 41,
          "midi": 59,
          "name": "B3",
          "ticks": 37351,
          "time": 179.5719358125,
          "velocity": 0.5196850393700787
        },
        {
          "duration": 0.27403818749999687,
          "durationTicks": 57,
          "midi": 59,
          "name": "B3",
          "ticks": 37393,
          "time": 179.7738586875,
          "velocity": 0.5196850393700787
        },
        {
          "duration": 0.12980756249999104,
          "durationTicks": 27,
          "midi": 59,
          "name": "B3",
          "ticks": 37451,
          "time": 180.05270456249997,
          "velocity": 0.5118110236220472
        },
        {
          "duration": 0.0721153124999887,
          "durationTicks": 15,
          "midi": 59,
          "name": "B3",
          "ticks": 37479,
          "time": 180.1873198125,
          "velocity": 0.5196850393700787
        },
        {
          "duration": 0.0721153124999887,
          "durationTicks": 15,
          "midi": 59,
          "name": "B3",
          "ticks": 37494,
          "time": 180.25943512499998,
          "velocity": 0.5196850393700787
        },
        {
          "duration": 0.11538450000000466,
          "durationTicks": 24,
          "midi": 59,
          "name": "B3",
          "ticks": 37509,
          "time": 180.33155043749997,
          "velocity": 0.5275590551181102
        },
        {
          "duration": 0.09615375000001336,
          "durationTicks": 20,
          "midi": 59,
          "name": "B3",
          "ticks": 37534,
          "time": 180.45174262499998,
          "velocity": 0.5118110236220472
        },
        {
          "duration": 0.1778844374999835,
          "durationTicks": 37,
          "midi": 59,
          "name": "B3",
          "ticks": 37555,
          "time": 180.5527040625,
          "velocity": 0.5196850393700787
        },
        {
          "duration": 0.07692299999999364,
          "durationTicks": 16,
          "midi": 57,
          "name": "A3",
          "ticks": 37593,
          "time": 180.7353961875,
          "velocity": 0.5118110236220472
        },
        {
          "duration": 0.10096143750001829,
          "durationTicks": 21,
          "midi": 57,
          "name": "A3",
          "ticks": 37610,
          "time": 180.81712687499996,
          "velocity": 0.5118110236220472
        },
        {
          "duration": 0.14903831250001076,
          "durationTicks": 31,
          "midi": 57,
          "name": "A3",
          "ticks": 37632,
          "time": 180.92289599999998,
          "velocity": 0.5196850393700787
        },
        {
          "duration": 0.1923074999999983,
          "durationTicks": 40,
          "midi": 57,
          "name": "A3",
          "ticks": 37664,
          "time": 181.07674199999997,
          "velocity": 0.5118110236220472
        },
        {
          "duration": 0.13461524999996755,
          "durationTicks": 28,
          "midi": 57,
          "name": "A3",
          "ticks": 37705,
          "time": 181.2738571875,
          "velocity": 0.5196850393700787
        },
        {
          "duration": 0.08173068749999857,
          "durationTicks": 17,
          "midi": 45,
          "name": "A2",
          "ticks": 37735,
          "time": 181.41808781249998,
          "velocity": 0.5118110236220472
        },
        {
          "duration": 0.5769224999999949,
          "durationTicks": 120,
          "midi": 33,
          "name": "A1",
          "ticks": 37756,
          "time": 181.51904925,
          "velocity": 0.5118110236220472
        },
        {
          "duration": 0.2740381875000253,
          "durationTicks": 57,
          "midi": 57,
          "name": "A3",
          "ticks": 37879,
          "time": 182.11039481249998,
          "velocity": 0.5118110236220472
        },
        {
          "duration": 0.10096143749998987,
          "durationTicks": 21,
          "midi": 57,
          "name": "A3",
          "ticks": 37937,
          "time": 182.38924068749998,
          "velocity": 0.5196850393700787
        },
        {
          "duration": 0.16346137500002555,
          "durationTicks": 34,
          "midi": 59,
          "name": "B3",
          "ticks": 37959,
          "time": 182.49500981249997,
          "velocity": 0.5196850393700787
        },
        {
          "duration": 0.09134606250000843,
          "durationTicks": 19,
          "midi": 59,
          "name": "B3",
          "ticks": 37994,
          "time": 182.66327887499997,
          "velocity": 0.5196850393700787
        },
        {
          "duration": 0.1586536874999922,
          "durationTicks": 33,
          "midi": 59,
          "name": "B3",
          "ticks": 38014,
          "time": 182.759432625,
          "velocity": 0.5196850393700787
        },
        {
          "duration": 0.13461524999999597,
          "durationTicks": 28,
          "midi": 60,
          "name": "C4",
          "ticks": 38047,
          "time": 182.91808631249998,
          "velocity": 0.5196850393700787
        },
        {
          "duration": 0.06730762499998377,
          "durationTicks": 14,
          "midi": 60,
          "name": "C4",
          "ticks": 38076,
          "time": 183.05750924999998,
          "velocity": 0.5196850393700787
        },
        {
          "duration": 0.12499987500001453,
          "durationTicks": 26,
          "midi": 60,
          "name": "C4",
          "ticks": 38091,
          "time": 183.12962456249997,
          "velocity": 0.5196850393700787
        },
        {
          "duration": 0.0721153124999887,
          "durationTicks": 15,
          "midi": 60,
          "name": "C4",
          "ticks": 38117,
          "time": 183.25462443749998,
          "velocity": 0.5196850393700787
        },
        {
          "duration": 0.08173068749999857,
          "durationTicks": 17,
          "midi": 60,
          "name": "C4",
          "ticks": 38133,
          "time": 183.33154743749998,
          "velocity": 0.5196850393700787
        },
        {
          "duration": 0.06730762499998377,
          "durationTicks": 14,
          "midi": 60,
          "name": "C4",
          "ticks": 38151,
          "time": 183.41808581249998,
          "velocity": 0.5196850393700787
        },
        {
          "duration": 0.09134606250000843,
          "durationTicks": 19,
          "midi": 60,
          "name": "C4",
          "ticks": 38166,
          "time": 183.49020112499997,
          "velocity": 0.5118110236220472
        },
        {
          "duration": 0.18269212500001686,
          "durationTicks": 38,
          "midi": 60,
          "name": "C4",
          "ticks": 38186,
          "time": 183.58635487499998,
          "velocity": 0.5196850393700787
        },
        {
          "duration": 0.0673076250000122,
          "durationTicks": 14,
          "midi": 60,
          "name": "C4",
          "ticks": 38225,
          "time": 183.77385468749998,
          "velocity": 0.5196850393700787
        },
        {
          "duration": 0.2644228125000154,
          "durationTicks": 55,
          "midi": 60,
          "name": "C4",
          "ticks": 38240,
          "time": 183.84596999999997,
          "velocity": 0.5118110236220472
        },
        {
          "duration": 0.11538450000000466,
          "durationTicks": 24,
          "midi": 60,
          "name": "C4",
          "ticks": 38296,
          "time": 184.1152005,
          "velocity": 0.5196850393700787
        },
        {
          "duration": 0.0721153124999887,
          "durationTicks": 15,
          "midi": 60,
          "name": "C4",
          "ticks": 38320,
          "time": 184.230585,
          "velocity": 0.5196850393700787
        },
        {
          "duration": 0.11538450000000466,
          "durationTicks": 24,
          "midi": 60,
          "name": "C4",
          "ticks": 38335,
          "time": 184.30270031249998,
          "velocity": 0.5118110236220472
        },
        {
          "duration": 0.0865383750000035,
          "durationTicks": 18,
          "midi": 60,
          "name": "C4",
          "ticks": 38360,
          "time": 184.42289249999996,
          "velocity": 0.5196850393700787
        },
        {
          "duration": 0.05769225000000233,
          "durationTicks": 12,
          "midi": 60,
          "name": "C4",
          "ticks": 38378,
          "time": 184.50943087499996,
          "velocity": 0.5196850393700787
        },
        {
          "duration": 0.09615375000001336,
          "durationTicks": 20,
          "midi": 60,
          "name": "C4",
          "ticks": 38391,
          "time": 184.57193081249997,
          "velocity": 0.5118110236220472
        },
        {
          "duration": 0.1442306249999774,
          "durationTicks": 30,
          "midi": 62,
          "name": "D4",
          "ticks": 38412,
          "time": 184.67289225,
          "velocity": 0.5275590551181102
        },
        {
          "duration": 0.10576912499996638,
          "durationTicks": 22,
          "midi": 62,
          "name": "D4",
          "ticks": 38443,
          "time": 184.8219305625,
          "velocity": 0.5196850393700787
        },
        {
          "duration": 0.08173068749999857,
          "durationTicks": 17,
          "midi": 62,
          "name": "D4",
          "ticks": 38466,
          "time": 184.93250737499997,
          "velocity": 0.5118110236220472
        },
        {
          "duration": 0.18749981249999337,
          "durationTicks": 39,
          "midi": 60,
          "name": "C4",
          "ticks": 38483,
          "time": 185.01423806249997,
          "velocity": 0.5196850393700787
        },
        {
          "duration": 0.04807687500002089,
          "durationTicks": 10,
          "midi": 60,
          "name": "C4",
          "ticks": 38523,
          "time": 185.20654556249997,
          "velocity": 0.5196850393700787
        },
        {
          "duration": 0.05288456250002582,
          "durationTicks": 11,
          "midi": 60,
          "name": "C4",
          "ticks": 38534,
          "time": 185.25943012499997,
          "velocity": 0.5118110236220472
        },
        {
          "duration": 0.10096143749998987,
          "durationTicks": 21,
          "midi": 60,
          "name": "C4",
          "ticks": 38545,
          "time": 185.3123146875,
          "velocity": 0.5118110236220472
        },
        {
          "duration": 0.2788458750000302,
          "durationTicks": 58,
          "midi": 59,
          "name": "B3",
          "ticks": 38567,
          "time": 185.41808381249996,
          "velocity": 0.5196850393700787
        },
        {
          "duration": 0.1586536874999922,
          "durationTicks": 33,
          "midi": 57,
          "name": "A3",
          "ticks": 38625,
          "time": 185.6969296875,
          "velocity": 0.5196850393700787
        },
        {
          "duration": 0.0528845624999974,
          "durationTicks": 11,
          "midi": 57,
          "name": "A3",
          "ticks": 38659,
          "time": 185.86039106249999,
          "velocity": 0.5118110236220472
        },
        {
          "duration": 0.20673056249998467,
          "durationTicks": 43,
          "midi": 56,
          "name": "G#3",
          "ticks": 38671,
          "time": 185.9180833125,
          "velocity": 0.5196850393700787
        },
        {
          "duration": 0.04807687500002089,
          "durationTicks": 10,
          "midi": 56,
          "name": "G#3",
          "ticks": 38715,
          "time": 186.12962156249998,
          "velocity": 0.5118110236220472
        },
        {
          "duration": 0.18269212500001686,
          "durationTicks": 38,
          "midi": 55,
          "name": "G3",
          "ticks": 38726,
          "time": 186.18250612499997,
          "velocity": 0.5118110236220472
        },
        {
          "duration": 0.10576912500002322,
          "durationTicks": 22,
          "midi": 54,
          "name": "F#3",
          "ticks": 38765,
          "time": 186.37000593749997,
          "velocity": 0.5196850393700787
        },
        {
          "duration": 0.12019218749998117,
          "durationTicks": 25,
          "midi": 52,
          "name": "E3",
          "ticks": 38788,
          "time": 186.48058275,
          "velocity": 0.5118110236220472
        },
        {
          "duration": 0.13461524999999597,
          "durationTicks": 28,
          "midi": 51,
          "name": "D#3",
          "ticks": 38814,
          "time": 186.60558262499998,
          "velocity": 0.5196850393700787
        },
        {
          "duration": 0.04807687499999247,
          "durationTicks": 10,
          "midi": 47,
          "name": "B2",
          "ticks": 38844,
          "time": 186.74981325,
          "velocity": 0.5275590551181102
        },
        {
          "duration": 0.8173068749999857,
          "durationTicks": 170,
          "midi": 45,
          "name": "A2",
          "ticks": 38856,
          "time": 186.8075055,
          "velocity": 0.5118110236220472
        },
        {
          "duration": 0.28846124999998324,
          "durationTicks": 60,
          "midi": 57,
          "name": "A3",
          "ticks": 39026,
          "time": 187.62481237499998,
          "velocity": 0.5196850393700787
        }
      ],
      "endOfTrackTicks": 39086
    }
  ]
}