{
  "header": {
    "keySignatures": [],
    "meta": [],
    "name": "Simge - Yank\u001a",
    "ppq": 1920,
    "tempos": [
      {
        "bpm": 95.7041593027633,
        "ticks": 0
      }
    ],
    "timeSignatures": [
      {
        "ticks": 0,
        "timeSignature": [
          2,
          4
        ],
        "measures": 0
      }
    ]
  },
  "tracks": [
    {
      "channel": 0,
      "controlChanges": {},
      "pitchBends": [],
      "instrument": {
        "family": "piano",
        "number": 0,
        "name": "acoustic grand piano"
      },
      "name": "Simge - Yank\u001a",
      "notes": [
        {
          "duration": 2.5145850687499998,
          "durationTicks": 7701,
          "midi": 31,
          "name": "G1",
          "ticks": 3840,
          "time": 1.2538639999999999,
          "velocity": 0.2047244094488189
        },
        {
          "duration": 0.3324045708333334,
          "durationTicks": 1018,
          "midi": 31,
          "name": "G1",
          "ticks": 11541,
          "time": 3.7684490687499994,
          "velocity": 0.4409448818897638
        },
        {
          "duration": 0.26775220833333346,
          "durationTicks": 820,
          "midi": 31,
          "name": "G1",
          "ticks": 12559,
          "time": 4.100853639583333,
          "velocity": 0.4566929133858268
        },
        {
          "duration": 0.6514215312500005,
          "durationTicks": 1995,
          "midi": 32,
          "name": "G#1",
          "ticks": 13379,
          "time": 4.368605847916666,
          "velocity": 0.4015748031496063
        },
        {
          "duration": 0.11852933124999954,
          "durationTicks": 363,
          "midi": 32,
          "name": "G#1",
          "ticks": 15374,
          "time": 5.020027379166667,
          "velocity": 0.5039370078740157
        },
        {
          "duration": 0.22073230833333302,
          "durationTicks": 676,
          "midi": 29,
          "name": "F1",
          "ticks": 15737,
          "time": 5.138556710416666,
          "velocity": 0.36220472440944884
        },
        {
          "duration": 0.2559972333333338,
          "durationTicks": 784,
          "midi": 29,
          "name": "F1",
          "ticks": 16413,
          "time": 5.359289018749999,
          "velocity": 0.4409448818897638
        },
        {
          "duration": 0.6275850541666665,
          "durationTicks": 1922,
          "midi": 32,
          "name": "G#1",
          "ticks": 17289,
          "time": 5.645326743749999,
          "velocity": 0.3937007874015748
        },
        {
          "duration": 0.3199965416666668,
          "durationTicks": 980,
          "midi": 32,
          "name": "G#1",
          "ticks": 19211,
          "time": 6.272911797916666,
          "velocity": 0.41732283464566927
        },
        {
          "duration": 0.2863642520833336,
          "durationTicks": 877,
          "midi": 32,
          "name": "G#1",
          "ticks": 20191,
          "time": 6.5929083395833326,
          "velocity": 0.4881889763779528
        },
        {
          "duration": 0.6432583541666661,
          "durationTicks": 1970,
          "midi": 32,
          "name": "G#1",
          "ticks": 21068,
          "time": 6.879272591666666,
          "velocity": 0.3464566929133858
        },
        {
          "duration": 0.1266925083333339,
          "durationTicks": 388,
          "midi": 32,
          "name": "G#1",
          "ticks": 23038,
          "time": 7.522530945833332,
          "velocity": 0.4645669291338583
        },
        {
          "duration": 0.17632462499999946,
          "durationTicks": 540,
          "midi": 29,
          "name": "F1",
          "ticks": 23426,
          "time": 7.649223454166666,
          "velocity": 0.33070866141732286
        },
        {
          "duration": 0.2775480208333345,
          "durationTicks": 850,
          "midi": 29,
          "name": "F1",
          "ticks": 23966,
          "time": 7.825548079166666,
          "velocity": 0.44881889763779526
        },
        {
          "duration": 0.21909967291666632,
          "durationTicks": 671,
          "midi": 32,
          "name": "G#1",
          "ticks": 24955,
          "time": 8.148483364583333,
          "velocity": 0.4645669291338583
        },
        {
          "duration": 0.41109759791666534,
          "durationTicks": 1259,
          "midi": 32,
          "name": "G#1",
          "ticks": 25626,
          "time": 8.3675830375,
          "velocity": 0.47244094488188976
        },
        {
          "duration": 0.20832427916666774,
          "durationTicks": 638,
          "midi": 32,
          "name": "G#1",
          "ticks": 26885,
          "time": 8.778680635416665,
          "velocity": 0.4881889763779528
        },
        {
          "duration": 0.40946496249999953,
          "durationTicks": 1254,
          "midi": 32,
          "name": "G#1",
          "ticks": 27523,
          "time": 8.987004914583332,
          "velocity": 0.4566929133858268
        },
        {
          "duration": 0.4225260458333331,
          "durationTicks": 1294,
          "midi": 32,
          "name": "G#1",
          "ticks": 28777,
          "time": 9.396469877083332,
          "velocity": 0.47244094488188976
        },
        {
          "duration": 0.1639165958333333,
          "durationTicks": 502,
          "midi": 34,
          "name": "A#1",
          "ticks": 30071,
          "time": 9.818995922916665,
          "velocity": 0.48031496062992124
        },
        {
          "duration": 0.13583526666666934,
          "durationTicks": 416,
          "midi": 32,
          "name": "G#1",
          "ticks": 30698,
          "time": 10.023728404166665,
          "velocity": 0.5196850393700787
        },
        {
          "duration": 0.5051373979166645,
          "durationTicks": 1547,
          "midi": 32,
          "name": "G#1",
          "ticks": 31114,
          "time": 10.159563670833334,
          "velocity": 0.4251968503937008
        },
        {
          "duration": 0.40522011041666595,
          "durationTicks": 1241,
          "midi": 32,
          "name": "G#1",
          "ticks": 32661,
          "time": 10.664701068749999,
          "velocity": 0.4330708661417323
        },
        {
          "duration": 0.17110019166666746,
          "durationTicks": 524,
          "midi": 36,
          "name": "C2",
          "ticks": 33902,
          "time": 11.069921179166665,
          "velocity": 0.5196850393700787
        },
        {
          "duration": 0.21224260416666496,
          "durationTicks": 650,
          "midi": 32,
          "name": "G#1",
          "ticks": 34558,
          "time": 11.284122945833333,
          "velocity": 0.48031496062992124
        },
        {
          "duration": 0.14432497083333296,
          "durationTicks": 442,
          "midi": 43,
          "name": "G2",
          "ticks": 35208,
          "time": 11.496365549999998,
          "velocity": 0.4251968503937008
        },
        {
          "duration": 0.24228309583333285,
          "durationTicks": 742,
          "midi": 43,
          "name": "G2",
          "ticks": 35650,
          "time": 11.640690520833331,
          "velocity": 0.49606299212598426
        },
        {
          "duration": 0.12310071041666504,
          "durationTicks": 377,
          "midi": 32,
          "name": "G#1",
          "ticks": 36485,
          "time": 11.913340635416667,
          "velocity": 0.5118110236220472
        },
        {
          "duration": 0.2782010750000019,
          "durationTicks": 852,
          "midi": 29,
          "name": "F1",
          "ticks": 36862,
          "time": 12.036441345833332,
          "velocity": 0.4251968503937008
        },
        {
          "duration": 0.20440595416666518,
          "durationTicks": 626,
          "midi": 36,
          "name": "C2",
          "ticks": 37714,
          "time": 12.314642420833334,
          "velocity": 0.5196850393700787
        },
        {
          "duration": 0.3895468104166664,
          "durationTicks": 1193,
          "midi": 32,
          "name": "G#1",
          "ticks": 38340,
          "time": 12.519048374999999,
          "velocity": 0.4251968503937008
        },
        {
          "duration": 0.2579563958333324,
          "durationTicks": 790,
          "midi": 32,
          "name": "G#1",
          "ticks": 39533,
          "time": 12.908595185416665,
          "velocity": 0.47244094488188976
        },
        {
          "duration": 0.4133832875000003,
          "durationTicks": 1266,
          "midi": 32,
          "name": "G#1",
          "ticks": 40323,
          "time": 13.166551581249998,
          "velocity": 0.3858267716535433
        },
        {
          "duration": 0.14661066041666793,
          "durationTicks": 449,
          "midi": 60,
          "name": "C4",
          "ticks": 41597,
          "time": 13.582547085416664,
          "velocity": 0.49606299212598426
        },
        {
          "duration": 0.3598328458333331,
          "durationTicks": 1102,
          "midi": 32,
          "name": "G#1",
          "ticks": 42280,
          "time": 13.805565083333331,
          "velocity": 0.8188976377952756
        },
        {
          "duration": 0.24489531250000063,
          "durationTicks": 750,
          "midi": 29,
          "name": "F1",
          "ticks": 43382,
          "time": 14.165397929166664,
          "velocity": 0.7401574803149606
        },
        {
          "duration": 0.3154251625000004,
          "durationTicks": 966,
          "midi": 31,
          "name": "G1",
          "ticks": 44139,
          "time": 14.412578931249998,
          "velocity": 0.7322834645669292
        },
        {
          "duration": 0.14726371458333354,
          "durationTicks": 451,
          "midi": 29,
          "name": "F1",
          "ticks": 45113,
          "time": 14.730616310416664,
          "velocity": 0.4566929133858268
        },
        {
          "duration": 0.1642431229166661,
          "durationTicks": 503,
          "midi": 29,
          "name": "F1",
          "ticks": 45564,
          "time": 14.877880024999998,
          "velocity": 0.6850393700787402
        },
        {
          "duration": 0.1283251437500006,
          "durationTicks": 393,
          "midi": 31,
          "name": "G1",
          "ticks": 46075,
          "time": 15.044735364583332,
          "velocity": 0.8110236220472441
        },
        {
          "duration": 0.14203928124999976,
          "durationTicks": 435,
          "midi": 30,
          "name": "F#1",
          "ticks": 46476,
          "time": 15.175672724999998,
          "velocity": 0.7007874015748031
        },
        {
          "duration": 0.133223049999998,
          "durationTicks": 408,
          "midi": 61,
          "name": "C#4",
          "ticks": 47586,
          "time": 15.5381177875,
          "velocity": 0.7480314960629921
        },
        {
          "duration": 0.2272628499999989,
          "durationTicks": 696,
          "midi": 32,
          "name": "G#1",
          "ticks": 48001,
          "time": 15.673626527083332,
          "velocity": 0.8582677165354331
        },
        {
          "duration": 0.2543645979166662,
          "durationTicks": 779,
          "midi": 63,
          "name": "D#4",
          "ticks": 48697,
          "time": 15.900889377083331,
          "velocity": 0.6535433070866141
        },
        {
          "duration": 0.14008011874999937,
          "durationTicks": 429,
          "midi": 49,
          "name": "C#3",
          "ticks": 49483,
          "time": 16.157539664583332,
          "velocity": 0.7716535433070866
        },
        {
          "duration": 0.19232445208333004,
          "durationTicks": 589,
          "midi": 32,
          "name": "G#1",
          "ticks": 49919,
          "time": 16.299905472916667,
          "velocity": 0.84251968503937
        },
        {
          "duration": 0.0878357854166687,
          "durationTicks": 269,
          "midi": 29,
          "name": "F1",
          "ticks": 50508,
          "time": 16.492229924999997,
          "velocity": 0.7795275590551181
        },
        {
          "duration": 0.18873265416666385,
          "durationTicks": 578,
          "midi": 48,
          "name": "C3",
          "ticks": 50777,
          "time": 16.580065710416665,
          "velocity": 0.7401574803149606
        },
        {
          "duration": 0.07967260833333611,
          "durationTicks": 244,
          "midi": 60,
          "name": "C4",
          "ticks": 51578,
          "time": 16.841613904166664,
          "velocity": 0.7716535433070866
        },
        {
          "duration": 0.3177108520833336,
          "durationTicks": 973,
          "midi": 32,
          "name": "G#1",
          "ticks": 51829,
          "time": 16.92357220208333,
          "velocity": 0.8346456692913385
        },
        {
          "duration": 0.30040491666666824,
          "durationTicks": 920,
          "midi": 60,
          "name": "C4",
          "ticks": 52802,
          "time": 17.241283054166665,
          "velocity": 0.5984251968503937
        },
        {
          "duration": 0.20930386041666438,
          "durationTicks": 641,
          "midi": 31,
          "name": "G1",
          "ticks": 53729,
          "time": 17.543973660416665,
          "velocity": 0.7401574803149606
        },
        {
          "duration": 0.2096303875000025,
          "durationTicks": 642,
          "midi": 29,
          "name": "F1",
          "ticks": 54370,
          "time": 17.75327752083333,
          "velocity": 0.5354330708661418
        },
        {
          "duration": 0.1991815208333314,
          "durationTicks": 610,
          "midi": 29,
          "name": "F1",
          "ticks": 55012,
          "time": 17.96290790833333,
          "velocity": 0.6456692913385826
        },
        {
          "duration": 0.2612216666666676,
          "durationTicks": 800,
          "midi": 31,
          "name": "G1",
          "ticks": 55727,
          "time": 18.196374772916663,
          "velocity": 0.8188976377952756
        },
        {
          "duration": 0.32293528541666916,
          "durationTicks": 989,
          "midi": 31,
          "name": "G1",
          "ticks": 56527,
          "time": 18.45759643958333,
          "velocity": 0.6614173228346457
        },
        {
          "duration": 0.5178719541666652,
          "durationTicks": 1586,
          "midi": 32,
          "name": "G#1",
          "ticks": 57628,
          "time": 18.81710275833333,
          "velocity": 0.8188976377952756
        },
        {
          "duration": 0.2096303875000025,
          "durationTicks": 642,
          "midi": 32,
          "name": "G#1",
          "ticks": 59214,
          "time": 19.334974712499996,
          "velocity": 0.8740157480314961
        },
        {
          "duration": 0.47085205416666653,
          "durationTicks": 1442,
          "midi": 68,
          "name": "G#4",
          "ticks": 59856,
          "time": 19.5446051,
          "velocity": 0.7322834645669292
        },
        {
          "duration": 0.1420392812500033,
          "durationTicks": 435,
          "midi": 32,
          "name": "G#1",
          "ticks": 61298,
          "time": 20.015457154166665,
          "velocity": 0.8818897637795275
        },
        {
          "duration": 0.1675083937499977,
          "durationTicks": 513,
          "midi": 32,
          "name": "G#1",
          "ticks": 61733,
          "time": 20.157496435416668,
          "velocity": 0.8110236220472441
        },
        {
          "duration": 0.30758851250000063,
          "durationTicks": 942,
          "midi": 68,
          "name": "G#4",
          "ticks": 62246,
          "time": 20.325004829166666,
          "velocity": 0.7007874015748031
        },
        {
          "duration": 0.22432410625000188,
          "durationTicks": 687,
          "midi": 32,
          "name": "G#1",
          "ticks": 63333,
          "time": 20.679939768749996,
          "velocity": 0.8503937007874016
        },
        {
          "duration": 0.36701644166666725,
          "durationTicks": 1124,
          "midi": 65,
          "name": "F4",
          "ticks": 64020,
          "time": 20.904263874999998,
          "velocity": 0.7165354330708661
        },
        {
          "duration": 0.21224260416667207,
          "durationTicks": 650,
          "midi": 31,
          "name": "G1",
          "ticks": 65317,
          "time": 21.327769502083328,
          "velocity": 0.8582677165354331
        },
        {
          "duration": 0.27918065624999855,
          "durationTicks": 855,
          "midi": 67,
          "name": "G4",
          "ticks": 65967,
          "time": 21.54001210625,
          "velocity": 0.7086614173228346
        },
        {
          "duration": 0.0878357854166687,
          "durationTicks": 269,
          "midi": 67,
          "name": "G4",
          "ticks": 66822,
          "time": 21.8191927625,
          "velocity": 0.7480314960629921
        },
        {
          "duration": 0.20930386041666793,
          "durationTicks": 641,
          "midi": 31,
          "name": "G1",
          "ticks": 67099,
          "time": 21.90964076458333,
          "velocity": 0.8503937007874016
        },
        {
          "duration": 0.27460927708333216,
          "durationTicks": 841,
          "midi": 65,
          "name": "F4",
          "ticks": 67740,
          "time": 22.118944624999997,
          "velocity": 0.6141732283464567
        },
        {
          "duration": 0.12669250833332768,
          "durationTicks": 388,
          "midi": 37,
          "name": "C#2",
          "ticks": 68588,
          "time": 22.395839591666668,
          "velocity": 0.8346456692913385
        },
        {
          "duration": 0.6243197833333305,
          "durationTicks": 1912,
          "midi": 32,
          "name": "G#1",
          "ticks": 69130,
          "time": 22.572817270833333,
          "velocity": 0.7874015748031497
        },
        {
          "duration": 0.42317910000000225,
          "durationTicks": 1296,
          "midi": 32,
          "name": "G#1",
          "ticks": 71042,
          "time": 23.197137054166664,
          "velocity": 0.8031496062992126
        },
        {
          "duration": 0.1387740104166646,
          "durationTicks": 425,
          "midi": 61,
          "name": "C#4",
          "ticks": 72464,
          "time": 23.661458566666663,
          "velocity": 0.6771653543307087
        },
        {
          "duration": 0.2246506333333329,
          "durationTicks": 688,
          "midi": 32,
          "name": "G#1",
          "ticks": 72897,
          "time": 23.802844793749998,
          "velocity": 0.8582677165354331
        },
        {
          "duration": 0.40424052916666753,
          "durationTicks": 1238,
          "midi": 60,
          "name": "C4",
          "ticks": 73585,
          "time": 24.02749542708333,
          "velocity": 0.7244094488188977
        },
        {
          "duration": 0.2791806562500021,
          "durationTicks": 855,
          "midi": 31,
          "name": "G1",
          "ticks": 74936,
          "time": 24.468633516666664,
          "velocity": 0.7480314960629921
        },
        {
          "duration": 0.1675083937499977,
          "durationTicks": 513,
          "midi": 30,
          "name": "F#1",
          "ticks": 75798,
          "time": 24.750099862499997,
          "velocity": 0.48031496062992124
        },
        {
          "duration": 0.14073317291666854,
          "durationTicks": 431,
          "midi": 29,
          "name": "F1",
          "ticks": 76318,
          "time": 24.91989394583333,
          "velocity": 0.6614173228346457
        },
        {
          "duration": 0.2566502875000012,
          "durationTicks": 786,
          "midi": 31,
          "name": "G1",
          "ticks": 76757,
          "time": 25.063239335416664,
          "velocity": 0.7322834645669292
        },
        {
          "duration": 0.3634246437499975,
          "durationTicks": 1113,
          "midi": 61,
          "name": "C#4",
          "ticks": 77551,
          "time": 25.32250183958333,
          "velocity": 0.7716535433070866
        },
        {
          "duration": 0.11297837083333206,
          "durationTicks": 346,
          "midi": 32,
          "name": "G#1",
          "ticks": 78672,
          "time": 25.6885387,
          "velocity": 0.9133858267716536
        },
        {
          "duration": 0.4924028416666637,
          "durationTicks": 1508,
          "midi": 63,
          "name": "D#4",
          "ticks": 79018,
          "time": 25.80151707083333,
          "velocity": 0.7559055118110236
        },
        {
          "duration": 0.24293615000000202,
          "durationTicks": 744,
          "midi": 32,
          "name": "G#1",
          "ticks": 80684,
          "time": 26.345511191666663,
          "velocity": 0.8346456692913385
        },
        {
          "duration": 0.3484043979166671,
          "durationTicks": 1067,
          "midi": 48,
          "name": "C3",
          "ticks": 81428,
          "time": 26.588447341666665,
          "velocity": 0.7322834645669292
        },
        {
          "duration": 0.10742741041666903,
          "durationTicks": 329,
          "midi": 60,
          "name": "C4",
          "ticks": 83140,
          "time": 27.14746170833333,
          "velocity": 0.7637795275590551
        },
        {
          "duration": 0.3085680937499973,
          "durationTicks": 945,
          "midi": 60,
          "name": "C4",
          "ticks": 83469,
          "time": 27.25488911875,
          "velocity": 0.6929133858267716
        },
        {
          "duration": 0.1502024583333359,
          "durationTicks": 460,
          "midi": 31,
          "name": "G1",
          "ticks": 84500,
          "time": 27.59153854166666,
          "velocity": 0.7795275590551181
        },
        {
          "duration": 0.2475075291666684,
          "durationTicks": 758,
          "midi": 29,
          "name": "F1",
          "ticks": 84960,
          "time": 27.741740999999998,
          "velocity": 0.5748031496062992
        },
        {
          "duration": 0.2011406833333318,
          "durationTicks": 616,
          "midi": 60,
          "name": "C4",
          "ticks": 85718,
          "time": 27.989248529166666,
          "velocity": 0.6535433070866141
        },
        {
          "duration": 0.16424312291666254,
          "durationTicks": 503,
          "midi": 65,
          "name": "F4",
          "ticks": 86711,
          "time": 28.313489922916666,
          "velocity": 0.7952755905511811
        },
        {
          "duration": 0.3291392999999978,
          "durationTicks": 1008,
          "midi": 65,
          "name": "F4",
          "ticks": 87214,
          "time": 28.47773304583333,
          "velocity": 0.6692913385826772
        },
        {
          "duration": 0.2360790812500042,
          "durationTicks": 723,
          "midi": 32,
          "name": "G#1",
          "ticks": 88222,
          "time": 28.806872345833327,
          "velocity": 0.8661417322834646
        },
        {
          "duration": 0.3310984624999982,
          "durationTicks": 1014,
          "midi": 68,
          "name": "G#4",
          "ticks": 88945,
          "time": 29.04295142708333,
          "velocity": 0.7637795275590551
        },
        {
          "duration": 0.401628312499998,
          "durationTicks": 1230,
          "midi": 32,
          "name": "G#1",
          "ticks": 90264,
          "time": 29.47364065,
          "velocity": 0.8188976377952756
        },
        {
          "duration": 0.12440681874999981,
          "durationTicks": 381,
          "midi": 70,
          "name": "A#4",
          "ticks": 91727,
          "time": 29.951349772916664,
          "velocity": 0.6771653543307087
        },
        {
          "duration": 0.1283251437500006,
          "durationTicks": 393,
          "midi": 32,
          "name": "G#1",
          "ticks": 92115,
          "time": 30.078042281249996,
          "velocity": 0.889763779527559
        },
        {
          "duration": 0.4280770062500032,
          "durationTicks": 1311,
          "midi": 68,
          "name": "G#4",
          "ticks": 92509,
          "time": 30.206693952083327,
          "velocity": 0.7086614173228346
        },
        {
          "duration": 0.16195743333333112,
          "durationTicks": 496,
          "midi": 31,
          "name": "G1",
          "ticks": 94118,
          "time": 30.732076029166667,
          "velocity": 0.8582677165354331
        },
        {
          "duration": 0.4466890499999998,
          "durationTicks": 1368,
          "midi": 65,
          "name": "F4",
          "ticks": 94614,
          "time": 30.894033462499998,
          "velocity": 0.7480314960629921
        },
        {
          "duration": 0.5064435062499975,
          "durationTicks": 1551,
          "midi": 67,
          "name": "G4",
          "ticks": 95982,
          "time": 31.340722512499998,
          "velocity": 0.7952755905511811
        },
        {
          "duration": 0.09273369166666612,
          "durationTicks": 284,
          "midi": 67,
          "name": "G4",
          "ticks": 97533,
          "time": 31.847166018749995,
          "velocity": 0.7795275590551181
        },
        {
          "duration": 0.14889634999999757,
          "durationTicks": 456,
          "midi": 31,
          "name": "G1",
          "ticks": 97975,
          "time": 31.99149098958333,
          "velocity": 0.8661417322834646
        },
        {
          "duration": 0.08816231250000328,
          "durationTicks": 270,
          "midi": 67,
          "name": "G4",
          "ticks": 98431,
          "time": 32.14038733958333,
          "velocity": 0.7637795275590551
        },
        {
          "duration": 0.3464452354166667,
          "durationTicks": 1061,
          "midi": 67,
          "name": "G4",
          "ticks": 98701,
          "time": 32.22854965208333,
          "velocity": 0.6220472440944882
        },
        {
          "duration": 0.22171188958333232,
          "durationTicks": 679,
          "midi": 32,
          "name": "G#1",
          "ticks": 99762,
          "time": 32.5749948875,
          "velocity": 0.8503937007874016
        },
        {
          "duration": 0.19624277708333437,
          "durationTicks": 601,
          "midi": 67,
          "name": "G4",
          "ticks": 100441,
          "time": 32.79670677708333,
          "velocity": 0.7322834645669292
        },
        {
          "duration": 0.22105883541666316,
          "durationTicks": 677,
          "midi": 36,
          "name": "C2",
          "ticks": 101042,
          "time": 32.992949554166664,
          "velocity": 0.7244094488188977
        },
        {
          "duration": 0.27591538541667404,
          "durationTicks": 845,
          "midi": 36,
          "name": "C2",
          "ticks": 101719,
          "time": 33.21400838958333,
          "velocity": 0.5905511811023622
        },
        {
          "duration": 0.3464452354166596,
          "durationTicks": 1061,
          "midi": 67,
          "name": "G4",
          "ticks": 102564,
          "time": 33.489923775,
          "velocity": 0.6850393700787402
        },
        {
          "duration": 0.14693718750000073,
          "durationTicks": 450,
          "midi": 32,
          "name": "G#1",
          "ticks": 103717,
          "time": 33.86640950208333,
          "velocity": 0.889763779527559
        },
        {
          "duration": 0.14171275416666873,
          "durationTicks": 434,
          "midi": 65,
          "name": "F4",
          "ticks": 104167,
          "time": 34.01334668958333,
          "velocity": 0.7401574803149606
        },
        {
          "duration": 0.27624191249999797,
          "durationTicks": 846,
          "midi": 63,
          "name": "D#4",
          "ticks": 104700,
          "time": 34.187385625,
          "velocity": 0.7322834645669292
        },
        {
          "duration": 0.17599809791666843,
          "durationTicks": 539,
          "midi": 31,
          "name": "G1",
          "ticks": 105553,
          "time": 34.46591322708333,
          "velocity": 0.8503937007874016
        },
        {
          "duration": 0.27493580416666674,
          "durationTicks": 842,
          "midi": 61,
          "name": "C#4",
          "ticks": 106092,
          "time": 34.641911324999995,
          "velocity": 0.7637795275590551
        },
        {
          "duration": 0.11297837083333917,
          "durationTicks": 346,
          "midi": 68,
          "name": "G#4",
          "ticks": 106942,
          "time": 34.919459345833324,
          "velocity": 0.6929133858267716
        },
        {
          "duration": 0.4078323270833337,
          "durationTicks": 1249,
          "midi": 32,
          "name": "G#1",
          "ticks": 107296,
          "time": 35.035049933333326,
          "velocity": 0.8031496062992126
        },
        {
          "duration": 0.21714051041666238,
          "durationTicks": 665,
          "midi": 68,
          "name": "G#4",
          "ticks": 108716,
          "time": 35.498718391666664,
          "velocity": 0.7401574803149606
        },
        {
          "duration": 0.28211939999999913,
          "durationTicks": 864,
          "midi": 30,
          "name": "F#1",
          "ticks": 109487,
          "time": 35.750470772916664,
          "velocity": 0.7165354330708661
        },
        {
          "duration": 0.15444731041667126,
          "durationTicks": 473,
          "midi": 65,
          "name": "F4",
          "ticks": 110359,
          "time": 36.035202389583326,
          "velocity": 0.7401574803149606
        },
        {
          "duration": 0.13354957708332904,
          "durationTicks": 409,
          "midi": 65,
          "name": "F4",
          "ticks": 110832,
          "time": 36.1896497,
          "velocity": 0.7322834645669292
        },
        {
          "duration": 0.17861031458333798,
          "durationTicks": 547,
          "midi": 31,
          "name": "G1",
          "ticks": 111380,
          "time": 36.36858654166666,
          "velocity": 0.8661417322834646
        },
        {
          "duration": 0.11167226250000084,
          "durationTicks": 342,
          "midi": 34,
          "name": "A#1",
          "ticks": 111927,
          "time": 36.54719685625,
          "velocity": 0.84251968503937
        },
        {
          "duration": 0.27297664166666635,
          "durationTicks": 836,
          "midi": 63,
          "name": "D#4",
          "ticks": 112375,
          "time": 36.69348098958333,
          "velocity": 0.7716535433070866
        },
        {
          "duration": 0.1632635416666588,
          "durationTicks": 500,
          "midi": 31,
          "name": "G1",
          "ticks": 113218,
          "time": 36.96874332083333,
          "velocity": 0.8346456692913385
        },
        {
          "duration": 0.10938657291666232,
          "durationTicks": 335,
          "midi": 61,
          "name": "C#4",
          "ticks": 113849,
          "time": 37.17478191041666,
          "velocity": 0.7716535433070866
        },
        {
          "duration": 0.30530282291666566,
          "durationTicks": 935,
          "midi": 68,
          "name": "G#4",
          "ticks": 114191,
          "time": 37.28645417291666,
          "velocity": 0.7244094488188977
        },
        {
          "duration": 0.31542516249999863,
          "durationTicks": 966,
          "midi": 32,
          "name": "G#1",
          "ticks": 115133,
          "time": 37.59404268541667,
          "velocity": 0.8188976377952756
        },
        {
          "duration": 0.28636425208333094,
          "durationTicks": 877,
          "midi": 70,
          "name": "A#4",
          "ticks": 116158,
          "time": 37.92873294583333,
          "velocity": 0.7401574803149606
        },
        {
          "duration": 0.11461100624999432,
          "durationTicks": 351,
          "midi": 32,
          "name": "G#1",
          "ticks": 117121,
          "time": 38.24317852708333,
          "velocity": 0.8818897637795275
        },
        {
          "duration": 0.17240630000000579,
          "durationTicks": 528,
          "midi": 32,
          "name": "G#1",
          "ticks": 117472,
          "time": 38.357789533333325,
          "velocity": 0.8110236220472441
        },
        {
          "duration": 0.6311768520833354,
          "durationTicks": 1933,
          "midi": 67,
          "name": "G4",
          "ticks": 118099,
          "time": 38.56252201458333,
          "velocity": 0.7795275590551181
        },
        {
          "duration": 0.2775480208333292,
          "durationTicks": 850,
          "midi": 67,
          "name": "G4",
          "ticks": 120032,
          "time": 39.193698866666665,
          "velocity": 0.7165354330708661
        },
        {
          "duration": 0.11591711458333265,
          "durationTicks": 355,
          "midi": 31,
          "name": "G1",
          "ticks": 120962,
          "time": 39.49736905416666,
          "velocity": 0.8740157480314961
        },
        {
          "duration": 0.35493493958333744,
          "durationTicks": 1087,
          "midi": 67,
          "name": "G4",
          "ticks": 121317,
          "time": 39.613286168749994,
          "velocity": 0.7401574803149606
        },
        {
          "duration": 0.13256999583332885,
          "durationTicks": 406,
          "midi": 43,
          "name": "G2",
          "ticks": 122404,
          "time": 39.96822110833333,
          "velocity": 0.8188976377952756
        },
        {
          "duration": 0.28538467083333785,
          "durationTicks": 874,
          "midi": 31,
          "name": "G1",
          "ticks": 122917,
          "time": 40.13572950208333,
          "velocity": 0.8503937007874016
        },
        {
          "duration": 0.31379252708332217,
          "durationTicks": 961,
          "midi": 31,
          "name": "G1",
          "ticks": 123791,
          "time": 40.42111417291667,
          "velocity": 0.7322834645669292
        },
        {
          "duration": 0.31869043333333735,
          "durationTicks": 976,
          "midi": 31,
          "name": "G1",
          "ticks": 124752,
          "time": 40.73490669999999,
          "velocity": 0.7559055118110236
        },
        {
          "duration": 0.20963038750000607,
          "durationTicks": 642,
          "midi": 68,
          "name": "G#4",
          "ticks": 126042,
          "time": 41.156126637499995,
          "velocity": 0.7874015748031497
        },
        {
          "duration": 0.26579304583333396,
          "durationTicks": 814,
          "midi": 32,
          "name": "G#1",
          "ticks": 126691,
          "time": 41.36804271458333,
          "velocity": 0.8267716535433071
        },
        {
          "duration": 0.21354871249999263,
          "durationTicks": 654,
          "midi": 56,
          "name": "G#3",
          "ticks": 127505,
          "time": 41.633835760416666,
          "velocity": 0.7244094488188977
        },
        {
          "duration": 0.14922287708333215,
          "durationTicks": 457,
          "midi": 68,
          "name": "G#4",
          "ticks": 128166,
          "time": 41.8496701625,
          "velocity": 0.6929133858267716
        },
        {
          "duration": 0.11199878958333187,
          "durationTicks": 343,
          "midi": 32,
          "name": "G#1",
          "ticks": 128630,
          "time": 42.00117872916667,
          "velocity": 0.8976377952755905
        },
        {
          "duration": 0.13681484791666065,
          "durationTicks": 419,
          "midi": 66,
          "name": "F#4",
          "ticks": 128973,
          "time": 42.11317751875,
          "velocity": 0.7480314960629921
        },
        {
          "duration": 0.20636511666666735,
          "durationTicks": 632,
          "midi": 34,
          "name": "A#1",
          "ticks": 129392,
          "time": 42.24999236666666,
          "velocity": 0.7401574803149606
        },
        {
          "duration": 0.101876450000006,
          "durationTicks": 312,
          "midi": 67,
          "name": "G4",
          "ticks": 130197,
          "time": 42.512846668749994,
          "velocity": 0.7559055118110236
        },
        {
          "duration": 0.2837520354166614,
          "durationTicks": 869,
          "midi": 31,
          "name": "G1",
          "ticks": 130509,
          "time": 42.61472311875,
          "velocity": 0.889763779527559
        },
        {
          "duration": 0.18807959999999468,
          "durationTicks": 576,
          "midi": 65,
          "name": "F4",
          "ticks": 131636,
          "time": 42.982719141666664,
          "velocity": 0.8110236220472441
        },
        {
          "duration": 0.08848883958334142,
          "durationTicks": 271,
          "midi": 65,
          "name": "F4",
          "ticks": 132212,
          "time": 43.17079874166666,
          "velocity": 0.8031496062992126
        },
        {
          "duration": 0.17175324583332952,
          "durationTicks": 526,
          "midi": 31,
          "name": "G1",
          "ticks": 132491,
          "time": 43.26189979791666,
          "velocity": 0.8503937007874016
        },
        {
          "duration": 0.11036615416667672,
          "durationTicks": 338,
          "midi": 30,
          "name": "F#1",
          "ticks": 133017,
          "time": 43.43365304374999,
          "velocity": 0.7007874015748031
        },
        {
          "duration": 0.16456964999999002,
          "durationTicks": 504,
          "midi": 30,
          "name": "F#1",
          "ticks": 133355,
          "time": 43.54401919791667,
          "velocity": 0.7795275590551181
        },
        {
          "duration": 0.1113457354166627,
          "durationTicks": 341,
          "midi": 36,
          "name": "C2",
          "ticks": 133952,
          "time": 43.738955866666664,
          "velocity": 0.84251968503937
        },
        {
          "duration": 0.07052984999999978,
          "durationTicks": 216,
          "midi": 33,
          "name": "A1",
          "ticks": 134484,
          "time": 43.912668274999994,
          "velocity": 0.8976377952755905
        },
        {
          "duration": 0.2194262000000009,
          "durationTicks": 672,
          "midi": 34,
          "name": "A#1",
          "ticks": 134700,
          "time": 43.983198124999994,
          "velocity": 0.8346456692913385
        },
        {
          "duration": 0.11199878958333187,
          "durationTicks": 343,
          "midi": 34,
          "name": "A#1",
          "ticks": 135372,
          "time": 44.202624324999995,
          "velocity": 0.7559055118110236
        },
        {
          "duration": 0.1332230499999909,
          "durationTicks": 408,
          "midi": 33,
          "name": "A1",
          "ticks": 135892,
          "time": 44.37241840833333,
          "velocity": 0.8267716535433071
        },
        {
          "duration": 0.11167226249999374,
          "durationTicks": 342,
          "midi": 31,
          "name": "G1",
          "ticks": 136308,
          "time": 44.508253675,
          "velocity": 0.84251968503937
        },
        {
          "duration": 0.3950977708333312,
          "durationTicks": 1210,
          "midi": 61,
          "name": "C#4",
          "ticks": 136650,
          "time": 44.61992593749999,
          "velocity": 0.7244094488188977
        },
        {
          "duration": 0.11657016875000892,
          "durationTicks": 357,
          "midi": 68,
          "name": "G#4",
          "ticks": 138004,
          "time": 45.062043608333326,
          "velocity": 0.7795275590551181
        },
        {
          "duration": 0.5691367062499921,
          "durationTicks": 1743,
          "midi": 68,
          "name": "G#4",
          "ticks": 138361,
          "time": 45.178613777083335,
          "velocity": 0.7322834645669292
        },
        {
          "duration": 0.21550787500000013,
          "durationTicks": 660,
          "midi": 31,
          "name": "G1",
          "ticks": 140209,
          "time": 45.78203582708333,
          "velocity": 0.7716535433070866
        },
        {
          "duration": 0.6879925645833396,
          "durationTicks": 2107,
          "midi": 29,
          "name": "F1",
          "ticks": 140869,
          "time": 45.99754370208333,
          "velocity": 0.8188976377952756
        },
        {
          "duration": 0.2860377249999928,
          "durationTicks": 876,
          "midi": 29,
          "name": "F1",
          "ticks": 142976,
          "time": 46.68553626666667,
          "velocity": 0.7244094488188977
        },
        {
          "duration": 0.1371413749999988,
          "durationTicks": 420,
          "midi": 33,
          "name": "A1",
          "ticks": 143996,
          "time": 47.01859389166666,
          "velocity": 0.8818897637795275
        },
        {
          "duration": 0.15248814791667087,
          "durationTicks": 467,
          "midi": 61,
          "name": "C#4",
          "ticks": 144416,
          "time": 47.15573526666666,
          "velocity": 0.7401574803149606
        },
        {
          "duration": 0.11787627708334014,
          "durationTicks": 361,
          "midi": 44,
          "name": "G#2",
          "ticks": 145015,
          "time": 47.351324989583325,
          "velocity": 0.8110236220472441
        },
        {
          "duration": 0.12963125208333537,
          "durationTicks": 397,
          "midi": 44,
          "name": "G#2",
          "ticks": 145376,
          "time": 47.469201266666666,
          "velocity": 0.8110236220472441
        },
        {
          "duration": 0.4045670562500021,
          "durationTicks": 1239,
          "midi": 32,
          "name": "G#1",
          "ticks": 145905,
          "time": 47.641934093749995,
          "velocity": 0.8267716535433071
        },
        {
          "duration": 0.13289652291666698,
          "durationTicks": 407,
          "midi": 34,
          "name": "A#1",
          "ticks": 147321,
          "time": 48.104296443749995,
          "velocity": 0.8110236220472441
        },
        {
          "duration": 0.2827724541666612,
          "durationTicks": 866,
          "midi": 32,
          "name": "G#1",
          "ticks": 147736,
          "time": 48.23980518333333,
          "velocity": 0.8503937007874016
        },
        {
          "duration": 0.2184466187500007,
          "durationTicks": 669,
          "midi": 34,
          "name": "A#1",
          "ticks": 148780,
          "time": 48.58069945833333,
          "velocity": 0.8188976377952756
        },
        {
          "duration": 0.4251382625000062,
          "durationTicks": 1302,
          "midi": 32,
          "name": "G#1",
          "ticks": 149449,
          "time": 48.79914607708333,
          "velocity": 0.8110236220472441
        },
        {
          "duration": 0.24489531249999885,
          "durationTicks": 750,
          "midi": 36,
          "name": "C2",
          "ticks": 150751,
          "time": 49.224284339583335,
          "velocity": 0.7322834645669292
        },
        {
          "duration": 0.3275066645833391,
          "durationTicks": 1003,
          "midi": 31,
          "name": "G1",
          "ticks": 151679,
          "time": 49.527301472916655,
          "velocity": 0.84251968503937
        },
        {
          "duration": 0.07575428333333889,
          "durationTicks": 232,
          "midi": 67,
          "name": "G4",
          "ticks": 152755,
          "time": 49.87864461458332,
          "velocity": 0.7401574803149606
        },
        {
          "duration": 0.14432497083333828,
          "durationTicks": 442,
          "midi": 36,
          "name": "C2",
          "ticks": 152987,
          "time": 49.95439889791666,
          "velocity": 0.8267716535433071
        },
        {
          "duration": 0.28113981874999894,
          "durationTicks": 861,
          "midi": 31,
          "name": "G1",
          "ticks": 153581,
          "time": 50.148355985416664,
          "velocity": 0.8661417322834646
        },
        {
          "duration": 0.2285689583333408,
          "durationTicks": 700,
          "midi": 36,
          "name": "C2",
          "ticks": 154701,
          "time": 50.51406631874999,
          "velocity": 0.7716535433070866
        },
        {
          "duration": 0.2984457541666572,
          "durationTicks": 914,
          "midi": 31,
          "name": "G1",
          "ticks": 155514,
          "time": 50.7795328375,
          "velocity": 0.7795275590551181
        },
        {
          "duration": 0.2684052625000035,
          "durationTicks": 822,
          "midi": 67,
          "name": "G4",
          "ticks": 156548,
          "time": 51.11716184166666,
          "velocity": 0.7401574803149606
        },
        {
          "duration": 0.1456310791666695,
          "durationTicks": 446,
          "midi": 70,
          "name": "A#4",
          "ticks": 157377,
          "time": 51.38785279374999,
          "velocity": 0.7086614173228346
        },
        {
          "duration": 0.2622012479166642,
          "durationTicks": 803,
          "midi": 37,
          "name": "C#2",
          "ticks": 157831,
          "time": 51.53609608958333,
          "velocity": 0.8188976377952756
        },
        {
          "duration": 0.21354871249999974,
          "durationTicks": 654,
          "midi": 36,
          "name": "C2",
          "ticks": 158634,
          "time": 51.798297337499996,
          "velocity": 0.7086614173228346
        },
        {
          "duration": 0.06693805208333004,
          "durationTicks": 205,
          "midi": 67,
          "name": "G4",
          "ticks": 159568,
          "time": 52.10327363333333,
          "velocity": 0.7244094488188977
        },
        {
          "duration": 0.1371413749999988,
          "durationTicks": 420,
          "midi": 24,
          "name": "C1",
          "ticks": 159773,
          "time": 52.17021168541666,
          "velocity": 0.7716535433070866
        },
        {
          "duration": 0.2974661729166641,
          "durationTicks": 911,
          "midi": 29,
          "name": "F1",
          "ticks": 160193,
          "time": 52.30735306041666,
          "velocity": 0.84251968503937
        },
        {
          "duration": 0.3637511708333463,
          "durationTicks": 1114,
          "midi": 67,
          "name": "G4",
          "ticks": 161204,
          "time": 52.637471941666654,
          "velocity": 0.6614173228346457
        },
        {
          "duration": 0.2733031687499974,
          "durationTicks": 837,
          "midi": 68,
          "name": "G#4",
          "ticks": 162318,
          "time": 53.0012231125,
          "velocity": 0.6377952755905512
        },
        {
          "duration": 0.30922114791666644,
          "durationTicks": 947,
          "midi": 70,
          "name": "A#4",
          "ticks": 163162,
          "time": 53.27681197083333,
          "velocity": 0.6614173228346457
        },
        {
          "duration": 0.3007314437500028,
          "durationTicks": 921,
          "midi": 72,
          "name": "C5",
          "ticks": 164117,
          "time": 53.58864533541666,
          "velocity": 0.7086614173228346
        },
        {
          "duration": 0.10220297708332993,
          "durationTicks": 313,
          "midi": 32,
          "name": "G#1",
          "ticks": 165046,
          "time": 53.89198899583333,
          "velocity": 0.9133858267716536
        },
        {
          "duration": 0.21289565833333057,
          "durationTicks": 652,
          "midi": 28,
          "name": "E1",
          "ticks": 165359,
          "time": 53.99419197291666,
          "velocity": 0.8582677165354331
        },
        {
          "duration": 0.14432497083333118,
          "durationTicks": 442,
          "midi": 68,
          "name": "G#4",
          "ticks": 166141,
          "time": 54.24953615208333,
          "velocity": 0.7401574803149606
        },
        {
          "duration": 0.10612130208333781,
          "durationTicks": 325,
          "midi": 40,
          "name": "E2",
          "ticks": 166583,
          "time": 54.39386112291666,
          "velocity": 0.8267716535433071
        },
        {
          "duration": 0.2442422583333297,
          "durationTicks": 748,
          "midi": 32,
          "name": "G#1",
          "ticks": 167026,
          "time": 54.53851262083333,
          "velocity": 0.8661417322834646
        },
        {
          "duration": 0.19918152083333496,
          "durationTicks": 610,
          "midi": 32,
          "name": "G#1",
          "ticks": 167774,
          "time": 54.78275487916666,
          "velocity": 0.7874015748031497
        },
        {
          "duration": 0.1080804645833382,
          "durationTicks": 331,
          "midi": 40,
          "name": "E2",
          "ticks": 168456,
          "time": 55.00544634999999,
          "velocity": 0.8267716535433071
        },
        {
          "duration": 0.4489747395833277,
          "durationTicks": 1375,
          "midi": 29,
          "name": "F1",
          "ticks": 168917,
          "time": 55.15597533541666,
          "velocity": 0.8582677165354331
        },
        {
          "duration": 0.1923244520833407,
          "durationTicks": 589,
          "midi": 29,
          "name": "F1",
          "ticks": 170292,
          "time": 55.60495007499999,
          "velocity": 0.8661417322834646
        },
        {
          "duration": 0.5044843437500006,
          "durationTicks": 1545,
          "midi": 29,
          "name": "F1",
          "ticks": 170881,
          "time": 55.79727452708333,
          "velocity": 0.8346456692913385
        },
        {
          "duration": 0.28636425208332383,
          "durationTicks": 877,
          "midi": 29,
          "name": "F1",
          "ticks": 172426,
          "time": 56.30175887083333,
          "velocity": 0.8110236220472441
        },
        {
          "duration": 0.2814663458333371,
          "durationTicks": 862,
          "midi": 65,
          "name": "F4",
          "ticks": 173303,
          "time": 56.588123122916656,
          "velocity": 0.7716535433070866
        },
        {
          "duration": 0.12865167083333517,
          "durationTicks": 394,
          "midi": 41,
          "name": "F2",
          "ticks": 174165,
          "time": 56.86958946874999,
          "velocity": 0.8582677165354331
        },
        {
          "duration": 0.5772998833333318,
          "durationTicks": 1768,
          "midi": 29,
          "name": "F1",
          "ticks": 174719,
          "time": 57.050485472916655,
          "velocity": 0.8740157480314961
        },
        {
          "duration": 0.11167226249999374,
          "durationTicks": 342,
          "midi": 33,
          "name": "A1",
          "ticks": 176581,
          "time": 57.65847890208333,
          "velocity": 0.8661417322834646
        },
        {
          "duration": 0.35493493958333744,
          "durationTicks": 1087,
          "midi": 29,
          "name": "F1",
          "ticks": 176923,
          "time": 57.770151164583325,
          "velocity": 0.7559055118110236
        },
        {
          "duration": 0.05485655000000378,
          "durationTicks": 168,
          "midi": 41,
          "name": "F2",
          "ticks": 178279,
          "time": 58.21292188958333,
          "velocity": 0.7874015748031497
        },
        {
          "duration": 0.28832341458333843,
          "durationTicks": 883,
          "midi": 31,
          "name": "G1",
          "ticks": 178515,
          "time": 58.28998228124999,
          "velocity": 0.8582677165354331
        },
        {
          "duration": 0.25828292291667054,
          "durationTicks": 791,
          "midi": 43,
          "name": "G2",
          "ticks": 179620,
          "time": 58.65079470833332,
          "velocity": 0.8188976377952756
        },
        {
          "duration": 0.32195570416666186,
          "durationTicks": 986,
          "midi": 18,
          "name": "F#0",
          "ticks": 180418,
          "time": 58.91136332083333,
          "velocity": 0.8503937007874016
        },
        {
          "duration": 0.1113457354166556,
          "durationTicks": 341,
          "midi": 68,
          "name": "G#4",
          "ticks": 181518,
          "time": 59.2705431125,
          "velocity": 0.6692913385826772
        },
        {
          "duration": 0.10024381458333664,
          "durationTicks": 307,
          "midi": 37,
          "name": "C#2",
          "ticks": 182006,
          "time": 59.42988832916666,
          "velocity": 0.8503937007874016
        },
        {
          "duration": 0.2589359770833326,
          "durationTicks": 793,
          "midi": 32,
          "name": "G#1",
          "ticks": 182440,
          "time": 59.57160108333333,
          "velocity": 0.8503937007874016
        },
        {
          "duration": 0.33011888124999444,
          "durationTicks": 1011,
          "midi": 32,
          "name": "G#1",
          "ticks": 183233,
          "time": 59.83053706041666,
          "velocity": 0.7401574803149606
        },
        {
          "duration": 0.3588532645833453,
          "durationTicks": 1099,
          "midi": 31,
          "name": "G1",
          "ticks": 184244,
          "time": 60.160655941666654,
          "velocity": 0.8661417322834646
        },
        {
          "duration": 0.12244765624999587,
          "durationTicks": 375,
          "midi": 67,
          "name": "G4",
          "ticks": 185343,
          "time": 60.51950920625,
          "velocity": 0.7559055118110236
        },
        {
          "duration": 0.10906004583333129,
          "durationTicks": 334,
          "midi": 36,
          "name": "C2",
          "ticks": 185790,
          "time": 60.66546681249999,
          "velocity": 0.8740157480314961
        },
        {
          "duration": 0.2266097958333333,
          "durationTicks": 694,
          "midi": 31,
          "name": "G1",
          "ticks": 186301,
          "time": 60.83232215208333,
          "velocity": 0.8582677165354331
        },
        {
          "duration": 0.21093649583333018,
          "durationTicks": 646,
          "midi": 31,
          "name": "G1",
          "ticks": 186995,
          "time": 61.05893194791666,
          "velocity": 0.7559055118110236
        },
        {
          "duration": 0.4564848625000053,
          "durationTicks": 1398,
          "midi": 36,
          "name": "C2",
          "ticks": 187641,
          "time": 61.26986844374999,
          "velocity": 0.8503937007874016
        },
        {
          "duration": 0.22693632291667143,
          "durationTicks": 695,
          "midi": 65,
          "name": "F4",
          "ticks": 189047,
          "time": 61.72896552291666,
          "velocity": 0.7795275590551181
        },
        {
          "duration": 0.45485222708332884,
          "durationTicks": 1393,
          "midi": 65,
          "name": "F4",
          "ticks": 189742,
          "time": 61.95590184583333,
          "velocity": 0.8110236220472441
        },
        {
          "duration": 0.10938657291666232,
          "durationTicks": 335,
          "midi": 31,
          "name": "G1",
          "ticks": 191135,
          "time": 62.41075407291666,
          "velocity": 0.8346456692913385
        },
        {
          "duration": 0.10481519375000659,
          "durationTicks": 321,
          "midi": 37,
          "name": "C#2",
          "ticks": 191470,
          "time": 62.52014064583332,
          "velocity": 0.8740157480314961
        },
        {
          "duration": 0.15673300000000268,
          "durationTicks": 480,
          "midi": 30,
          "name": "F#1",
          "ticks": 192001,
          "time": 62.69352652708333,
          "velocity": 0.8346456692913385
        },
        {
          "duration": 0.29354784791666333,
          "durationTicks": 899,
          "midi": 18,
          "name": "F#0",
          "ticks": 192481,
          "time": 62.85025952708333,
          "velocity": 0.7244094488188977
        },
        {
          "duration": 0.06955026874999959,
          "durationTicks": 213,
          "midi": 36,
          "name": "C2",
          "ticks": 193387,
          "time": 63.146093064583326,
          "velocity": 0.84251968503937
        },
        {
          "duration": 0.2850581437500068,
          "durationTicks": 873,
          "midi": 31,
          "name": "G1",
          "ticks": 193903,
          "time": 63.314581039583324,
          "velocity": 0.8661417322834646
        },
        {
          "duration": 0.42350562708334394,
          "durationTicks": 1297,
          "midi": 44,
          "name": "G#2",
          "ticks": 194888,
          "time": 63.636210216666655,
          "velocity": 0.84251968503937
        },
        {
          "duration": 0.24065046041665994,
          "durationTicks": 737,
          "midi": 73,
          "name": "C#5",
          "ticks": 196193,
          "time": 64.06232806041666,
          "velocity": 0.7952755905511811
        },
        {
          "duration": 0.09371327291667342,
          "durationTicks": 287,
          "midi": 70,
          "name": "A#4",
          "ticks": 196930,
          "time": 64.30297852083332,
          "velocity": 0.7952755905511811
        },
        {
          "duration": 0.06367278125000553,
          "durationTicks": 195,
          "midi": 34,
          "name": "A#1",
          "ticks": 197336,
          "time": 64.43554851666666,
          "velocity": 0.8661417322834646
        },
        {
          "duration": 0.4440768333333267,
          "durationTicks": 1360,
          "midi": 32,
          "name": "G#1",
          "ticks": 197769,
          "time": 64.57693474375,
          "velocity": 0.8188976377952756
        },
        {
          "duration": 0.06791763333332312,
          "durationTicks": 208,
          "midi": 72,
          "name": "C5",
          "ticks": 199288,
          "time": 65.07292938333333,
          "velocity": 0.8031496062992126
        },
        {
          "duration": 0.2318342291666653,
          "durationTicks": 710,
          "midi": 32,
          "name": "G#1",
          "ticks": 199668,
          "time": 65.19700967499999,
          "velocity": 0.8503937007874016
        },
        {
          "duration": 0.1704471375000054,
          "durationTicks": 522,
          "midi": 32,
          "name": "G#1",
          "ticks": 200378,
          "time": 65.42884390416665,
          "velocity": 0.7401574803149606
        },
        {
          "duration": 0.10612130208333781,
          "durationTicks": 325,
          "midi": 34,
          "name": "A#1",
          "ticks": 201112,
          "time": 65.66851478333332,
          "velocity": 0.8661417322834646
        },
        {
          "duration": 0.13028430624999032,
          "durationTicks": 399,
          "midi": 31,
          "name": "G1",
          "ticks": 201603,
          "time": 65.82883958125,
          "velocity": 0.8582677165354331
        },
        {
          "duration": 0.4675867833333456,
          "durationTicks": 1432,
          "midi": 33,
          "name": "A1",
          "ticks": 202002,
          "time": 65.95912388749998,
          "velocity": 0.7401574803149606
        },
        {
          "duration": 0.363751170833325,
          "durationTicks": 1114,
          "midi": 32,
          "name": "G#1",
          "ticks": 203528,
          "time": 66.45740421666666,
          "velocity": 0.8267716535433071
        },
        {
          "duration": 0.0966520166666669,
          "durationTicks": 296,
          "midi": 67,
          "name": "G4",
          "ticks": 204642,
          "time": 66.82115538749999,
          "velocity": 0.5984251968503937
        },
        {
          "duration": 0.14269233541666893,
          "durationTicks": 437,
          "midi": 39,
          "name": "D#2",
          "ticks": 204938,
          "time": 66.91780740416665,
          "velocity": 0.7795275590551181
        },
        {
          "duration": 0.14497802500000034,
          "durationTicks": 444,
          "midi": 39,
          "name": "D#2",
          "ticks": 205375,
          "time": 67.06049973958332,
          "velocity": 0.905511811023622
        },
        {
          "duration": 0.10154992291667497,
          "durationTicks": 311,
          "midi": 30,
          "name": "F#1",
          "ticks": 205819,
          "time": 67.20547776458332,
          "velocity": 0.8503937007874016
        },
        {
          "duration": 0.37060823958333344,
          "durationTicks": 1135,
          "midi": 58,
          "name": "A#3",
          "ticks": 206130,
          "time": 67.3070276875,
          "velocity": 0.7480314960629921
        },
        {
          "duration": 0.2298750666666649,
          "durationTicks": 704,
          "midi": 32,
          "name": "G#1",
          "ticks": 207265,
          "time": 67.67763592708333,
          "velocity": 0.8582677165354331
        },
        {
          "duration": 0.2795071833333225,
          "durationTicks": 856,
          "midi": 36,
          "name": "C2",
          "ticks": 207969,
          "time": 67.90751099375,
          "velocity": 0.84251968503937
        },
        {
          "duration": 0.14628413333333867,
          "durationTicks": 448,
          "midi": 36,
          "name": "C2",
          "ticks": 208825,
          "time": 68.18701817708332,
          "velocity": 0.8818897637795275
        },
        {
          "duration": 0.4251382625000133,
          "durationTicks": 1302,
          "midi": 32,
          "name": "G#1",
          "ticks": 209273,
          "time": 68.33330231041666,
          "velocity": 0.8582677165354331
        },
        {
          "duration": 0.8799904895833208,
          "durationTicks": 2695,
          "midi": 32,
          "name": "G#1",
          "ticks": 210575,
          "time": 68.75844057291667,
          "velocity": 0.8188976377952756
        },
        {
          "duration": 0.4437503062500099,
          "durationTicks": 1359,
          "midi": 29,
          "name": "F1",
          "ticks": 213270,
          "time": 69.63843106249999,
          "velocity": 0.8188976377952756
        },
        {
          "duration": 0.2919152125000011,
          "durationTicks": 894,
          "midi": 68,
          "name": "G#4",
          "ticks": 214739,
          "time": 70.11809934791665,
          "velocity": 0.7637795275590551
        },
        {
          "duration": 0.5044843437500077,
          "durationTicks": 1545,
          "midi": 33,
          "name": "A1",
          "ticks": 215633,
          "time": 70.41001456041666,
          "velocity": 0.84251968503937
        },
        {
          "duration": 0.5446471749999944,
          "durationTicks": 1668,
          "midi": 33,
          "name": "A1",
          "ticks": 217178,
          "time": 70.91449890416666,
          "velocity": 0.7559055118110236
        },
        {
          "duration": 0.4401585083333259,
          "durationTicks": 1348,
          "midi": 32,
          "name": "G#1",
          "ticks": 219243,
          "time": 71.58877733125,
          "velocity": 0.8503937007874016
        },
        {
          "duration": 0.43428102083332476,
          "durationTicks": 1330,
          "midi": 67,
          "name": "G4",
          "ticks": 220848,
          "time": 72.1128533,
          "velocity": 0.7795275590551181
        },
        {
          "duration": 0.1413862270833306,
          "durationTicks": 433,
          "midi": 31,
          "name": "G1",
          "ticks": 222360,
          "time": 72.60656225,
          "velocity": 0.889763779527559
        },
        {
          "duration": 0.2674256812500033,
          "durationTicks": 819,
          "midi": 29,
          "name": "F1",
          "ticks": 222793,
          "time": 72.74794847708333,
          "velocity": 0.8346456692913385
        },
        {
          "duration": 0.33436373333333336,
          "durationTicks": 1024,
          "midi": 29,
          "name": "F1",
          "ticks": 223612,
          "time": 73.01537415833333,
          "velocity": 0.7716535433070866
        },
        {
          "duration": 0.1841612749999939,
          "durationTicks": 564,
          "midi": 41,
          "name": "F2",
          "ticks": 224636,
          "time": 73.34973789166666,
          "velocity": 0.8346456692913385
        },
        {
          "duration": 0.28113981874999183,
          "durationTicks": 861,
          "midi": 29,
          "name": "F1",
          "ticks": 225605,
          "time": 73.66614263541666,
          "velocity": 0.8976377952755905
        },
        {
          "duration": 0.5861161145833336,
          "durationTicks": 1795,
          "midi": 31,
          "name": "G1",
          "ticks": 226466,
          "time": 73.94728245416665,
          "velocity": 0.8582677165354331
        },
        {
          "duration": 0.5253820770833357,
          "durationTicks": 1609,
          "midi": 33,
          "name": "A1",
          "ticks": 228495,
          "time": 74.60980590624999,
          "velocity": 0.8582677165354331
        },
        {
          "duration": 0.24293615000000557,
          "durationTicks": 744,
          "midi": 65,
          "name": "F4",
          "ticks": 230444,
          "time": 75.24620719166666,
          "velocity": 0.7795275590551181
        },
        {
          "duration": 0.3568941020833307,
          "durationTicks": 1093,
          "midi": 65,
          "name": "F4",
          "ticks": 231188,
          "time": 75.48914334166666,
          "velocity": 0.7952755905511811
        },
        {
          "duration": 0.5005660187499927,
          "durationTicks": 1533,
          "midi": 29,
          "name": "F1",
          "ticks": 232293,
          "time": 75.84995576875,
          "velocity": 0.7401574803149606
        },
        {
          "duration": 0.22889548541667182,
          "durationTicks": 701,
          "midi": 29,
          "name": "F1",
          "ticks": 233826,
          "time": 76.35052178749999,
          "velocity": 0.7952755905511811
        },
        {
          "duration": 0.45713791666666737,
          "durationTicks": 1400,
          "midi": 32,
          "name": "G#1",
          "ticks": 234688,
          "time": 76.63198813333332,
          "velocity": 0.8346456692913385
        },
        {
          "duration": 1.4190867041666593,
          "durationTicks": 4346,
          "midi": 43,
          "name": "G2",
          "ticks": 236346,
          "time": 77.17337003749999,
          "velocity": 0.8031496062992126
        },
        {
          "duration": 0.6465236250000004,
          "durationTicks": 1980,
          "midi": 32,
          "name": "G#1",
          "ticks": 240881,
          "time": 78.65417036041666,
          "velocity": 0.8031496062992126
        },
        {
          "duration": 0.24489531250000596,
          "durationTicks": 750,
          "midi": 32,
          "name": "G#1",
          "ticks": 242861,
          "time": 79.30069398541666,
          "velocity": 0.7637795275590551
        },
        {
          "duration": 0.7376246812499829,
          "durationTicks": 2259,
          "midi": 67,
          "name": "G4",
          "ticks": 243611,
          "time": 79.54558929791666,
          "velocity": 0.8110236220472441
        },
        {
          "duration": 0.08228482500000212,
          "durationTicks": 252,
          "midi": 36,
          "name": "C2",
          "ticks": 246026,
          "time": 80.33415220416666,
          "velocity": 0.889763779527559
        },
        {
          "duration": 0.19363056041667903,
          "durationTicks": 593,
          "midi": 31,
          "name": "G1",
          "ticks": 246868,
          "time": 80.60908800833332,
          "velocity": 0.8818897637795275
        },
        {
          "duration": 0.07771344583333928,
          "durationTicks": 238,
          "midi": 70,
          "name": "A#4",
          "ticks": 247662,
          "time": 80.86835051249999,
          "velocity": 0.8110236220472441
        },
        {
          "duration": 0.25860944999999447,
          "durationTicks": 792,
          "midi": 70,
          "name": "A#4",
          "ticks": 247900,
          "time": 80.94606395833333,
          "velocity": 0.7401574803149606
        },
        {
          "duration": 0.19297750625000276,
          "durationTicks": 591,
          "midi": 36,
          "name": "C2",
          "ticks": 248692,
          "time": 81.20467340833332,
          "velocity": 0.8110236220472441
        },
        {
          "duration": 0.37583267291665834,
          "durationTicks": 1151,
          "midi": 33,
          "name": "A1",
          "ticks": 249283,
          "time": 81.39765091458332,
          "velocity": 0.8818897637795275
        },
        {
          "duration": 0.3702817125000166,
          "durationTicks": 1134,
          "midi": 65,
          "name": "F4",
          "ticks": 250434,
          "time": 81.77348358749998,
          "velocity": 0.7952755905511811
        },
        {
          "duration": 0.22497716041665683,
          "durationTicks": 689,
          "midi": 31,
          "name": "G1",
          "ticks": 252164,
          "time": 82.33837544166666,
          "velocity": 0.889763779527559
        },
        {
          "duration": 0.17632462500000656,
          "durationTicks": 540,
          "midi": 65,
          "name": "F4",
          "ticks": 252853,
          "time": 82.56335260208331,
          "velocity": 0.7716535433070866
        },
        {
          "duration": 0.21909967291666987,
          "durationTicks": 671,
          "midi": 31,
          "name": "G1",
          "ticks": 253393,
          "time": 82.73967722708332,
          "velocity": 0.8661417322834646
        },
        {
          "duration": 0.1975488854166798,
          "durationTicks": 605,
          "midi": 37,
          "name": "C#2",
          "ticks": 254064,
          "time": 82.95877689999999,
          "velocity": 0.8582677165354331
        },
        {
          "duration": 0.11754975000000911,
          "durationTicks": 360,
          "midi": 30,
          "name": "F#1",
          "ticks": 254881,
          "time": 83.22554952708332,
          "velocity": 0.8740157480314961
        },
        {
          "duration": 0.4897906249999977,
          "durationTicks": 1500,
          "midi": 18,
          "name": "F#0",
          "ticks": 255241,
          "time": 83.34309927708333,
          "velocity": 0.7637795275590551
        },
        {
          "duration": 0.10971310000000756,
          "durationTicks": 336,
          "midi": 18,
          "name": "F#0",
          "ticks": 256741,
          "time": 83.83288990208332,
          "velocity": 0.84251968503937
        },
        {
          "duration": 0.7415430062499837,
          "durationTicks": 2271,
          "midi": 31,
          "name": "G1",
          "ticks": 257077,
          "time": 83.94260300208333,
          "velocity": 0.8582677165354331
        },
        {
          "duration": 0.2079977520833438,
          "durationTicks": 637,
          "midi": 72,
          "name": "C5",
          "ticks": 259348,
          "time": 84.68414600833331,
          "velocity": 0.7480314960629921
        },
        {
          "duration": 0.5293004020833365,
          "durationTicks": 1621,
          "midi": 32,
          "name": "G#1",
          "ticks": 259985,
          "time": 84.89214376041666,
          "velocity": 0.8267716535433071
        },
        {
          "duration": 0.35722062916666175,
          "durationTicks": 1094,
          "midi": 72,
          "name": "C5",
          "ticks": 261606,
          "time": 85.4214441625,
          "velocity": 0.7795275590551181
        },
        {
          "duration": 0.38301626874999783,
          "durationTicks": 1173,
          "midi": 32,
          "name": "G#1",
          "ticks": 262893,
          "time": 85.84168451875,
          "velocity": 0.84251968503937
        },
        {
          "duration": 0.2079977520833154,
          "durationTicks": 637,
          "midi": 58,
          "name": "A#3",
          "ticks": 264077,
          "time": 86.22829258541667,
          "velocity": 0.8031496062992126
        },
        {
          "duration": 0.1528146750000019,
          "durationTicks": 468,
          "midi": 72,
          "name": "C5",
          "ticks": 264934,
          "time": 86.50812629583332,
          "velocity": 0.7952755905511811
        },
        {
          "duration": 0.4826070291666724,
          "durationTicks": 1478,
          "midi": 32,
          "name": "G#1",
          "ticks": 265412,
          "time": 86.66420624166666,
          "velocity": 0.8582677165354331
        },
        {
          "duration": 0.09861117916665307,
          "durationTicks": 302,
          "midi": 68,
          "name": "G#4",
          "ticks": 267082,
          "time": 87.20950647083333,
          "velocity": 0.7559055118110236
        },
        {
          "duration": 0.17958989583333107,
          "durationTicks": 550,
          "midi": 34,
          "name": "A#1",
          "ticks": 267384,
          "time": 87.30811764999999,
          "velocity": 0.8582677165354331
        },
        {
          "duration": 0.3376290041666721,
          "durationTicks": 1034,
          "midi": 32,
          "name": "G#1",
          "ticks": 268250,
          "time": 87.59089010416665,
          "velocity": 0.8031496062992126
        },
        {
          "duration": 0.2893029958333386,
          "durationTicks": 886,
          "midi": 32,
          "name": "G#1",
          "ticks": 269284,
          "time": 87.92851910833332,
          "velocity": 0.7874015748031497
        },
        {
          "duration": 0.3960773520833385,
          "durationTicks": 1213,
          "midi": 67,
          "name": "G4",
          "ticks": 270170,
          "time": 88.21782210416666,
          "velocity": 0.7637795275590551
        },
        {
          "duration": 0.16685533958332144,
          "durationTicks": 511,
          "midi": 68,
          "name": "G#4",
          "ticks": 272358,
          "time": 88.9322633625,
          "velocity": 0.7480314960629921
        },
        {
          "duration": 0.0862031500000171,
          "durationTicks": 264,
          "midi": 67,
          "name": "G4",
          "ticks": 273185,
          "time": 89.20230126041665,
          "velocity": 0.6771653543307087
        },
        {
          "duration": 0.44342377916666464,
          "durationTicks": 1358,
          "midi": 70,
          "name": "A#4",
          "ticks": 274555,
          "time": 89.64964336458333,
          "velocity": 0.7244094488188977
        },
        {
          "duration": 0.6177892416666566,
          "durationTicks": 1892,
          "midi": 49,
          "name": "C#3",
          "ticks": 276423,
          "time": 90.25959595625,
          "velocity": 0.7401574803149606
        },
        {
          "duration": 0.6047281583333302,
          "durationTicks": 1852,
          "midi": 49,
          "name": "C#3",
          "ticks": 278315,
          "time": 90.87738519791665,
          "velocity": 0.7559055118110236
        },
        {
          "duration": 0.3118333645833502,
          "durationTicks": 955,
          "midi": 32,
          "name": "G#1",
          "ticks": 280453,
          "time": 91.57550010208331,
          "velocity": 0.84251968503937
        },
        {
          "duration": 0.10677435624998566,
          "durationTicks": 327,
          "midi": 72,
          "name": "C5",
          "ticks": 281408,
          "time": 91.88733346666666,
          "velocity": 0.7795275590551181
        },
        {
          "duration": 0.3742000375000174,
          "durationTicks": 1146,
          "midi": 72,
          "name": "C5",
          "ticks": 281735,
          "time": 91.99410782291665,
          "velocity": 0.8110236220472441
        },
        {
          "duration": 0.37909794374999706,
          "durationTicks": 1161,
          "midi": 72,
          "name": "C5",
          "ticks": 282881,
          "time": 92.36830786041666,
          "velocity": 0.7637795275590551
        },
        {
          "duration": 0.5028517083333242,
          "durationTicks": 1540,
          "midi": 32,
          "name": "G#1",
          "ticks": 284042,
          "time": 92.74740580416666,
          "velocity": 0.8110236220472441
        },
        {
          "duration": 0.1257129270833417,
          "durationTicks": 385,
          "midi": 39,
          "name": "D#2",
          "ticks": 285589,
          "time": 93.25254320208332,
          "velocity": 0.8188976377952756
        },
        {
          "duration": 0.09208063750000406,
          "durationTicks": 282,
          "midi": 32,
          "name": "G#1",
          "ticks": 286125,
          "time": 93.42756171874998,
          "velocity": 0.8740157480314961
        },
        {
          "duration": 0.31020072916668084,
          "durationTicks": 950,
          "midi": 29,
          "name": "F1",
          "ticks": 286407,
          "time": 93.51964235624999,
          "velocity": 0.7637795275590551
        },
        {
          "duration": 0.1841612749999939,
          "durationTicks": 564,
          "midi": 41,
          "name": "F2",
          "ticks": 287357,
          "time": 93.82984308541667,
          "velocity": 0.7401574803149606
        },
        {
          "duration": 0.4450564145833198,
          "durationTicks": 1363,
          "midi": 29,
          "name": "F1",
          "ticks": 287928,
          "time": 94.01629005,
          "velocity": 0.8267716535433071
        },
        {
          "duration": 0.15836563541668625,
          "durationTicks": 485,
          "midi": 37,
          "name": "C#2",
          "ticks": 289291,
          "time": 94.46134646458331,
          "velocity": 0.8110236220472441
        },
        {
          "duration": 0.08391746041665726,
          "durationTicks": 257,
          "midi": 32,
          "name": "G#1",
          "ticks": 289927,
          "time": 94.66901768958333,
          "velocity": 0.889763779527559
        },
        {
          "duration": 0.25338501666666957,
          "durationTicks": 776,
          "midi": 29,
          "name": "F1",
          "ticks": 290184,
          "time": 94.75293514999998,
          "velocity": 0.7637795275590551
        },
        {
          "duration": 0.09338674583334239,
          "durationTicks": 286,
          "midi": 29,
          "name": "F1",
          "ticks": 290960,
          "time": 95.00632016666665,
          "velocity": 0.8031496062992126
        },
        {
          "duration": 0.12310071041667925,
          "durationTicks": 377,
          "midi": 41,
          "name": "F2",
          "ticks": 291358,
          "time": 95.13627794583331,
          "velocity": 0.7952755905511811
        },
        {
          "duration": 0.09959076041667458,
          "durationTicks": 305,
          "midi": 30,
          "name": "F#1",
          "ticks": 291841,
          "time": 95.29399052708332,
          "velocity": 0.8346456692913385
        },
        {
          "duration": 0.4097914895833128,
          "durationTicks": 1255,
          "midi": 29,
          "name": "F1",
          "ticks": 292311,
          "time": 95.44745825625,
          "velocity": 0.7559055118110236
        },
        {
          "duration": 0.2808132916666608,
          "durationTicks": 860,
          "midi": 31,
          "name": "G1",
          "ticks": 293744,
          "time": 95.91537156666666,
          "velocity": 0.8346456692913385
        },
        {
          "duration": 0.10057034166666767,
          "durationTicks": 308,
          "midi": 44,
          "name": "G#2",
          "ticks": 294795,
          "time": 96.25855153124999,
          "velocity": 0.8267716535433071
        },
        {
          "duration": 0.1299577791666593,
          "durationTicks": 398,
          "midi": 44,
          "name": "G#2",
          "ticks": 295103,
          "time": 96.35912187291666,
          "velocity": 0.7952755905511811
        },
        {
          "duration": 0.1746919895833372,
          "durationTicks": 535,
          "midi": 18,
          "name": "F#0",
          "ticks": 295843,
          "time": 96.60075191458331,
          "velocity": 0.889763779527559
        },
        {
          "duration": 0.3245679208333314,
          "durationTicks": 994,
          "midi": 18,
          "name": "F#0",
          "ticks": 296378,
          "time": 96.77544390416665,
          "velocity": 0.8031496062992126
        },
        {
          "duration": 0.2641604104166646,
          "durationTicks": 809,
          "midi": 32,
          "name": "G#1",
          "ticks": 297577,
          "time": 97.16694987708333,
          "velocity": 0.84251968503937
        },
        {
          "duration": 0.16652881250000462,
          "durationTicks": 510,
          "midi": 32,
          "name": "G#1",
          "ticks": 298386,
          "time": 97.43111028749999,
          "velocity": 0.8503937007874016
        },
        {
          "duration": 0.10350908541664694,
          "durationTicks": 317,
          "midi": 37,
          "name": "C#2",
          "ticks": 299035,
          "time": 97.64302636458333,
          "velocity": 0.8267716535433071
        },
        {
          "duration": 0.17044713749999119,
          "durationTicks": 522,
          "midi": 30,
          "name": "F#1",
          "ticks": 299530,
          "time": 97.80465727083333,
          "velocity": 0.8503937007874016
        },
        {
          "duration": 0.2507728000000071,
          "durationTicks": 768,
          "midi": 36,
          "name": "C2",
          "ticks": 300052,
          "time": 97.97510440833332,
          "velocity": 0.7795275590551181
        },
        {
          "duration": 0.14497802499998613,
          "durationTicks": 444,
          "midi": 36,
          "name": "C2",
          "ticks": 300820,
          "time": 98.22587720833333,
          "velocity": 0.7795275590551181
        },
        {
          "duration": 0.24914016458332355,
          "durationTicks": 763,
          "midi": 32,
          "name": "G#1",
          "ticks": 301416,
          "time": 98.42048735,
          "velocity": 0.8346456692913385
        },
        {
          "duration": 0.18742654583333263,
          "durationTicks": 574,
          "midi": 32,
          "name": "G#1",
          "ticks": 302179,
          "time": 98.66962751458333,
          "velocity": 0.8031496062992126
        },
        {
          "duration": 0.11232531666667,
          "durationTicks": 344,
          "midi": 37,
          "name": "C#2",
          "ticks": 302859,
          "time": 98.89166593124999,
          "velocity": 0.7401574803149606
        },
        {
          "duration": 0.23118117499998903,
          "durationTicks": 708,
          "midi": 32,
          "name": "G#1",
          "ticks": 303336,
          "time": 99.04741935,
          "velocity": 0.84251968503937
        },
        {
          "duration": 0.20538553541666715,
          "durationTicks": 629,
          "midi": 18,
          "name": "F#0",
          "ticks": 304044,
          "time": 99.27860052499999,
          "velocity": 0.7559055118110236
        },
        {
          "duration": 0.07771344583332507,
          "durationTicks": 238,
          "midi": 36,
          "name": "C2",
          "ticks": 304859,
          "time": 99.54472009791667,
          "velocity": 0.8267716535433071
        },
        {
          "duration": 0.255997233333332,
          "durationTicks": 784,
          "midi": 32,
          "name": "G#1",
          "ticks": 305262,
          "time": 99.67631051249998,
          "velocity": 0.84251968503937
        },
        {
          "duration": 0.17861031458333798,
          "durationTicks": 547,
          "midi": 32,
          "name": "G#1",
          "ticks": 306046,
          "time": 99.93230774583331,
          "velocity": 0.8188976377952756
        },
        {
          "duration": 0.1142844791666846,
          "durationTicks": 350,
          "midi": 37,
          "name": "C#2",
          "ticks": 306706,
          "time": 100.14781562083331,
          "velocity": 0.7795275590551181
        },
        {
          "duration": 0.44113808958334744,
          "durationTicks": 1351,
          "midi": 30,
          "name": "F#1",
          "ticks": 307228,
          "time": 100.31826275833332,
          "velocity": 0.7874015748031497
        },
        {
          "duration": 0.1247333458333344,
          "durationTicks": 382,
          "midi": 36,
          "name": "C2",
          "ticks": 308587,
          "time": 100.76201306458333,
          "velocity": 0.8740157480314961
        },
        {
          "duration": 0.2788541291666746,
          "durationTicks": 854,
          "midi": 31,
          "name": "G1",
          "ticks": 309128,
          "time": 100.93866421666665,
          "velocity": 0.84251968503937
        },
        {
          "duration": 0.2693848437499895,
          "durationTicks": 825,
          "midi": 32,
          "name": "G#1",
          "ticks": 310061,
          "time": 101.24331398541666,
          "velocity": 0.8267716535433071
        },
        {
          "duration": 0.14693718750000073,
          "durationTicks": 450,
          "midi": 33,
          "name": "A1",
          "ticks": 311032,
          "time": 101.56037178333332,
          "velocity": 0.8503937007874016
        },
        {
          "duration": 0.3918325000000067,
          "durationTicks": 1200,
          "midi": 34,
          "name": "A#1",
          "ticks": 311482,
          "time": 101.70730897083332,
          "velocity": 0.7952755905511811
        },
        {
          "duration": 0.26677262708332705,
          "durationTicks": 817,
          "midi": 32,
          "name": "G#1",
          "ticks": 312946,
          "time": 102.18534462083332,
          "velocity": 0.8267716535433071
        },
        {
          "duration": 0.16848797500001922,
          "durationTicks": 516,
          "midi": 32,
          "name": "G#1",
          "ticks": 313763,
          "time": 102.45211724791665,
          "velocity": 0.8031496062992126
        },
        {
          "duration": 0.08391746041667147,
          "durationTicks": 257,
          "midi": 34,
          "name": "A#1",
          "ticks": 314431,
          "time": 102.67023733958332,
          "velocity": 0.8031496062992126
        },
        {
          "duration": 0.10775393750000717,
          "durationTicks": 330,
          "midi": 32,
          "name": "G#1",
          "ticks": 314892,
          "time": 102.82076632499998,
          "velocity": 0.8582677165354331
        },
        {
          "duration": 0.4607297145833229,
          "durationTicks": 1411,
          "midi": 34,
          "name": "A#1",
          "ticks": 315222,
          "time": 102.92852026249999,
          "velocity": 0.7795275590551181
        },
        {
          "duration": 0.13126388749999762,
          "durationTicks": 402,
          "midi": 32,
          "name": "G#1",
          "ticks": 316799,
          "time": 103.44345347291666,
          "velocity": 0.84251968503937
        },
        {
          "duration": 0.09926423333332934,
          "durationTicks": 304,
          "midi": 33,
          "name": "A1",
          "ticks": 317201,
          "time": 103.57471736041666,
          "velocity": 0.6850393700787402
        },
        {
          "duration": 0.20865080624999166,
          "durationTicks": 639,
          "midi": 33,
          "name": "A1",
          "ticks": 317505,
          "time": 103.67398159374999,
          "velocity": 0.7795275590551181
        },
        {
          "duration": 0.12701903541668003,
          "durationTicks": 389,
          "midi": 34,
          "name": "A#1",
          "ticks": 318144,
          "time": 103.88263239999998,
          "velocity": 0.7401574803149606
        },
        {
          "duration": 0.43101575000000025,
          "durationTicks": 1320,
          "midi": 19,
          "name": "G0",
          "ticks": 318744,
          "time": 104.07854864999999,
          "velocity": 0.8188976377952756
        },
        {
          "duration": 0.09926423333332934,
          "durationTicks": 304,
          "midi": 39,
          "name": "D#2",
          "ticks": 320176,
          "time": 104.54613543333332,
          "velocity": 0.8110236220472441
        },
        {
          "duration": 0.4388523999999876,
          "durationTicks": 1344,
          "midi": 30,
          "name": "F#1",
          "ticks": 320665,
          "time": 104.70580717708333,
          "velocity": 0.8267716535433071
        },
        {
          "duration": 0.1227741833333198,
          "durationTicks": 376,
          "midi": 36,
          "name": "C2",
          "ticks": 322026,
          "time": 105.1502105375,
          "velocity": 0.8267716535433071
        },
        {
          "duration": 0.1965693041666725,
          "durationTicks": 602,
          "midi": 32,
          "name": "G#1",
          "ticks": 322542,
          "time": 105.31869851249999,
          "velocity": 0.8346456692913385
        },
        {
          "duration": 0.2618747208333332,
          "durationTicks": 802,
          "midi": 36,
          "name": "C2",
          "ticks": 323144,
          "time": 105.51526781666666,
          "velocity": 0.7401574803149606
        },
        {
          "duration": 0.28636425208333094,
          "durationTicks": 877,
          "midi": 35,
          "name": "B1",
          "ticks": 323953,
          "time": 105.77942822708332,
          "velocity": 0.8582677165354331
        },
        {
          "duration": 1.5732074875000137,
          "durationTicks": 4818,
          "midi": 35,
          "name": "B1",
          "ticks": 324830,
          "time": 106.06579247916665,
          "velocity": 0.6141732283464567
        },
        {
          "duration": 0.48064786666667203,
          "durationTicks": 1472,
          "midi": 53,
          "name": "F3",
          "ticks": 329648,
          "time": 107.63899996666666,
          "velocity": 0.30708661417322836
        },
        {
          "duration": 0.13485568541666737,
          "durationTicks": 413,
          "midi": 60,
          "name": "C4",
          "ticks": 331120,
          "time": 108.11964783333333,
          "velocity": 0.23622047244094488
        },
        {
          "duration": 0.16489617708332105,
          "durationTicks": 505,
          "midi": 30,
          "name": "F#1",
          "ticks": 331533,
          "time": 108.25450351875,
          "velocity": 0.2677165354330709
        },
        {
          "duration": 0.3506900874999985,
          "durationTicks": 1074,
          "midi": 60,
          "name": "C4",
          "ticks": 332038,
          "time": 108.41939969583332,
          "velocity": 0.2204724409448819
        },
        {
          "duration": 0.15216162083333984,
          "durationTicks": 466,
          "midi": 60,
          "name": "C4",
          "ticks": 333112,
          "time": 108.77008978333332,
          "velocity": 0.2204724409448819
        },
        {
          "duration": 0.1570595270833195,
          "durationTicks": 481,
          "midi": 60,
          "name": "C4",
          "ticks": 333578,
          "time": 108.92225140416666,
          "velocity": 0.36220472440944884
        },
        {
          "duration": 0.18285516666665558,
          "durationTicks": 560,
          "midi": 32,
          "name": "G#1",
          "ticks": 334067,
          "time": 109.08192314791667,
          "velocity": 0.905511811023622
        },
        {
          "duration": 0.4430972520833336,
          "durationTicks": 1357,
          "midi": 60,
          "name": "C4",
          "ticks": 334627,
          "time": 109.26477831458332,
          "velocity": 0.7559055118110236
        },
        {
          "duration": 0.3131394729166743,
          "durationTicks": 959,
          "midi": 31,
          "name": "G1",
          "ticks": 335992,
          "time": 109.71048778333332,
          "velocity": 0.7322834645669292
        },
        {
          "duration": 0.1446514979166693,
          "durationTicks": 443,
          "midi": 30,
          "name": "F#1",
          "ticks": 336959,
          "time": 110.02623947291666,
          "velocity": 0.6299212598425197
        },
        {
          "duration": 0.13387610416666007,
          "durationTicks": 410,
          "midi": 29,
          "name": "F1",
          "ticks": 337495,
          "time": 110.20125798958333,
          "velocity": 0.6692913385826772
        },
        {
          "duration": 0.10252950416665385,
          "durationTicks": 314,
          "midi": 31,
          "name": "G1",
          "ticks": 337997,
          "time": 110.36517458541667,
          "velocity": 0.8031496062992126
        },
        {
          "duration": 0.1632635416666801,
          "durationTicks": 500,
          "midi": 30,
          "name": "F#1",
          "ticks": 338319,
          "time": 110.47031630624998,
          "velocity": 0.7244094488188977
        },
        {
          "duration": 0.11591711458331133,
          "durationTicks": 355,
          "midi": 60,
          "name": "C4",
          "ticks": 338819,
          "time": 110.63357984791666,
          "velocity": 0.7952755905511811
        },
        {
          "duration": 0.21028344166667523,
          "durationTicks": 644,
          "midi": 61,
          "name": "C#4",
          "ticks": 339174,
          "time": 110.74949696249998,
          "velocity": 0.7874015748031497
        },
        {
          "duration": 0.3141190541666816,
          "durationTicks": 962,
          "midi": 31,
          "name": "G1",
          "ticks": 339825,
          "time": 110.96206609374998,
          "velocity": 0.8110236220472441
        },
        {
          "duration": 0.199508047916666,
          "durationTicks": 611,
          "midi": 61,
          "name": "C#4",
          "ticks": 340795,
          "time": 111.27879736458333,
          "velocity": 0.7637795275590551
        },
        {
          "duration": 0.3856284854166745,
          "durationTicks": 1181,
          "midi": 60,
          "name": "C4",
          "ticks": 341406,
          "time": 111.47830541249999,
          "velocity": 0.8110236220472441
        },
        {
          "duration": 0.21387523958331656,
          "durationTicks": 655,
          "midi": 60,
          "name": "C4",
          "ticks": 342587,
          "time": 111.86393389791667,
          "velocity": 0.7637795275590551
        },
        {
          "duration": 0.11787627708332593,
          "durationTicks": 361,
          "midi": 60,
          "name": "C4",
          "ticks": 343242,
          "time": 112.07780913749998,
          "velocity": 0.7952755905511811
        },
        {
          "duration": 0.08587662291667186,
          "durationTicks": 263,
          "midi": 32,
          "name": "G#1",
          "ticks": 343701,
          "time": 112.22768506874999,
          "velocity": 0.8976377952755905
        },
        {
          "duration": 0.20669164375000548,
          "durationTicks": 633,
          "midi": 60,
          "name": "C4",
          "ticks": 343964,
          "time": 112.31356169166666,
          "velocity": 0.8031496062992126
        },
        {
          "duration": 0.16620228541664517,
          "durationTicks": 509,
          "midi": 60,
          "name": "C4",
          "ticks": 344597,
          "time": 112.52025333541667,
          "velocity": 0.6220472440944882
        },
        {
          "duration": 0.09991728750001982,
          "durationTicks": 306,
          "midi": 29,
          "name": "F1",
          "ticks": 345113,
          "time": 112.68874131041665,
          "velocity": 0.6141732283464567
        },
        {
          "duration": 0.28864994166667657,
          "durationTicks": 884,
          "midi": 30,
          "name": "F#1",
          "ticks": 345623,
          "time": 112.85527012291665,
          "velocity": 0.7086614173228346
        },
        {
          "duration": 0.266119572916665,
          "durationTicks": 815,
          "midi": 29,
          "name": "F1",
          "ticks": 346515,
          "time": 113.14653228124999,
          "velocity": 0.6692913385826772
        },
        {
          "duration": 0.22889548541667182,
          "durationTicks": 701,
          "midi": 31,
          "name": "G1",
          "ticks": 347547,
          "time": 113.48350823124998,
          "velocity": 0.8661417322834646
        },
        {
          "duration": 0.29485395624999455,
          "durationTicks": 903,
          "midi": 65,
          "name": "F4",
          "ticks": 348459,
          "time": 113.78130093124999,
          "velocity": 0.7244094488188977
        },
        {
          "duration": 0.11591711458331133,
          "durationTicks": 355,
          "midi": 32,
          "name": "G#1",
          "ticks": 349454,
          "time": 114.10619537916666,
          "velocity": 0.8818897637795275
        },
        {
          "duration": 0.19787541250001084,
          "durationTicks": 606,
          "midi": 68,
          "name": "G#4",
          "ticks": 349809,
          "time": 114.22211249374998,
          "velocity": 0.7480314960629921
        },
        {
          "duration": 0.21975272708333193,
          "durationTicks": 673,
          "midi": 68,
          "name": "G#4",
          "ticks": 350415,
          "time": 114.41998790624999,
          "velocity": 0.7716535433070866
        },
        {
          "duration": 0.3797509979166733,
          "durationTicks": 1163,
          "midi": 68,
          "name": "G#4",
          "ticks": 351088,
          "time": 114.63974063333332,
          "velocity": 0.8031496062992126
        },
        {
          "duration": 0.31052725624999766,
          "durationTicks": 951,
          "midi": 68,
          "name": "G#4",
          "ticks": 352251,
          "time": 115.01949163124999,
          "velocity": 0.7165354330708661
        },
        {
          "duration": 0.14171275416667584,
          "durationTicks": 434,
          "midi": 32,
          "name": "G#1",
          "ticks": 353209,
          "time": 115.33230457708332,
          "velocity": 0.8740157480314961
        },
        {
          "duration": 0.47248468958332523,
          "durationTicks": 1447,
          "midi": 68,
          "name": "G#4",
          "ticks": 353643,
          "time": 115.47401733125,
          "velocity": 0.7401574803149606
        },
        {
          "duration": 0.1779572604166617,
          "durationTicks": 545,
          "midi": 31,
          "name": "G1",
          "ticks": 355217,
          "time": 115.98797096041666,
          "velocity": 0.8503937007874016
        },
        {
          "duration": 0.11722322291667808,
          "durationTicks": 359,
          "midi": 65,
          "name": "F4",
          "ticks": 355762,
          "time": 116.16592822083332,
          "velocity": 0.7086614173228346
        },
        {
          "duration": 0.26905831666664426,
          "durationTicks": 824,
          "midi": 65,
          "name": "F4",
          "ticks": 356121,
          "time": 116.28315144375,
          "velocity": 0.7559055118110236
        },
        {
          "duration": 0.2040794270833146,
          "durationTicks": 625,
          "midi": 33,
          "name": "A1",
          "ticks": 357152,
          "time": 116.61980086666667,
          "velocity": 0.8740157480314961
        },
        {
          "duration": 0.399342622916663,
          "durationTicks": 1223,
          "midi": 67,
          "name": "G4",
          "ticks": 357777,
          "time": 116.82388029374998,
          "velocity": 0.7716535433070866
        },
        {
          "duration": 0.31444558124999844,
          "durationTicks": 963,
          "midi": 31,
          "name": "G1",
          "ticks": 359007,
          "time": 117.22550860624999,
          "velocity": 0.8661417322834646
        },
        {
          "duration": 0.3108537833333429,
          "durationTicks": 952,
          "midi": 65,
          "name": "F4",
          "ticks": 359978,
          "time": 117.54256640416665,
          "velocity": 0.7795275590551181
        },
        {
          "duration": 0.3193434874999923,
          "durationTicks": 978,
          "midi": 65,
          "name": "F4",
          "ticks": 360930,
          "time": 117.85342018749999,
          "velocity": 0.8110236220472441
        },
        {
          "duration": 0.5227698604166733,
          "durationTicks": 1601,
          "midi": 65,
          "name": "F4",
          "ticks": 361908,
          "time": 118.17276367499998,
          "velocity": 0.7480314960629921
        },
        {
          "duration": 0.10514172083333051,
          "durationTicks": 322,
          "midi": 65,
          "name": "F4",
          "ticks": 363509,
          "time": 118.69553353541666,
          "velocity": 0.7716535433070866
        },
        {
          "duration": 0.13452915833333634,
          "durationTicks": 412,
          "midi": 63,
          "name": "D#4",
          "ticks": 363838,
          "time": 118.8029609458333,
          "velocity": 0.7637795275590551
        },
        {
          "duration": 0.11461100624998721,
          "durationTicks": 351,
          "midi": 61,
          "name": "C#4",
          "ticks": 364416,
          "time": 118.99169359999999,
          "velocity": 0.7244094488188977
        },
        {
          "duration": 0.3203230687499996,
          "durationTicks": 981,
          "midi": 60,
          "name": "C4",
          "ticks": 364774,
          "time": 119.10859029583332,
          "velocity": 0.8188976377952756
        },
        {
          "duration": 0.20440595416667406,
          "durationTicks": 626,
          "midi": 60,
          "name": "C4",
          "ticks": 365755,
          "time": 119.42891336458332,
          "velocity": 0.8031496062992126
        },
        {
          "duration": 0.0966520166666669,
          "durationTicks": 296,
          "midi": 60,
          "name": "C4",
          "ticks": 366381,
          "time": 119.63331931875,
          "velocity": 0.8110236220472441
        },
        {
          "duration": 0.1547738375000023,
          "durationTicks": 474,
          "midi": 32,
          "name": "G#1",
          "ticks": 366762,
          "time": 119.75772613749999,
          "velocity": 0.889763779527559
        },
        {
          "duration": 0.30530282291667277,
          "durationTicks": 935,
          "midi": 60,
          "name": "C4",
          "ticks": 367236,
          "time": 119.91249997499999,
          "velocity": 0.7795275590551181
        },
        {
          "duration": 0.1381209562500061,
          "durationTicks": 423,
          "midi": 29,
          "name": "F1",
          "ticks": 368178,
          "time": 120.22008848749999,
          "velocity": 0.7322834645669292
        },
        {
          "duration": 0.3131394729166459,
          "durationTicks": 959,
          "midi": 31,
          "name": "G1",
          "ticks": 368609,
          "time": 120.36082166041666,
          "velocity": 0.7559055118110236
        },
        {
          "duration": 0.280486764583344,
          "durationTicks": 859,
          "midi": 58,
          "name": "A#3",
          "ticks": 369654,
          "time": 120.70204246249997,
          "velocity": 0.7244094488188977
        },
        {
          "duration": 0.07575428333333889,
          "durationTicks": 232,
          "midi": 32,
          "name": "G#1",
          "ticks": 370625,
          "time": 121.01910026041665,
          "velocity": 0.905511811023622
        },
        {
          "duration": 0.1547738375000023,
          "durationTicks": 474,
          "midi": 65,
          "name": "F4",
          "ticks": 370857,
          "time": 121.09485454374999,
          "velocity": 0.7716535433070866
        },
        {
          "duration": 0.2017937374999832,
          "durationTicks": 618,
          "midi": 63,
          "name": "D#4",
          "ticks": 371331,
          "time": 121.24962838124999,
          "velocity": 0.7086614173228346
        },
        {
          "duration": 0.14301886249999995,
          "durationTicks": 438,
          "midi": 61,
          "name": "C#4",
          "ticks": 371956,
          "time": 121.45370780833332,
          "velocity": 0.7952755905511811
        },
        {
          "duration": 0.32620055624998656,
          "durationTicks": 999,
          "midi": 61,
          "name": "C#4",
          "ticks": 372394,
          "time": 121.59672667083332,
          "velocity": 0.8267716535433071
        },
        {
          "duration": 0.19101834375000237,
          "durationTicks": 585,
          "midi": 60,
          "name": "C4",
          "ticks": 373400,
          "time": 121.92521291666665,
          "velocity": 0.8110236220472441
        },
        {
          "duration": 0.1142844791666704,
          "durationTicks": 350,
          "midi": 60,
          "name": "C4",
          "ticks": 373985,
          "time": 122.11623126041665,
          "velocity": 0.8110236220472441
        },
        {
          "duration": 0.17371240833334411,
          "durationTicks": 532,
          "midi": 32,
          "name": "G#1",
          "ticks": 374343,
          "time": 122.23312795624999,
          "velocity": 0.889763779527559
        },
        {
          "duration": 0.1404066458333233,
          "durationTicks": 430,
          "midi": 60,
          "name": "C4",
          "ticks": 374875,
          "time": 122.40684036458333,
          "velocity": 0.8188976377952756
        },
        {
          "duration": 0.19722235833332036,
          "durationTicks": 604,
          "midi": 60,
          "name": "C4",
          "ticks": 375305,
          "time": 122.54724701041665,
          "velocity": 0.8110236220472441
        },
        {
          "duration": 0.12081502083334783,
          "durationTicks": 370,
          "midi": 48,
          "name": "C3",
          "ticks": 375909,
          "time": 122.74446936874998,
          "velocity": 0.8267716535433071
        },
        {
          "duration": 0.128978197916652,
          "durationTicks": 395,
          "midi": 32,
          "name": "G#1",
          "ticks": 376279,
          "time": 122.86528438958332,
          "velocity": 0.8818897637795275
        },
        {
          "duration": 0.2932213208333536,
          "durationTicks": 898,
          "midi": 29,
          "name": "F1",
          "ticks": 376674,
          "time": 122.99426258749997,
          "velocity": 0.6929133858267716
        },
        {
          "duration": 0.17077366458332222,
          "durationTicks": 523,
          "midi": 60,
          "name": "C4",
          "ticks": 377572,
          "time": 123.28748390833333,
          "velocity": 0.7795275590551181
        },
        {
          "duration": 0.15967174374998194,
          "durationTicks": 489,
          "midi": 33,
          "name": "A1",
          "ticks": 378261,
          "time": 123.51246106875,
          "velocity": 0.8740157480314961
        },
        {
          "duration": 0.08293787916667839,
          "durationTicks": 254,
          "midi": 65,
          "name": "F4",
          "ticks": 378896,
          "time": 123.71980576666665,
          "velocity": 0.7637795275590551
        },
        {
          "duration": 0.2288954854166576,
          "durationTicks": 701,
          "midi": 65,
          "name": "F4",
          "ticks": 379150,
          "time": 123.80274364583333,
          "velocity": 0.8031496062992126
        },
        {
          "duration": 0.5724019770833308,
          "durationTicks": 1753,
          "midi": 68,
          "name": "G#4",
          "ticks": 380229,
          "time": 124.15506636874998,
          "velocity": 0.8267716535433071
        },
        {
          "duration": 0.1714267187500127,
          "durationTicks": 525,
          "midi": 32,
          "name": "G#1",
          "ticks": 382115,
          "time": 124.77089644791664,
          "velocity": 0.8976377952755905
        },
        {
          "duration": 0.11689669583333284,
          "durationTicks": 358,
          "midi": 68,
          "name": "G#4",
          "ticks": 382640,
          "time": 124.94232316666665,
          "velocity": 0.7637795275590551
        },
        {
          "duration": 0.16685533958333565,
          "durationTicks": 511,
          "midi": 68,
          "name": "G#4",
          "ticks": 382998,
          "time": 125.05921986249999,
          "velocity": 0.7716535433070866
        },
        {
          "duration": 0.11493753333333245,
          "durationTicks": 352,
          "midi": 34,
          "name": "A#1",
          "ticks": 383602,
          "time": 125.25644222083332,
          "velocity": 0.8110236220472441
        },
        {
          "duration": 0.07836650000000134,
          "durationTicks": 240,
          "midi": 71,
          "name": "B4",
          "ticks": 384292,
          "time": 125.48174590833332,
          "velocity": 0.8110236220472441
        },
        {
          "duration": 0.43232185833332437,
          "durationTicks": 1324,
          "midi": 68,
          "name": "G#4",
          "ticks": 384532,
          "time": 125.56011240833332,
          "velocity": 0.7480314960629921
        },
        {
          "duration": 0.10122339583332973,
          "durationTicks": 310,
          "midi": 31,
          "name": "G1",
          "ticks": 385969,
          "time": 126.02933182708333,
          "velocity": 0.8740157480314961
        },
        {
          "duration": 0.1933040333333338,
          "durationTicks": 592,
          "midi": 65,
          "name": "F4",
          "ticks": 386550,
          "time": 126.21904406249999,
          "velocity": 0.7322834645669292
        },
        {
          "duration": 0.21812009166666257,
          "durationTicks": 668,
          "midi": 65,
          "name": "F4",
          "ticks": 387142,
          "time": 126.41234809583332,
          "velocity": 0.7637795275590551
        },
        {
          "duration": 0.37681225416667985,
          "durationTicks": 1154,
          "midi": 67,
          "name": "G4",
          "ticks": 387817,
          "time": 126.63275387708332,
          "velocity": 0.8503937007874016
        },
        {
          "duration": 0.1570595270833195,
          "durationTicks": 481,
          "midi": 67,
          "name": "G4",
          "ticks": 388971,
          "time": 127.00956613125,
          "velocity": 0.7795275590551181
        },
        {
          "duration": 0.08848883958333431,
          "durationTicks": 271,
          "midi": 67,
          "name": "G4",
          "ticks": 389452,
          "time": 127.16662565833332,
          "velocity": 0.7637795275590551
        },
        {
          "duration": 0.6096260645833382,
          "durationTicks": 1867,
          "midi": 31,
          "name": "G1",
          "ticks": 389731,
          "time": 127.25772671458331,
          "velocity": 0.8031496062992126
        },
        {
          "duration": 0.3484043979166671,
          "durationTicks": 1067,
          "midi": 32,
          "name": "G#1",
          "ticks": 391728,
          "time": 127.90980129999998,
          "velocity": 0.8346456692913385
        },
        {
          "duration": 0.2109364958333515,
          "durationTicks": 646,
          "midi": 36,
          "name": "C2",
          "ticks": 392795,
          "time": 128.25820569791665,
          "velocity": 0.7874015748031497
        },
        {
          "duration": 0.2089773333333369,
          "durationTicks": 640,
          "midi": 32,
          "name": "G#1",
          "ticks": 393541,
          "time": 128.5017949020833,
          "velocity": 0.7874015748031497
        },
        {
          "duration": 0.1599982708333414,
          "durationTicks": 490,
          "midi": 65,
          "name": "F4",
          "ticks": 394181,
          "time": 128.71077223541664,
          "velocity": 0.7559055118110236
        },
        {
          "duration": 0.11395795208335358,
          "durationTicks": 349,
          "midi": 67,
          "name": "G4",
          "ticks": 394671,
          "time": 128.87077050624998,
          "velocity": 0.7637795275590551
        },
        {
          "duration": 0.19036528958335452,
          "durationTicks": 583,
          "midi": 65,
          "name": "F4",
          "ticks": 395303,
          "time": 129.07713562291664,
          "velocity": 0.8267716535433071
        },
        {
          "duration": 0.27493580416668806,
          "durationTicks": 842,
          "midi": 63,
          "name": "D#4",
          "ticks": 396083,
          "time": 129.33182674791664,
          "velocity": 0.7716535433070866
        },
        {
          "duration": 0.15771258124999576,
          "durationTicks": 483,
          "midi": 31,
          "name": "G1",
          "ticks": 396933,
          "time": 129.60937476875,
          "velocity": 0.8818897637795275
        },
        {
          "duration": 0.3098742020833356,
          "durationTicks": 949,
          "midi": 61,
          "name": "C#4",
          "ticks": 397416,
          "time": 129.76708735,
          "velocity": 0.8031496062992126
        },
        {
          "duration": 0.14824329583333906,
          "durationTicks": 454,
          "midi": 34,
          "name": "A#1",
          "ticks": 398365,
          "time": 130.07696155208333,
          "velocity": 0.7952755905511811
        },
        {
          "duration": 0.17926336874998583,
          "durationTicks": 549,
          "midi": 34,
          "name": "A#1",
          "ticks": 398819,
          "time": 130.22520484791667,
          "velocity": 0.8582677165354331
        },
        {
          "duration": 0.12375376458331289,
          "durationTicks": 379,
          "midi": 68,
          "name": "G#4",
          "ticks": 399713,
          "time": 130.51712006041666,
          "velocity": 0.7795275590551181
        },
        {
          "duration": 0.12767208958331366,
          "durationTicks": 391,
          "midi": 56,
          "name": "G#3",
          "ticks": 400181,
          "time": 130.66993473541666,
          "velocity": 0.8346456692913385
        },
        {
          "duration": 0.11787627708332593,
          "durationTicks": 361,
          "midi": 34,
          "name": "A#1",
          "ticks": 400572,
          "time": 130.79760682499997,
          "velocity": 0.8661417322834646
        },
        {
          "duration": 0.28864994166667657,
          "durationTicks": 884,
          "midi": 31,
          "name": "G1",
          "ticks": 401097,
          "time": 130.96903354375,
          "velocity": 0.7559055118110236
        },
        {
          "duration": 0.4398319812499949,
          "durationTicks": 1347,
          "midi": 65,
          "name": "F4",
          "ticks": 401989,
          "time": 131.2602957020833,
          "velocity": 0.7637795275590551
        },
        {
          "duration": 0.1965693041666725,
          "durationTicks": 602,
          "midi": 65,
          "name": "F4",
          "ticks": 403336,
          "time": 131.7001276833333,
          "velocity": 0.8110236220472441
        },
        {
          "duration": 0.2524054354166765,
          "durationTicks": 773,
          "midi": 63,
          "name": "D#4",
          "ticks": 404099,
          "time": 131.94926784791664,
          "velocity": 0.8188976377952756
        },
        {
          "duration": 0.12636598124998955,
          "durationTicks": 387,
          "midi": 31,
          "name": "G1",
          "ticks": 404872,
          "time": 132.20167328333332,
          "velocity": 0.8818897637795275
        },
        {
          "duration": 0.14008011875000648,
          "durationTicks": 429,
          "midi": 61,
          "name": "C#4",
          "ticks": 405453,
          "time": 132.39138551874998,
          "velocity": 0.7637795275590551
        },
        {
          "duration": 0.2742827499999976,
          "durationTicks": 840,
          "midi": 68,
          "name": "G#4",
          "ticks": 405956,
          "time": 132.55562864166666,
          "velocity": 0.7952755905511811
        },
        {
          "duration": 0.29909880833332636,
          "durationTicks": 916,
          "midi": 32,
          "name": "G#1",
          "ticks": 406796,
          "time": 132.82991139166666,
          "velocity": 0.8503937007874016
        },
        {
          "duration": 0.25011974583333085,
          "durationTicks": 766,
          "midi": 70,
          "name": "A#4",
          "ticks": 408014,
          "time": 133.22762137916666,
          "velocity": 0.7637795275590551
        },
        {
          "duration": 0.32064959583334485,
          "durationTicks": 982,
          "midi": 32,
          "name": "G#1",
          "ticks": 408788,
          "time": 133.48035334166664,
          "velocity": 0.8661417322834646
        },
        {
          "duration": 0.27069095208335625,
          "durationTicks": 829,
          "midi": 67,
          "name": "G4",
          "ticks": 409885,
          "time": 133.8385535520833,
          "velocity": 0.7952755905511811
        },
        {
          "duration": 0.33240457083331876,
          "durationTicks": 1018,
          "midi": 30,
          "name": "F#1",
          "ticks": 410714,
          "time": 134.10924450416667,
          "velocity": 0.84251968503937
        },
        {
          "duration": 0.16391659583331375,
          "durationTicks": 502,
          "midi": 67,
          "name": "G4",
          "ticks": 411868,
          "time": 134.48605675833332,
          "velocity": 0.7322834645669292
        },
        {
          "duration": 0.1172232229166923,
          "durationTicks": 359,
          "midi": 67,
          "name": "G4",
          "ticks": 412370,
          "time": 134.64997335416663,
          "velocity": 0.7401574803149606
        },
        {
          "duration": 0.26579304583333396,
          "durationTicks": 814,
          "midi": 31,
          "name": "G1",
          "ticks": 412824,
          "time": 134.79821664999997,
          "velocity": 0.8582677165354331
        },
        {
          "duration": 0.17501851666665402,
          "durationTicks": 536,
          "midi": 29,
          "name": "F1",
          "ticks": 413774,
          "time": 135.10841737916667,
          "velocity": 0.8582677165354331
        },
        {
          "duration": 0.1270190354166516,
          "durationTicks": 389,
          "midi": 43,
          "name": "G2",
          "ticks": 414310,
          "time": 135.28343589583332,
          "velocity": 0.8188976377952756
        },
        {
          "duration": 0.6664417770833495,
          "durationTicks": 2041,
          "midi": 31,
          "name": "G1",
          "ticks": 414707,
          "time": 135.41306714791665,
          "velocity": 0.8267716535433071
        },
        {
          "duration": 0.3774653083333135,
          "durationTicks": 1156,
          "midi": 31,
          "name": "G1",
          "ticks": 416748,
          "time": 136.079508925,
          "velocity": 0.7795275590551181
        },
        {
          "duration": 0.11395795208332515,
          "durationTicks": 349,
          "midi": 31,
          "name": "G1",
          "ticks": 417904,
          "time": 136.4569742333333,
          "velocity": 0.8661417322834646
        },
        {
          "duration": 0.05681571249996864,
          "durationTicks": 174,
          "midi": 68,
          "name": "G#4",
          "ticks": 418327,
          "time": 136.59509518958333,
          "velocity": 0.8031496062992126
        },
        {
          "duration": 0.1962427770833699,
          "durationTicks": 601,
          "midi": 32,
          "name": "G#1",
          "ticks": 418501,
          "time": 136.6519109020833,
          "velocity": 0.8818897637795275
        },
        {
          "duration": 0.32522097499997926,
          "durationTicks": 996,
          "midi": 68,
          "name": "G#4",
          "ticks": 419102,
          "time": 136.84815367916667,
          "velocity": 0.7480314960629921
        },
        {
          "duration": 0.14824329583333906,
          "durationTicks": 454,
          "midi": 68,
          "name": "G#4",
          "ticks": 420098,
          "time": 137.17337465416665,
          "velocity": 0.7480314960629921
        },
        {
          "duration": 0.2608951395833401,
          "durationTicks": 799,
          "midi": 32,
          "name": "G#1",
          "ticks": 420559,
          "time": 137.3239036395833,
          "velocity": 0.8818897637795275
        },
        {
          "duration": 0.35069008750002695,
          "durationTicks": 1074,
          "midi": 43,
          "name": "G2",
          "ticks": 421358,
          "time": 137.58479877916665,
          "velocity": 0.8267716535433071
        },
        {
          "duration": 0.23575255416665186,
          "durationTicks": 722,
          "midi": 31,
          "name": "G1",
          "ticks": 422564,
          "time": 137.97859044166665,
          "velocity": 0.8818897637795275
        },
        {
          "duration": 0.2285689583333408,
          "durationTicks": 700,
          "midi": 65,
          "name": "F4",
          "ticks": 423627,
          "time": 138.32568873124998,
          "velocity": 0.8188976377952756
        },
        {
          "duration": 0.09175411041667303,
          "durationTicks": 281,
          "midi": 32,
          "name": "G#1",
          "ticks": 424459,
          "time": 138.5973592645833,
          "velocity": 0.889763779527559
        },
        {
          "duration": 0.8186033979166893,
          "durationTicks": 2507,
          "midi": 32,
          "name": "G#1",
          "ticks": 424740,
          "time": 138.68911337499998,
          "velocity": 0.7874015748031497
        },
        {
          "duration": 0.2507727999999929,
          "durationTicks": 768,
          "midi": 32,
          "name": "G#1",
          "ticks": 427247,
          "time": 139.50771677291667,
          "velocity": 0.7637795275590551
        },
        {
          "duration": 0.18383474791664867,
          "durationTicks": 563,
          "midi": 31,
          "name": "G1",
          "ticks": 428015,
          "time": 139.75848957291666,
          "velocity": 0.8503937007874016
        },
        {
          "duration": 0.38497543125001243,
          "durationTicks": 1179,
          "midi": 61,
          "name": "C#4",
          "ticks": 428578,
          "time": 139.9423243208333,
          "velocity": 0.7795275590551181
        },
        {
          "duration": 0.07901955416667761,
          "durationTicks": 242,
          "midi": 68,
          "name": "G#4",
          "ticks": 429849,
          "time": 140.35734024374997,
          "velocity": 0.7952755905511811
        },
        {
          "duration": 0.2331403374999752,
          "durationTicks": 714,
          "midi": 32,
          "name": "G#1",
          "ticks": 430098,
          "time": 140.4386454875,
          "velocity": 0.8818897637795275
        },
        {
          "duration": 0.07510122916667683,
          "durationTicks": 230,
          "midi": 67,
          "name": "G4",
          "ticks": 430812,
          "time": 140.67178582499997,
          "velocity": 0.7322834645669292
        },
        {
          "duration": 0.22824243124998134,
          "durationTicks": 699,
          "midi": 65,
          "name": "F4",
          "ticks": 431298,
          "time": 140.8304779875,
          "velocity": 0.7480314960629921
        },
        {
          "duration": 0.25730334166667035,
          "durationTicks": 788,
          "midi": 32,
          "name": "G#1",
          "ticks": 432005,
          "time": 141.06133263541665,
          "velocity": 0.7952755905511811
        },
        {
          "duration": 0.9554182458333287,
          "durationTicks": 2926,
          "midi": 29,
          "name": "F1",
          "ticks": 432793,
          "time": 141.31863597708332,
          "velocity": 0.8031496062992126
        },
        {
          "duration": 0.18481432916667018,
          "durationTicks": 566,
          "midi": 33,
          "name": "A1",
          "ticks": 435904,
          "time": 142.3344617333333,
          "velocity": 0.889763779527559
        },
        {
          "duration": 0.10514172083333051,
          "durationTicks": 322,
          "midi": 62,
          "name": "D4",
          "ticks": 436470,
          "time": 142.51927606249998,
          "velocity": 0.7637795275590551
        },
        {
          "duration": 0.09730507083332895,
          "durationTicks": 298,
          "midi": 44,
          "name": "G#2",
          "ticks": 436931,
          "time": 142.66980504791664,
          "velocity": 0.84251968503937
        },
        {
          "duration": 0.1662022854166878,
          "durationTicks": 509,
          "midi": 44,
          "name": "G#2",
          "ticks": 437229,
          "time": 142.76711011874997,
          "velocity": 0.8110236220472441
        },
        {
          "duration": 0.20016110208334226,
          "durationTicks": 613,
          "midi": 32,
          "name": "G#1",
          "ticks": 437746,
          "time": 142.9359246208333,
          "velocity": 0.8976377952755905
        },
        {
          "duration": 0.42677089791666845,
          "durationTicks": 1307,
          "midi": 32,
          "name": "G#1",
          "ticks": 438359,
          "time": 143.13608572291665,
          "velocity": 0.7716535433070866
        },
        {
          "duration": 0.2517523812500144,
          "durationTicks": 771,
          "midi": 32,
          "name": "G#1",
          "ticks": 439666,
          "time": 143.56285662083332,
          "velocity": 0.84251968503937
        },
        {
          "duration": 0.34775134374999084,
          "durationTicks": 1065,
          "midi": 32,
          "name": "G#1",
          "ticks": 440437,
          "time": 143.81460900208333,
          "velocity": 0.7559055118110236
        },
        {
          "duration": 0.6272585270833417,
          "durationTicks": 1921,
          "midi": 31,
          "name": "G1",
          "ticks": 441502,
          "time": 144.16236034583332,
          "velocity": 0.7716535433070866
        },
        {
          "duration": 0.13616179374997728,
          "durationTicks": 417,
          "midi": 33,
          "name": "A1",
          "ticks": 443573,
          "time": 144.83859793541666,
          "velocity": 0.889763779527559
        },
        {
          "duration": 0.18873265416667095,
          "durationTicks": 578,
          "midi": 67,
          "name": "G4",
          "ticks": 443990,
          "time": 144.97475972916664,
          "velocity": 0.7795275590551181
        },
        {
          "duration": 0.10840699166666923,
          "durationTicks": 332,
          "midi": 67,
          "name": "G4",
          "ticks": 444568,
          "time": 145.1634923833333,
          "velocity": 0.7874015748031497
        },
        {
          "duration": 0.14367191666667622,
          "durationTicks": 440,
          "midi": 36,
          "name": "C2",
          "ticks": 444900,
          "time": 145.27189937499998,
          "velocity": 0.84251968503937
        },
        {
          "duration": 0.4604031874999919,
          "durationTicks": 1410,
          "midi": 31,
          "name": "G1",
          "ticks": 445340,
          "time": 145.41557129166665,
          "velocity": 0.84251968503937
        },
        {
          "duration": 0.09501938124998333,
          "durationTicks": 291,
          "midi": 34,
          "name": "A#1",
          "ticks": 446905,
          "time": 145.92658617708332,
          "velocity": 0.8188976377952756
        },
        {
          "duration": 0.28440508958334476,
          "durationTicks": 871,
          "midi": 31,
          "name": "G1",
          "ticks": 447339,
          "time": 146.06829893124998,
          "velocity": 0.7795275590551181
        },
        {
          "duration": 0.2847316166666758,
          "durationTicks": 872,
          "midi": 67,
          "name": "G4",
          "ticks": 448288,
          "time": 146.37817313333332,
          "velocity": 0.84251968503937
        },
        {
          "duration": 0.5959119270833355,
          "durationTicks": 1825,
          "midi": 32,
          "name": "G#1",
          "ticks": 449160,
          "time": 146.66290475,
          "velocity": 0.8031496062992126
        },
        {
          "duration": 0.29909880833332636,
          "durationTicks": 916,
          "midi": 32,
          "name": "G#1",
          "ticks": 450985,
          "time": 147.25881667708333,
          "velocity": 0.84251968503937
        },
        {
          "duration": 0.08522356874996717,
          "durationTicks": 261,
          "midi": 67,
          "name": "G4",
          "ticks": 452144,
          "time": 147.63726156666667,
          "velocity": 0.8110236220472441
        },
        {
          "duration": 0.21256913125000665,
          "durationTicks": 651,
          "midi": 67,
          "name": "G4",
          "ticks": 452405,
          "time": 147.72248513541663,
          "velocity": 0.7874015748031497
        },
        {
          "duration": 0.31248641875001226,
          "durationTicks": 957,
          "midi": 67,
          "name": "G4",
          "ticks": 453056,
          "time": 147.93505426666664,
          "velocity": 0.8031496062992126
        },
        {
          "duration": 0.2912621583333248,
          "durationTicks": 892,
          "midi": 68,
          "name": "G#4",
          "ticks": 454013,
          "time": 148.24754068541665,
          "velocity": 0.7322834645669292
        },
        {
          "duration": 0.3245679208333456,
          "durationTicks": 994,
          "midi": 70,
          "name": "A#4",
          "ticks": 454905,
          "time": 148.53880284374998,
          "velocity": 0.7165354330708661
        },
        {
          "duration": 0.12799861666667312,
          "durationTicks": 392,
          "midi": 72,
          "name": "C5",
          "ticks": 455899,
          "time": 148.86337076458332,
          "velocity": 0.7480314960629921
        },
        {
          "duration": 0.7186861104166553,
          "durationTicks": 2201,
          "midi": 68,
          "name": "G#4",
          "ticks": 456291,
          "time": 148.99136938125,
          "velocity": 0.6850393700787402
        },
        {
          "duration": 0.12669250833332057,
          "durationTicks": 388,
          "midi": 49,
          "name": "C#3",
          "ticks": 458492,
          "time": 149.71005549166665,
          "velocity": 0.7401574803149606
        },
        {
          "duration": 0.36113895416667674,
          "durationTicks": 1106,
          "midi": 68,
          "name": "G#4",
          "ticks": 458880,
          "time": 149.83674799999997,
          "velocity": 0.6771653543307087
        },
        {
          "duration": 0.12244765625001719,
          "durationTicks": 375,
          "midi": 56,
          "name": "G#3",
          "ticks": 459986,
          "time": 150.19788695416665,
          "velocity": 0.6299212598425197
        },
        {
          "duration": 0.1270190354166516,
          "durationTicks": 389,
          "midi": 68,
          "name": "G#4",
          "ticks": 460361,
          "time": 150.32033461041667,
          "velocity": 0.6220472440944882
        },
        {
          "duration": 0.2830989812499922,
          "durationTicks": 867,
          "midi": 67,
          "name": "G4",
          "ticks": 460911,
          "time": 150.49992450624998,
          "velocity": 0.6929133858267716
        },
        {
          "duration": 0.31542516249999153,
          "durationTicks": 966,
          "midi": 48,
          "name": "C3",
          "ticks": 461778,
          "time": 150.78302348749997,
          "velocity": 0.7559055118110236
        },
        {
          "duration": 0.29158868541668426,
          "durationTicks": 893,
          "midi": 67,
          "name": "G4",
          "ticks": 462744,
          "time": 151.09844864999997,
          "velocity": 0.6614173228346457
        },
        {
          "duration": 0.1599982708333414,
          "durationTicks": 490,
          "midi": 55,
          "name": "G3",
          "ticks": 463637,
          "time": 151.39003733541665,
          "velocity": 0.7401574803149606
        },
        {
          "duration": 0.15542689166665014,
          "durationTicks": 476,
          "midi": 53,
          "name": "F3",
          "ticks": 464127,
          "time": 151.55003560625,
          "velocity": 0.7480314960629921
        },
        {
          "duration": 0.6491358416666628,
          "durationTicks": 1988,
          "midi": 53,
          "name": "F3",
          "ticks": 464603,
          "time": 151.70546249791664,
          "velocity": 0.7637795275590551
        },
        {
          "duration": 0.3115068375000192,
          "durationTicks": 954,
          "midi": 65,
          "name": "F4",
          "ticks": 466591,
          "time": 152.3545983395833,
          "velocity": 0.7716535433070866
        },
        {
          "duration": 0.3039967145833202,
          "durationTicks": 931,
          "midi": 52,
          "name": "E3",
          "ticks": 467545,
          "time": 152.66610517708332,
          "velocity": 0.7322834645669292
        },
        {
          "duration": 0.6164831333333325,
          "durationTicks": 1888,
          "midi": 29,
          "name": "F1",
          "ticks": 468476,
          "time": 152.97010189166664,
          "velocity": 0.5590551181102362
        },
        {
          "duration": 0.26481346458331245,
          "durationTicks": 811,
          "midi": 67,
          "name": "G4",
          "ticks": 470444,
          "time": 153.61270719166666,
          "velocity": 0.7007874015748031
        },
        {
          "duration": 0.22987506666669333,
          "durationTicks": 704,
          "midi": 55,
          "name": "G3",
          "ticks": 471255,
          "time": 153.87752065624997,
          "velocity": 0.6929133858267716
        },
        {
          "duration": 0.11395795208332515,
          "durationTicks": 349,
          "midi": 57,
          "name": "A3",
          "ticks": 471959,
          "time": 154.10739572291666,
          "velocity": 0.6377952755905512
        },
        {
          "duration": 0.26775220833332014,
          "durationTicks": 820,
          "midi": 49,
          "name": "C#3",
          "ticks": 472308,
          "time": 154.221353675,
          "velocity": 0.6850393700787402
        },
        {
          "duration": 0.3833427958333573,
          "durationTicks": 1174,
          "midi": 68,
          "name": "G#4",
          "ticks": 473128,
          "time": 154.4891058833333,
          "velocity": 0.7086614173228346
        },
        {
          "duration": 0.28211939999999913,
          "durationTicks": 864,
          "midi": 68,
          "name": "G#4",
          "ticks": 474302,
          "time": 154.87244867916667,
          "velocity": 0.7165354330708661
        },
        {
          "duration": 0.14693718749998652,
          "durationTicks": 450,
          "midi": 70,
          "name": "A#4",
          "ticks": 475166,
          "time": 155.15456807916667,
          "velocity": 0.7401574803149606
        },
        {
          "duration": 0.16032479791667242,
          "durationTicks": 491,
          "midi": 56,
          "name": "G#3",
          "ticks": 475616,
          "time": 155.30150526666665,
          "velocity": 0.6850393700787402
        },
        {
          "duration": 0.470199000000008,
          "durationTicks": 1440,
          "midi": 48,
          "name": "C3",
          "ticks": 476212,
          "time": 155.4961154083333,
          "velocity": 0.7559055118110236
        },
        {
          "duration": 0.28636425208333094,
          "durationTicks": 877,
          "midi": 67,
          "name": "G4",
          "ticks": 477652,
          "time": 155.96631440833332,
          "velocity": 0.7322834645669292
        },
        {
          "duration": 0.12146807499999568,
          "durationTicks": 372,
          "midi": 70,
          "name": "A#4",
          "ticks": 478529,
          "time": 156.25267866041665,
          "velocity": 0.6692913385826772
        },
        {
          "duration": 0.11134573541667692,
          "durationTicks": 341,
          "midi": 68,
          "name": "G#4",
          "ticks": 479209,
          "time": 156.4747170770833,
          "velocity": 0.6141732283464567
        },
        {
          "duration": 0.11232531666667,
          "durationTicks": 344,
          "midi": 67,
          "name": "G4",
          "ticks": 479557,
          "time": 156.5883485020833,
          "velocity": 0.6692913385826772
        },
        {
          "duration": 0.10481519374999948,
          "durationTicks": 321,
          "midi": 48,
          "name": "C3",
          "ticks": 480019,
          "time": 156.73920401458332,
          "velocity": 0.8031496062992126
        },
        {
          "duration": 0.16195743333332757,
          "durationTicks": 496,
          "midi": 46,
          "name": "A#2",
          "ticks": 480340,
          "time": 156.84401920833332,
          "velocity": 0.7952755905511811
        },
        {
          "duration": 0.3379555312500031,
          "durationTicks": 1035,
          "midi": 53,
          "name": "F3",
          "ticks": 480836,
          "time": 157.00597664166665,
          "velocity": 0.7637795275590551
        },
        {
          "duration": 0.5175454270833484,
          "durationTicks": 1585,
          "midi": 65,
          "name": "F4",
          "ticks": 481871,
          "time": 157.34393217291665,
          "velocity": 0.7007874015748031
        },
        {
          "duration": 0.09403980000001866,
          "durationTicks": 288,
          "midi": 49,
          "name": "C#3",
          "ticks": 484014,
          "time": 158.04367971249997,
          "velocity": 0.5118110236220472
        },
        {
          "duration": 0.31248641874998384,
          "durationTicks": 957,
          "midi": 49,
          "name": "C#3",
          "ticks": 484302,
          "time": 158.13771951249998,
          "velocity": 0.4881889763779528
        },
        {
          "duration": 0.19885499374998972,
          "durationTicks": 609,
          "midi": 65,
          "name": "F4",
          "ticks": 485833,
          "time": 158.63763247708332,
          "velocity": 0.7165354330708661
        },
        {
          "duration": 0.41828119375000483,
          "durationTicks": 1281,
          "midi": 72,
          "name": "C5",
          "ticks": 486448,
          "time": 158.83844663333332,
          "velocity": 0.7086614173228346
        },
        {
          "duration": 0.11069268125001486,
          "durationTicks": 339,
          "midi": 73,
          "name": "C#5",
          "ticks": 487735,
          "time": 159.2586869895833,
          "velocity": 0.7480314960629921
        },
        {
          "duration": 0.1342026312499911,
          "durationTicks": 411,
          "midi": 72,
          "name": "C5",
          "ticks": 488074,
          "time": 159.36937967083333,
          "velocity": 0.7244094488188977
        },
        {
          "duration": 0.10024381458333664,
          "durationTicks": 307,
          "midi": 58,
          "name": "A#3",
          "ticks": 488485,
          "time": 159.50358230208332,
          "velocity": 0.7244094488188977
        },
        {
          "duration": 0.133223049999998,
          "durationTicks": 408,
          "midi": 70,
          "name": "A#4",
          "ticks": 488792,
          "time": 159.60382611666665,
          "velocity": 0.7244094488188977
        },
        {
          "duration": 0.3954242979166622,
          "durationTicks": 1211,
          "midi": 70,
          "name": "A#4",
          "ticks": 489200,
          "time": 159.73704916666665,
          "velocity": 0.6299212598425197
        },
        {
          "duration": 0.16685533958332144,
          "durationTicks": 511,
          "midi": 72,
          "name": "C5",
          "ticks": 490418,
          "time": 160.13475915416666,
          "velocity": 0.6850393700787402
        },
        {
          "duration": 0.1903652895833261,
          "durationTicks": 583,
          "midi": 49,
          "name": "C#3",
          "ticks": 490929,
          "time": 160.30161449374998,
          "velocity": 0.7244094488188977
        },
        {
          "duration": 0.5266881854166741,
          "durationTicks": 1613,
          "midi": 44,
          "name": "G#2",
          "ticks": 491512,
          "time": 160.4919797833333,
          "velocity": 0.7480314960629921
        },
        {
          "duration": 0.11852933124998799,
          "durationTicks": 363,
          "midi": 67,
          "name": "G4",
          "ticks": 493125,
          "time": 161.01866796874998,
          "velocity": 0.5669291338582677
        },
        {
          "duration": 0.2961600645833471,
          "durationTicks": 907,
          "midi": 67,
          "name": "G4",
          "ticks": 493488,
          "time": 161.13719729999997,
          "velocity": 0.47244094488188976
        },
        {
          "duration": 0.17632462499997814,
          "durationTicks": 540,
          "midi": 48,
          "name": "C3",
          "ticks": 494395,
          "time": 161.43335736458332,
          "velocity": 0.7244094488188977
        },
        {
          "duration": 0.1714267187500127,
          "durationTicks": 525,
          "midi": 49,
          "name": "C#3",
          "ticks": 494935,
          "time": 161.6096819895833,
          "velocity": 0.8031496062992126
        },
        {
          "duration": 0.567504070833337,
          "durationTicks": 1738,
          "midi": 68,
          "name": "G#4",
          "ticks": 495460,
          "time": 161.7811087083333,
          "velocity": 0.6614173228346457
        },
        {
          "duration": 0.09273369166666612,
          "durationTicks": 284,
          "midi": 68,
          "name": "G#4",
          "ticks": 497198,
          "time": 162.34861277916664,
          "velocity": 0.6456692913385826
        },
        {
          "duration": 0.19918152083332075,
          "durationTicks": 610,
          "midi": 70,
          "name": "A#4",
          "ticks": 497482,
          "time": 162.4413464708333,
          "velocity": 0.7165354330708661
        },
        {
          "duration": 0.12734556250001106,
          "durationTicks": 390,
          "midi": 44,
          "name": "G#2",
          "ticks": 498171,
          "time": 162.66632363124998,
          "velocity": 0.6220472440944882
        },
        {
          "duration": 0.2622012479166642,
          "durationTicks": 803,
          "midi": 68,
          "name": "G#4",
          "ticks": 498561,
          "time": 162.79366919375,
          "velocity": 0.7007874015748031
        },
        {
          "duration": 0.2579563958333324,
          "durationTicks": 790,
          "midi": 48,
          "name": "C3",
          "ticks": 499364,
          "time": 163.05587044166666,
          "velocity": 0.7716535433070866
        },
        {
          "duration": 0.30138449791664357,
          "durationTicks": 923,
          "midi": 49,
          "name": "C#3",
          "ticks": 500154,
          "time": 163.3138268375,
          "velocity": 0.7795275590551181
        },
        {
          "duration": 0.461709295833316,
          "durationTicks": 1414,
          "midi": 70,
          "name": "A#4",
          "ticks": 501177,
          "time": 163.64786404375,
          "velocity": 0.7401574803149606
        },
        {
          "duration": 0.48521924583332066,
          "durationTicks": 1486,
          "midi": 72,
          "name": "C5",
          "ticks": 502591,
          "time": 164.1095733395833,
          "velocity": 0.7559055118110236
        },
        {
          "duration": 0.36342464374999395,
          "durationTicks": 1113,
          "midi": 68,
          "name": "G#4",
          "ticks": 504815,
          "time": 164.83576957291666,
          "velocity": 0.7401574803149606
        },
        {
          "duration": 0.384975431249984,
          "durationTicks": 1179,
          "midi": 68,
          "name": "G#4",
          "ticks": 505928,
          "time": 165.19919421666665,
          "velocity": 0.7007874015748031
        },
        {
          "duration": 0.07836649999998713,
          "durationTicks": 240,
          "midi": 68,
          "name": "G#4",
          "ticks": 507107,
          "time": 165.58416964791664,
          "velocity": 0.6456692913385826
        },
        {
          "duration": 0.476076487499995,
          "durationTicks": 1458,
          "midi": 67,
          "name": "G4",
          "ticks": 507545,
          "time": 165.72718851041665,
          "velocity": 0.7244094488188977
        },
        {
          "duration": 0.16261048749998963,
          "durationTicks": 498,
          "midi": 67,
          "name": "G4",
          "ticks": 509003,
          "time": 166.20326499791665,
          "velocity": 0.7559055118110236
        },
        {
          "duration": 0.27493580416668806,
          "durationTicks": 842,
          "midi": 48,
          "name": "C3",
          "ticks": 509501,
          "time": 166.36587548541664,
          "velocity": 0.7716535433070866
        },
        {
          "duration": 0.15216162083333984,
          "durationTicks": 466,
          "midi": 48,
          "name": "C3",
          "ticks": 510343,
          "time": 166.64081128958333,
          "velocity": 0.7480314960629921
        },
        {
          "duration": 0.3474248166666598,
          "durationTicks": 1064,
          "midi": 41,
          "name": "F2",
          "ticks": 510809,
          "time": 166.79297291041667,
          "velocity": 0.8031496062992126
        },
        {
          "duration": 0.3715878208332981,
          "durationTicks": 1138,
          "midi": 53,
          "name": "F3",
          "ticks": 511873,
          "time": 167.14039772708333,
          "velocity": 0.7952755905511811
        },
        {
          "duration": 0.19265097916670015,
          "durationTicks": 590,
          "midi": 65,
          "name": "F4",
          "ticks": 513011,
          "time": 167.51198554791662,
          "velocity": 0.7952755905511811
        },
        {
          "duration": 0.8081545312499827,
          "durationTicks": 2475,
          "midi": 65,
          "name": "F4",
          "ticks": 513601,
          "time": 167.70463652708332,
          "velocity": 0.7322834645669292
        },
        {
          "duration": 0.23411991875002514,
          "durationTicks": 717,
          "midi": 65,
          "name": "F4",
          "ticks": 516076,
          "time": 168.5127910583333,
          "velocity": 0.4881889763779528
        },
        {
          "duration": 0.0666115249999848,
          "durationTicks": 204,
          "midi": 70,
          "name": "A#4",
          "ticks": 516868,
          "time": 168.77140050833333,
          "velocity": 0.7637795275590551
        },
        {
          "duration": 0.0633462541666745,
          "durationTicks": 194,
          "midi": 48,
          "name": "C3",
          "ticks": 517164,
          "time": 168.86805252499997,
          "velocity": 0.6535433070866141
        },
        {
          "duration": 0.1391005375000134,
          "durationTicks": 426,
          "midi": 55,
          "name": "G3",
          "ticks": 517358,
          "time": 168.93139877916664,
          "velocity": 0.7322834645669292
        },
        {
          "duration": 0.1155905874999803,
          "durationTicks": 354,
          "midi": 49,
          "name": "C#3",
          "ticks": 517784,
          "time": 169.07049931666666,
          "velocity": 0.6929133858267716
        },
        {
          "duration": 0.14530455208333137,
          "durationTicks": 445,
          "midi": 49,
          "name": "C#3",
          "ticks": 518138,
          "time": 169.18608990416664,
          "velocity": 0.7401574803149606
        },
        {
          "duration": 0.12440681875000337,
          "durationTicks": 381,
          "midi": 67,
          "name": "G4",
          "ticks": 518583,
          "time": 169.33139445624997,
          "velocity": 0.7165354330708661
        },
        {
          "duration": 0.18318169375001503,
          "durationTicks": 561,
          "midi": 44,
          "name": "G#2",
          "ticks": 518964,
          "time": 169.45580127499997,
          "velocity": 0.6692913385826772
        },
        {
          "duration": 0.07869302708331816,
          "durationTicks": 241,
          "midi": 68,
          "name": "G#4",
          "ticks": 519525,
          "time": 169.63898296874999,
          "velocity": 0.6220472440944882
        },
        {
          "duration": 0.14595760625002185,
          "durationTicks": 447,
          "midi": 67,
          "name": "G4",
          "ticks": 519766,
          "time": 169.7176759958333,
          "velocity": 0.6771653543307087
        },
        {
          "duration": 0.2093038604166395,
          "durationTicks": 641,
          "midi": 67,
          "name": "G4",
          "ticks": 520213,
          "time": 169.86363360208333,
          "velocity": 0.7322834645669292
        },
        {
          "duration": 0.12930472500002566,
          "durationTicks": 396,
          "midi": 67,
          "name": "G4",
          "ticks": 520854,
          "time": 170.07293746249997,
          "velocity": 0.7244094488188977
        },
        {
          "duration": 0.06301972708334347,
          "durationTicks": 193,
          "midi": 56,
          "name": "G#3",
          "ticks": 521321,
          "time": 170.22542561041664,
          "velocity": 0.7007874015748031
        },
        {
          "duration": 0.10024381458333664,
          "durationTicks": 307,
          "midi": 43,
          "name": "G2",
          "ticks": 521514,
          "time": 170.28844533749998,
          "velocity": 0.7716535433070866
        },
        {
          "duration": 0.31150683749999075,
          "durationTicks": 954,
          "midi": 65,
          "name": "F4",
          "ticks": 521821,
          "time": 170.38868915208332,
          "velocity": 0.7637795275590551
        },
        {
          "duration": 0.19689583125003196,
          "durationTicks": 603,
          "midi": 46,
          "name": "A#2",
          "ticks": 522775,
          "time": 170.7001959895833,
          "velocity": 0.8031496062992126
        },
        {
          "duration": 0.1093865729166339,
          "durationTicks": 335,
          "midi": 46,
          "name": "A#2",
          "ticks": 523378,
          "time": 170.89709182083334,
          "velocity": 0.6535433070866141
        },
        {
          "duration": 0.14040664583336593,
          "durationTicks": 430,
          "midi": 49,
          "name": "C#3",
          "ticks": 523713,
          "time": 171.00647839374997,
          "velocity": 0.5039370078740157
        },
        {
          "duration": 0.13910053749998497,
          "durationTicks": 426,
          "midi": 49,
          "name": "C#3",
          "ticks": 524143,
          "time": 171.14688503958334,
          "velocity": 0.47244094488188976
        },
        {
          "duration": 0.14399844375000725,
          "durationTicks": 441,
          "midi": 53,
          "name": "F3",
          "ticks": 524716,
          "time": 171.3339850583333,
          "velocity": 0.7637795275590551
        },
        {
          "duration": 0.3506900874999985,
          "durationTicks": 1074,
          "midi": 72,
          "name": "C5",
          "ticks": 525224,
          "time": 171.49986081666665,
          "velocity": 0.7322834645669292
        },
        {
          "duration": 0.1270190354166516,
          "durationTicks": 389,
          "midi": 70,
          "name": "A#4",
          "ticks": 526298,
          "time": 171.85055090416665,
          "velocity": 0.7165354330708661
        },
        {
          "duration": 0.11624364166667078,
          "durationTicks": 356,
          "midi": 70,
          "name": "A#4",
          "ticks": 526687,
          "time": 171.9775699395833,
          "velocity": 0.7244094488188977
        },
        {
          "duration": 0.0613870916666599,
          "durationTicks": 188,
          "midi": 58,
          "name": "A#3",
          "ticks": 527144,
          "time": 172.12679281666666,
          "velocity": 0.7165354330708661
        },
        {
          "duration": 0.04636684583331885,
          "durationTicks": 142,
          "midi": 72,
          "name": "C5",
          "ticks": 527444,
          "time": 172.22475094166666,
          "velocity": 0.6692913385826772
        },
        {
          "duration": 0.06889721458333042,
          "durationTicks": 211,
          "midi": 70,
          "name": "A#4",
          "ticks": 527586,
          "time": 172.27111778749997,
          "velocity": 0.6771653543307087
        },
        {
          "duration": 0.1498759312499942,
          "durationTicks": 459,
          "midi": 68,
          "name": "G#4",
          "ticks": 527797,
          "time": 172.3400150020833,
          "velocity": 0.6535433070866141
        },
        {
          "duration": 0.30269060625002453,
          "durationTicks": 927,
          "midi": 56,
          "name": "G#3",
          "ticks": 528256,
          "time": 172.4898909333333,
          "velocity": 0.6377952755905512
        },
        {
          "duration": 0.18122253125000043,
          "durationTicks": 555,
          "midi": 56,
          "name": "G#3",
          "ticks": 529183,
          "time": 172.79258153958332,
          "velocity": 0.6850393700787402
        },
        {
          "duration": 0.06432583541666759,
          "durationTicks": 197,
          "midi": 67,
          "name": "G4",
          "ticks": 529738,
          "time": 172.97380407083332,
          "velocity": 0.6377952755905512
        },
        {
          "duration": 0.4104445437500033,
          "durationTicks": 1257,
          "midi": 68,
          "name": "G#4",
          "ticks": 529935,
          "time": 173.03812990625,
          "velocity": 0.7086614173228346
        },
        {
          "duration": 0.20571206249999818,
          "durationTicks": 630,
          "midi": 67,
          "name": "G4",
          "ticks": 531406,
          "time": 173.51845124583332,
          "velocity": 0.6220472440944882
        },
        {
          "duration": 0.11950891249995266,
          "durationTicks": 366,
          "midi": 68,
          "name": "G#4",
          "ticks": 532190,
          "time": 173.77444847916667,
          "velocity": 0.7322834645669292
        },
        {
          "duration": 0.37028171250003084,
          "durationTicks": 1134,
          "midi": 51,
          "name": "D#3",
          "ticks": 532556,
          "time": 173.89395739166662,
          "velocity": 0.7322834645669292
        },
        {
          "duration": 0.34350649166668745,
          "durationTicks": 1052,
          "midi": 67,
          "name": "G4",
          "ticks": 534071,
          "time": 174.38864592291662,
          "velocity": 0.6929133858267716
        },
        {
          "duration": 0.3670164416666921,
          "durationTicks": 1124,
          "midi": 68,
          "name": "G#4",
          "ticks": 535123,
          "time": 174.7321524145833,
          "velocity": 0.7322834645669292
        },
        {
          "duration": 0.44962779374998263,
          "durationTicks": 1377,
          "midi": 68,
          "name": "G#4",
          "ticks": 536247,
          "time": 175.09916885625,
          "velocity": 0.7559055118110236
        },
        {
          "duration": 0.31869043333333025,
          "durationTicks": 976,
          "midi": 32,
          "name": "G#1",
          "ticks": 537816,
          "time": 175.61148985,
          "velocity": 0.8661417322834646
        },
        {
          "duration": 0.21289565833333768,
          "durationTicks": 652,
          "midi": 72,
          "name": "C5",
          "ticks": 538792,
          "time": 175.93018028333333,
          "velocity": 0.7874015748031497
        },
        {
          "duration": 0.1946101416666295,
          "durationTicks": 596,
          "midi": 32,
          "name": "G#1",
          "ticks": 539444,
          "time": 176.14307594166667,
          "velocity": 0.8818897637795275
        },
        {
          "duration": 0.16391659583334217,
          "durationTicks": 502,
          "midi": 29,
          "name": "F1",
          "ticks": 540040,
          "time": 176.3376860833333,
          "velocity": 0.7952755905511811
        },
        {
          "duration": 0.17697767916669704,
          "durationTicks": 542,
          "midi": 29,
          "name": "F1",
          "ticks": 540542,
          "time": 176.50160267916664,
          "velocity": 0.7480314960629921
        },
        {
          "duration": 0.1531412020833045,
          "durationTicks": 469,
          "midi": 42,
          "name": "F#2",
          "ticks": 541084,
          "time": 176.67858035833333,
          "velocity": 0.8267716535433071
        },
        {
          "duration": 0.24685447499999214,
          "durationTicks": 756,
          "midi": 32,
          "name": "G#1",
          "ticks": 541560,
          "time": 176.83400724999998,
          "velocity": 0.8582677165354331
        },
        {
          "duration": 0.1985284666666871,
          "durationTicks": 608,
          "midi": 32,
          "name": "G#1",
          "ticks": 542316,
          "time": 177.08086172499998,
          "velocity": 0.7480314960629921
        },
        {
          "duration": 0.15150856666664936,
          "durationTicks": 464,
          "midi": 39,
          "name": "D#2",
          "ticks": 542924,
          "time": 177.27939019166666,
          "velocity": 0.8503937007874016
        },
        {
          "duration": 0.09044800208334891,
          "durationTicks": 277,
          "midi": 32,
          "name": "G#1",
          "ticks": 543530,
          "time": 177.47726560416666,
          "velocity": 0.8740157480314961
        },
        {
          "duration": 0.2873438333332956,
          "durationTicks": 880,
          "midi": 29,
          "name": "F1",
          "ticks": 543807,
          "time": 177.56771360625,
          "velocity": 0.8188976377952756
        },
        {
          "duration": 0.18873265416667095,
          "durationTicks": 578,
          "midi": 41,
          "name": "F2",
          "ticks": 544687,
          "time": 177.8550574395833,
          "velocity": 0.7795275590551181
        },
        {
          "duration": 0.5074230875000012,
          "durationTicks": 1554,
          "midi": 29,
          "name": "F1",
          "ticks": 545419,
          "time": 178.09407526458332,
          "velocity": 0.8267716535433071
        },
        {
          "duration": 0.17207977291664633,
          "durationTicks": 527,
          "midi": 32,
          "name": "G#1",
          "ticks": 546973,
          "time": 178.60149835208333,
          "velocity": 0.8582677165354331
        },
        {
          "duration": 0.3108537833333571,
          "durationTicks": 952,
          "midi": 29,
          "name": "F1",
          "ticks": 547500,
          "time": 178.77357812499997,
          "velocity": 0.8031496062992126
        },
        {
          "duration": 0.1769776791666402,
          "durationTicks": 542,
          "midi": 41,
          "name": "F2",
          "ticks": 548452,
          "time": 179.08443190833333,
          "velocity": 0.7874015748031497
        },
        {
          "duration": 0.12016196666667156,
          "durationTicks": 368,
          "midi": 32,
          "name": "G#1",
          "ticks": 549136,
          "time": 179.30777643333332,
          "velocity": 0.8503937007874016
        },
        {
          "duration": 0.25632376041664884,
          "durationTicks": 785,
          "midi": 29,
          "name": "F1",
          "ticks": 549628,
          "time": 179.46842775833332,
          "velocity": 0.7795275590551181
        },
        {
          "duration": 0.07444817500001477,
          "durationTicks": 228,
          "midi": 39,
          "name": "D#2",
          "ticks": 550667,
          "time": 179.80768939791665,
          "velocity": 0.8503937007874016
        },
        {
          "duration": 0.10906004583335971,
          "durationTicks": 334,
          "midi": 32,
          "name": "G#1",
          "ticks": 551019,
          "time": 179.92262693124997,
          "velocity": 0.8818897637795275
        },
        {
          "duration": 0.1737124083333299,
          "durationTicks": 532,
          "midi": 31,
          "name": "G1",
          "ticks": 551353,
          "time": 180.03168697708333,
          "velocity": 0.8582677165354331
        },
        {
          "duration": 0.38856722916665376,
          "durationTicks": 1190,
          "midi": 44,
          "name": "G#2",
          "ticks": 552043,
          "time": 180.25699066458333,
          "velocity": 0.8503937007874016
        },
        {
          "duration": 0.31215989166668123,
          "durationTicks": 956,
          "midi": 44,
          "name": "G#2",
          "ticks": 553233,
          "time": 180.64555789374998,
          "velocity": 0.7559055118110236
        },
        {
          "duration": 0.1214680750000241,
          "durationTicks": 372,
          "midi": 37,
          "name": "C#2",
          "ticks": 554387,
          "time": 181.02237014791663,
          "velocity": 0.8503937007874016
        },
        {
          "duration": 0.24587489375002747,
          "durationTicks": 753,
          "midi": 32,
          "name": "G#1",
          "ticks": 554852,
          "time": 181.17420524166664,
          "velocity": 0.8346456692913385
        },
        {
          "duration": 0.37909794374996864,
          "durationTicks": 1161,
          "midi": 32,
          "name": "G#1",
          "ticks": 555605,
          "time": 181.42008013541667,
          "velocity": 0.7244094488188977
        },
        {
          "duration": 0.1665288124999904,
          "durationTicks": 510,
          "midi": 32,
          "name": "G#1",
          "ticks": 556766,
          "time": 181.79917807916664,
          "velocity": 0.8582677165354331
        },
        {
          "duration": 0.2723235875000398,
          "durationTicks": 834,
          "midi": 36,
          "name": "C2",
          "ticks": 557276,
          "time": 181.96570689166663,
          "velocity": 0.8031496062992126
        },
        {
          "duration": 0.09077452916667994,
          "durationTicks": 278,
          "midi": 37,
          "name": "C#2",
          "ticks": 558209,
          "time": 182.27035666041664,
          "velocity": 0.8503937007874016
        },
        {
          "duration": 0.26775220833332014,
          "durationTicks": 820,
          "midi": 32,
          "name": "G#1",
          "ticks": 558720,
          "time": 182.437212,
          "velocity": 0.84251968503937
        },
        {
          "duration": 0.1518350937499804,
          "durationTicks": 465,
          "midi": 32,
          "name": "G#1",
          "ticks": 559540,
          "time": 182.7049642083333,
          "velocity": 0.8110236220472441
        },
        {
          "duration": 0.09110105624998255,
          "durationTicks": 279,
          "midi": 37,
          "name": "C#2",
          "ticks": 560210,
          "time": 182.92373735416666,
          "velocity": 0.8031496062992126
        },
        {
          "duration": 0.3941181895833381,
          "durationTicks": 1207,
          "midi": 18,
          "name": "F#0",
          "ticks": 560721,
          "time": 183.09059269374998,
          "velocity": 0.8267716535433071
        },
        {
          "duration": 0.18840612708333992,
          "durationTicks": 577,
          "midi": 37,
          "name": "C#2",
          "ticks": 561928,
          "time": 183.48471088333332,
          "velocity": 0.8346456692913385
        },
        {
          "duration": 0.34383301874999006,
          "durationTicks": 1053,
          "midi": 32,
          "name": "G#1",
          "ticks": 562505,
          "time": 183.67311701041666,
          "velocity": 0.8188976377952756
        },
        {
          "duration": 0.09763159791665998,
          "durationTicks": 299,
          "midi": 32,
          "name": "G#1",
          "ticks": 563558,
          "time": 184.01695002916665,
          "velocity": 0.8031496062992126
        },
        {
          "duration": 0.11036615416668383,
          "durationTicks": 338,
          "midi": 37,
          "name": "C#2",
          "ticks": 564003,
          "time": 184.16225458124995,
          "velocity": 0.8267716535433071
        },
        {
          "duration": 0.45779097083334364,
          "durationTicks": 1402,
          "midi": 30,
          "name": "F#1",
          "ticks": 564474,
          "time": 184.31604883749998,
          "velocity": 0.7874015748031497
        },
        {
          "duration": 0.14138622708335902,
          "durationTicks": 433,
          "midi": 36,
          "name": "C2",
          "ticks": 565883,
          "time": 184.77612549791664,
          "velocity": 0.889763779527559
        },
        {
          "duration": 0.28832341458334554,
          "durationTicks": 883,
          "midi": 31,
          "name": "G1",
          "ticks": 566396,
          "time": 184.94363389166662,
          "velocity": 0.84251968503937
        },
        {
          "duration": 0.26154819375000216,
          "durationTicks": 801,
          "midi": 32,
          "name": "G#1",
          "ticks": 567398,
          "time": 185.27081402916664,
          "velocity": 0.8267716535433071
        },
        {
          "duration": 0.11036615416668383,
          "durationTicks": 338,
          "midi": 32,
          "name": "G#1",
          "ticks": 568199,
          "time": 185.53236222291665,
          "velocity": 0.8740157480314961
        },
        {
          "duration": 0.5054639249999582,
          "durationTicks": 1548,
          "midi": 34,
          "name": "A#1",
          "ticks": 568537,
          "time": 185.64272837708333,
          "velocity": 0.8031496062992126
        },
        {
          "duration": 0.20440595416664564,
          "durationTicks": 626,
          "midi": 32,
          "name": "G#1",
          "ticks": 570237,
          "time": 186.19782441875,
          "velocity": 0.8346456692913385
        },
        {
          "duration": 0.19820193958332766,
          "durationTicks": 607,
          "midi": 34,
          "name": "A#1",
          "ticks": 570863,
          "time": 186.40223037291665,
          "velocity": 0.8031496062992126
        },
        {
          "duration": 0.16685533958332144,
          "durationTicks": 511,
          "midi": 34,
          "name": "A#1",
          "ticks": 571470,
          "time": 186.60043231249998,
          "velocity": 0.7952755905511811
        },
        {
          "duration": 0.09436632708332127,
          "durationTicks": 289,
          "midi": 32,
          "name": "G#1",
          "ticks": 572165,
          "time": 186.82736863541666,
          "velocity": 0.8661417322834646
        },
        {
          "duration": 0.4532195916666524,
          "durationTicks": 1388,
          "midi": 34,
          "name": "A#1",
          "ticks": 572454,
          "time": 186.92173496249998,
          "velocity": 0.7952755905511811
        },
        {
          "duration": 0.22628326874999516,
          "durationTicks": 693,
          "midi": 32,
          "name": "G#1",
          "ticks": 574092,
          "time": 187.456586325,
          "velocity": 0.8110236220472441
        },
        {
          "duration": 0.20538553541666715,
          "durationTicks": 629,
          "midi": 32,
          "name": "G#1",
          "ticks": 574785,
          "time": 187.68286959374998,
          "velocity": 0.7716535433070866
        },
        {
          "duration": 0.08163177083335427,
          "durationTicks": 250,
          "midi": 34,
          "name": "A#1",
          "ticks": 575559,
          "time": 187.93560155624996,
          "velocity": 0.7716535433070866
        },
        {
          "duration": 0.08293787916664996,
          "durationTicks": 254,
          "midi": 32,
          "name": "G#1",
          "ticks": 575993,
          "time": 188.07731431041665,
          "velocity": 0.8818897637795275
        },
        {
          "duration": 0.1537942562500234,
          "durationTicks": 471,
          "midi": 32,
          "name": "G#1",
          "ticks": 576247,
          "time": 188.1602521895833,
          "velocity": 0.7795275590551181
        },
        {
          "duration": 0.18252863958329613,
          "durationTicks": 559,
          "midi": 32,
          "name": "G#1",
          "ticks": 576718,
          "time": 188.31404644583333,
          "velocity": 0.7007874015748031
        },
        {
          "duration": 0.1524881479166993,
          "durationTicks": 467,
          "midi": 39,
          "name": "D#2",
          "ticks": 577277,
          "time": 188.49657508541662,
          "velocity": 0.8188976377952756
        },
        {
          "duration": 0.4003222041666561,
          "durationTicks": 1226,
          "midi": 30,
          "name": "F#1",
          "ticks": 577956,
          "time": 188.71828697499998,
          "velocity": 0.8346456692913385
        },
        {
          "duration": 0.07118290416664763,
          "durationTicks": 218,
          "midi": 37,
          "name": "C#2",
          "ticks": 579453,
          "time": 189.20709801874997,
          "velocity": 0.7874015748031497
        },
        {
          "duration": 0.12310071041665083,
          "durationTicks": 377,
          "midi": 32,
          "name": "G#1",
          "ticks": 579810,
          "time": 189.32366818749998,
          "velocity": 0.84251968503937
        },
        {
          "duration": 0.08391746041664305,
          "durationTicks": 257,
          "midi": 36,
          "name": "C2",
          "ticks": 580432,
          "time": 189.52676803333333,
          "velocity": 0.8267716535433071
        },
        {
          "duration": 0.2119160770833446,
          "durationTicks": 649,
          "midi": 34,
          "name": "A#1",
          "ticks": 580696,
          "time": 189.61297118333331,
          "velocity": 0.8031496062992126
        },
        {
          "duration": 0.07967260833331125,
          "durationTicks": 244,
          "midi": 34,
          "name": "A#1",
          "ticks": 581345,
          "time": 189.82488726041666,
          "velocity": 0.8661417322834646
        },
        {
          "duration": 0.22693632291665722,
          "durationTicks": 695,
          "midi": 32,
          "name": "G#1",
          "ticks": 581742,
          "time": 189.9545185125,
          "velocity": 0.8582677165354331
        },
        {
          "duration": 0.21224260416667562,
          "durationTicks": 650,
          "midi": 32,
          "name": "G#1",
          "ticks": 582437,
          "time": 190.18145483541664,
          "velocity": 0.8346456692913385
        },
        {
          "duration": 0.14073317291664011,
          "durationTicks": 431,
          "midi": 36,
          "name": "C2",
          "ticks": 583087,
          "time": 190.39369743958332,
          "velocity": 0.8267716535433071
        },
        {
          "duration": 0.24097698750000518,
          "durationTicks": 738,
          "midi": 32,
          "name": "G#1",
          "ticks": 583698,
          "time": 190.59320548749997,
          "velocity": 0.8582677165354331
        },
        {
          "duration": 0.17697767916666862,
          "durationTicks": 542,
          "midi": 32,
          "name": "G#1",
          "ticks": 584436,
          "time": 190.83418247499998,
          "velocity": 0.7874015748031497
        },
        {
          "duration": 0.15607994583334062,
          "durationTicks": 478,
          "midi": 39,
          "name": "D#2",
          "ticks": 584978,
          "time": 191.01116015416665,
          "velocity": 0.8188976377952756
        },
        {
          "duration": 0.13648832083333673,
          "durationTicks": 418,
          "midi": 32,
          "name": "G#1",
          "ticks": 585456,
          "time": 191.1672401,
          "velocity": 0.889763779527559
        },
        {
          "duration": 0.133223049999998,
          "durationTicks": 408,
          "midi": 29,
          "name": "F1",
          "ticks": 585874,
          "time": 191.30372842083332,
          "velocity": 0.8110236220472441
        },
        {
          "duration": 0.2070181708333223,
          "durationTicks": 634,
          "midi": 29,
          "name": "F1",
          "ticks": 586282,
          "time": 191.43695147083332,
          "velocity": 0.8267716535433071
        },
        {
          "duration": 0.1136314249999657,
          "durationTicks": 348,
          "midi": 41,
          "name": "F2",
          "ticks": 587089,
          "time": 191.70045882708334,
          "velocity": 0.8110236220472441
        },
        {
          "duration": 0.11624364166667078,
          "durationTicks": 356,
          "midi": 32,
          "name": "G#1",
          "ticks": 587543,
          "time": 191.84870212291665,
          "velocity": 0.8582677165354331
        },
        {
          "duration": 0.357547156250007,
          "durationTicks": 1095,
          "midi": 29,
          "name": "F1",
          "ticks": 587899,
          "time": 191.96494576458332,
          "velocity": 0.8346456692913385
        },
        {
          "duration": 0.1080804645833382,
          "durationTicks": 331,
          "midi": 38,
          "name": "D2",
          "ticks": 588994,
          "time": 192.32249292083333,
          "velocity": 0.8110236220472441
        },
        {
          "duration": 0.2840785624999853,
          "durationTicks": 870,
          "midi": 32,
          "name": "G#1",
          "ticks": 589458,
          "time": 192.47400148749998,
          "velocity": 0.84251968503937
        },
        {
          "duration": 0.21028344166668944,
          "durationTicks": 644,
          "midi": 32,
          "name": "G#1",
          "ticks": 590328,
          "time": 192.75808004999996,
          "velocity": 0.7874015748031497
        },
        {
          "duration": 0.10579477499999257,
          "durationTicks": 324,
          "midi": 41,
          "name": "F2",
          "ticks": 590972,
          "time": 192.96836349166665,
          "velocity": 0.7874015748031497
        },
        {
          "duration": 0.17012061041668858,
          "durationTicks": 521,
          "midi": 32,
          "name": "G#1",
          "ticks": 591303,
          "time": 193.07644395624996,
          "velocity": 0.8740157480314961
        },
        {
          "duration": 0.29354784791667043,
          "durationTicks": 899,
          "midi": 29,
          "name": "F1",
          "ticks": 591824,
          "time": 193.24656456666665,
          "velocity": 0.7559055118110236
        },
        {
          "duration": 0.07118290416667605,
          "durationTicks": 218,
          "midi": 38,
          "name": "D2",
          "ticks": 592948,
          "time": 193.6135810083333,
          "velocity": 0.8267716535433071
        },
        {
          "duration": 0.08620314999998868,
          "durationTicks": 264,
          "midi": 32,
          "name": "G#1",
          "ticks": 593312,
          "time": 193.73243686666663,
          "velocity": 0.8818897637795275
        },
        {
          "duration": 0.17665115208336601,
          "durationTicks": 541,
          "midi": 29,
          "name": "F1",
          "ticks": 593576,
          "time": 193.81864001666662,
          "velocity": 0.7874015748031497
        },
        {
          "duration": 0.18448780208333915,
          "durationTicks": 565,
          "midi": 29,
          "name": "F1",
          "ticks": 594117,
          "time": 193.99529116875,
          "velocity": 0.7952755905511811
        },
        {
          "duration": 0.12799861666667312,
          "durationTicks": 392,
          "midi": 41,
          "name": "F2",
          "ticks": 594689,
          "time": 194.18206466041664,
          "velocity": 0.8031496062992126
        },
        {
          "duration": 0.11624364166664236,
          "durationTicks": 356,
          "midi": 32,
          "name": "G#1",
          "ticks": 595219,
          "time": 194.35512401458334,
          "velocity": 0.8503937007874016
        },
        {
          "duration": 0.4421176708333405,
          "durationTicks": 1354,
          "midi": 29,
          "name": "F1",
          "ticks": 595700,
          "time": 194.51218354166664,
          "velocity": 0.8188976377952756
        },
        {
          "duration": 0.5848100062500237,
          "durationTicks": 1791,
          "midi": 31,
          "name": "G1",
          "ticks": 597114,
          "time": 194.97389283749996,
          "velocity": 0.84251968503937
        },
        {
          "duration": 0.33697595000001,
          "durationTicks": 1032,
          "midi": 32,
          "name": "G#1",
          "ticks": 598905,
          "time": 195.55870284374998,
          "velocity": 0.8503937007874016
        },
        {
          "duration": 0.15444731041668547,
          "durationTicks": 473,
          "midi": 36,
          "name": "C2",
          "ticks": 600081,
          "time": 195.94269869374997,
          "velocity": 0.8110236220472441
        },
        {
          "duration": 0.08816231250000328,
          "durationTicks": 270,
          "midi": 37,
          "name": "C#2",
          "ticks": 600554,
          "time": 196.09714600416666,
          "velocity": 0.8110236220472441
        },
        {
          "duration": 0.258282922916635,
          "durationTicks": 791,
          "midi": 32,
          "name": "G#1",
          "ticks": 600975,
          "time": 196.23461390625,
          "velocity": 0.8346456692913385
        },
        {
          "duration": 0.16228396041668702,
          "durationTicks": 497,
          "midi": 32,
          "name": "G#1",
          "ticks": 601766,
          "time": 196.49289682916663,
          "velocity": 0.8110236220472441
        },
        {
          "duration": 0.09436632708332127,
          "durationTicks": 289,
          "midi": 38,
          "name": "D2",
          "ticks": 602414,
          "time": 196.70448637916664,
          "velocity": 0.8267716535433071
        },
        {
          "duration": 0.22791590416667873,
          "durationTicks": 698,
          "midi": 32,
          "name": "G#1",
          "ticks": 602880,
          "time": 196.85664799999998,
          "velocity": 0.8267716535433071
        },
        {
          "duration": 0.21224260416667562,
          "durationTicks": 650,
          "midi": 32,
          "name": "G#1",
          "ticks": 603578,
          "time": 197.08456390416666,
          "velocity": 0.7874015748031497
        },
        {
          "duration": 0.15412078333332602,
          "durationTicks": 472,
          "midi": 36,
          "name": "C2",
          "ticks": 604228,
          "time": 197.29680650833333,
          "velocity": 0.8188976377952756
        },
        {
          "duration": 0.41011801666667225,
          "durationTicks": 1256,
          "midi": 32,
          "name": "G#1",
          "ticks": 604806,
          "time": 197.48553916249998,
          "velocity": 0.8503937007874016
        },
        {
          "duration": 0.15673300000000268,
          "durationTicks": 480,
          "midi": 36,
          "name": "C2",
          "ticks": 606062,
          "time": 197.89565717916665,
          "velocity": 0.7874015748031497
        },
        {
          "duration": 0.12897819791669463,
          "durationTicks": 395,
          "midi": 32,
          "name": "G#1",
          "ticks": 606720,
          "time": 198.11051199999997,
          "velocity": 0.8661417322834646
        },
        {
          "duration": 0.3030171333332987,
          "durationTicks": 928,
          "midi": 18,
          "name": "F#0",
          "ticks": 607115,
          "time": 198.23949019791667,
          "velocity": 0.7874015748031497
        },
        {
          "duration": 0.08816231250000328,
          "durationTicks": 270,
          "midi": 36,
          "name": "C2",
          "ticks": 608201,
          "time": 198.59409861041664,
          "velocity": 0.7952755905511811
        },
        {
          "duration": 0.2546911249999937,
          "durationTicks": 780,
          "midi": 32,
          "name": "G#1",
          "ticks": 608636,
          "time": 198.73613789166663,
          "velocity": 0.8110236220472441
        },
        {
          "duration": 0.1652227041666947,
          "durationTicks": 506,
          "midi": 32,
          "name": "G#1",
          "ticks": 609416,
          "time": 198.99082901666662,
          "velocity": 0.7795275590551181
        },
        {
          "duration": 0.1119987895833674,
          "durationTicks": 343,
          "midi": 37,
          "name": "C#2",
          "ticks": 610061,
          "time": 199.20143898541662,
          "velocity": 0.7716535433070866
        },
        {
          "duration": 0.16359006874998272,
          "durationTicks": 501,
          "midi": 30,
          "name": "F#1",
          "ticks": 610576,
          "time": 199.36960043333332,
          "velocity": 0.8503937007874016
        },
        {
          "duration": 0.40554663750003783,
          "durationTicks": 1242,
          "midi": 36,
          "name": "C2",
          "ticks": 611077,
          "time": 199.5331905020833,
          "velocity": 0.7795275590551181
        },
        {
          "duration": 0.3255475020833103,
          "durationTicks": 997,
          "midi": 32,
          "name": "G#1",
          "ticks": 612484,
          "time": 199.99261410833333,
          "velocity": 0.8661417322834646
        },
        {
          "duration": 0.23967087916665264,
          "durationTicks": 734,
          "midi": 32,
          "name": "G#1",
          "ticks": 613481,
          "time": 200.31816161041664,
          "velocity": 0.8188976377952756
        },
        {
          "duration": 0.15346772916663554,
          "durationTicks": 470,
          "midi": 33,
          "name": "A1",
          "ticks": 614374,
          "time": 200.60975029583332,
          "velocity": 0.8503937007874016
        },
        {
          "duration": 0.37550614583338415,
          "durationTicks": 1150,
          "midi": 34,
          "name": "A#1",
          "ticks": 614844,
          "time": 200.76321802499996,
          "velocity": 0.7874015748031497
        },
        {
          "duration": 0.1965693041666441,
          "durationTicks": 602,
          "midi": 32,
          "name": "G#1",
          "ticks": 616318,
          "time": 201.24451894583333,
          "velocity": 0.8267716535433071
        },
        {
          "duration": 0.28473161666664737,
          "durationTicks": 872,
          "midi": 34,
          "name": "A#1",
          "ticks": 616920,
          "time": 201.44108824999998,
          "velocity": 0.7716535433070866
        },
        {
          "duration": 0.08848883958333431,
          "durationTicks": 271,
          "midi": 34,
          "name": "A#1",
          "ticks": 617792,
          "time": 201.72581986666663,
          "velocity": 0.7716535433070866
        },
        {
          "duration": 0.22726284999995983,
          "durationTicks": 696,
          "midi": 32,
          "name": "G#1",
          "ticks": 618222,
          "time": 201.8662265125,
          "velocity": 0.8346456692913385
        },
        {
          "duration": 0.3709347666666929,
          "durationTicks": 1136,
          "midi": 34,
          "name": "A#1",
          "ticks": 618918,
          "time": 202.09348936249995,
          "velocity": 0.7480314960629921
        },
        {
          "duration": 0.13289652291666698,
          "durationTicks": 407,
          "midi": 32,
          "name": "G#1",
          "ticks": 620174,
          "time": 202.50360737916665,
          "velocity": 0.8582677165354331
        },
        {
          "duration": 0.34154732916667285,
          "durationTicks": 1046,
          "midi": 34,
          "name": "A#1",
          "ticks": 620581,
          "time": 202.63650390208332,
          "velocity": 0.7637795275590551
        },
        {
          "duration": 0.1684879749999766,
          "durationTicks": 516,
          "midi": 34,
          "name": "A#1",
          "ticks": 621627,
          "time": 202.97805123125,
          "velocity": 0.7637795275590551
        },
        {
          "duration": 1.1787627708333446,
          "durationTicks": 3610,
          "midi": 27,
          "name": "D#1",
          "ticks": 622143,
          "time": 203.14653920624997,
          "velocity": 0.7716535433070866
        },
        {
          "duration": 0.26775220833332014,
          "durationTicks": 820,
          "midi": 36,
          "name": "C2",
          "ticks": 625753,
          "time": 204.3253019770833,
          "velocity": 0.8110236220472441
        },
        {
          "duration": 0.10383561249997797,
          "durationTicks": 318,
          "midi": 39,
          "name": "D#2",
          "ticks": 626864,
          "time": 204.68807356666665,
          "velocity": 0.8031496062992126
        },
        {
          "duration": 0.2566502875000083,
          "durationTicks": 786,
          "midi": 39,
          "name": "D#2",
          "ticks": 627182,
          "time": 204.79190917916662,
          "velocity": 0.8346456692913385
        },
        {
          "duration": 0.054530022916679854,
          "durationTicks": 167,
          "midi": 32,
          "name": "G#1",
          "ticks": 628139,
          "time": 205.10439559791664,
          "velocity": 0.84251968503937
        },
        {
          "duration": 0.3679960229166568,
          "durationTicks": 1127,
          "midi": 32,
          "name": "G#1",
          "ticks": 628306,
          "time": 205.15892562083332,
          "velocity": 0.8661417322834646
        },
        {
          "duration": 0.259915558333347,
          "durationTicks": 796,
          "midi": 30,
          "name": "F#1",
          "ticks": 629749,
          "time": 205.63010420208332,
          "velocity": 0.8818897637795275
        },
        {
          "duration": 0.21909967291665566,
          "durationTicks": 671,
          "midi": 40,
          "name": "E2",
          "ticks": 630545,
          "time": 205.89001976041666,
          "velocity": 0.8188976377952756
        },
        {
          "duration": 0.10089686874997028,
          "durationTicks": 309,
          "midi": 40,
          "name": "E2",
          "ticks": 631216,
          "time": 206.10911943333332,
          "velocity": 0.8661417322834646
        },
        {
          "duration": 0.2275893770833477,
          "durationTicks": 697,
          "midi": 32,
          "name": "G#1",
          "ticks": 631670,
          "time": 206.25736272916666,
          "velocity": 0.8582677165354331
        },
        {
          "duration": 0.2145282937499644,
          "durationTicks": 657,
          "midi": 32,
          "name": "G#1",
          "ticks": 632367,
          "time": 206.48495210625,
          "velocity": 0.7716535433070866
        },
        {
          "duration": 0.09665201666669532,
          "durationTicks": 296,
          "midi": 29,
          "name": "F1",
          "ticks": 633024,
          "time": 206.69948039999997,
          "velocity": 0.8503937007874016
        },
        {
          "duration": 0.16750839375001192,
          "durationTicks": 513,
          "midi": 32,
          "name": "G#1",
          "ticks": 633603,
          "time": 206.88853958124997,
          "velocity": 0.8740157480314961
        },
        {
          "duration": 0.16979408333332913,
          "durationTicks": 520,
          "midi": 29,
          "name": "F1",
          "ticks": 634116,
          "time": 207.05604797499998,
          "velocity": 0.8582677165354331
        },
        {
          "duration": 0.1871000187500158,
          "durationTicks": 573,
          "midi": 67,
          "name": "G4",
          "ticks": 634636,
          "time": 207.2258420583333,
          "velocity": 0.7559055118110236
        },
        {
          "duration": 0.31869043333333025,
          "durationTicks": 976,
          "midi": 32,
          "name": "G#1",
          "ticks": 635209,
          "time": 207.41294207708333,
          "velocity": 0.8346456692913385
        },
        {
          "duration": 0.40522011041664996,
          "durationTicks": 1241,
          "midi": 32,
          "name": "G#1",
          "ticks": 636185,
          "time": 207.73163251041666,
          "velocity": 0.8031496062992126
        },
        {
          "duration": 0.29811922708333327,
          "durationTicks": 913,
          "midi": 32,
          "name": "G#1",
          "ticks": 637426,
          "time": 208.1368526208333,
          "velocity": 0.8582677165354331
        },
        {
          "duration": 0.2618747208333616,
          "durationTicks": 802,
          "midi": 65,
          "name": "F4",
          "ticks": 638412,
          "time": 208.45880832499998,
          "velocity": 0.7952755905511811
        },
        {
          "duration": 0.18481432916667018,
          "durationTicks": 566,
          "midi": 31,
          "name": "G1",
          "ticks": 639339,
          "time": 208.76149893124997,
          "velocity": 0.8818897637795275
        },
        {
          "duration": 0.13289652291666698,
          "durationTicks": 407,
          "midi": 53,
          "name": "F3",
          "ticks": 639905,
          "time": 208.94631326041664,
          "velocity": 0.8267716535433071
        },
        {
          "duration": 0.15052898541665627,
          "durationTicks": 461,
          "midi": 53,
          "name": "F3",
          "ticks": 640312,
          "time": 209.0792097833333,
          "velocity": 0.8031496062992126
        },
        {
          "duration": 0.12375376458334131,
          "durationTicks": 379,
          "midi": 40,
          "name": "E2",
          "ticks": 640773,
          "time": 209.22973876874997,
          "velocity": 0.8346456692913385
        },
        {
          "duration": 0.18383474791664867,
          "durationTicks": 563,
          "midi": 30,
          "name": "F#1",
          "ticks": 641159,
          "time": 209.35577822291665,
          "velocity": 0.8267716535433071
        },
        {
          "duration": 0.26873178958334165,
          "durationTicks": 823,
          "midi": 29,
          "name": "F1",
          "ticks": 641722,
          "time": 209.5396129708333,
          "velocity": 0.7007874015748031
        },
        {
          "duration": 0.06432583541663917,
          "durationTicks": 197,
          "midi": 41,
          "name": "F2",
          "ticks": 642829,
          "time": 209.90107845208334,
          "velocity": 0.7559055118110236
        },
        {
          "duration": 0.27395622291666655,
          "durationTicks": 839,
          "midi": 31,
          "name": "G1",
          "ticks": 643349,
          "time": 210.07087253541664,
          "velocity": 0.8740157480314961
        },
        {
          "duration": 0.2524054354166765,
          "durationTicks": 773,
          "midi": 31,
          "name": "G1",
          "ticks": 644188,
          "time": 210.3448287583333,
          "velocity": 0.8188976377952756
        },
        {
          "duration": 0.08816231250000328,
          "durationTicks": 270,
          "midi": 31,
          "name": "G1",
          "ticks": 644961,
          "time": 210.59723419374998,
          "velocity": 0.889763779527559
        },
        {
          "duration": 0.1103661541666554,
          "durationTicks": 338,
          "midi": 18,
          "name": "F#0",
          "ticks": 645238,
          "time": 210.68768219583333,
          "velocity": 0.8503937007874016
        },
        {
          "duration": 0.2925682666666489,
          "durationTicks": 896,
          "midi": 68,
          "name": "G#4",
          "ticks": 645576,
          "time": 210.79804835,
          "velocity": 0.7480314960629921
        },
        {
          "duration": 0.12146807499999568,
          "durationTicks": 372,
          "midi": 37,
          "name": "C#2",
          "ticks": 646480,
          "time": 211.0932288333333,
          "velocity": 0.8661417322834646
        },
        {
          "duration": 0.11657016874997339,
          "durationTicks": 357,
          "midi": 32,
          "name": "G#1",
          "ticks": 646992,
          "time": 211.2604107,
          "velocity": 0.8976377952755905
        },
        {
          "duration": 0.13289652291666698,
          "durationTicks": 407,
          "midi": 68,
          "name": "G#4",
          "ticks": 647349,
          "time": 211.37698086874997,
          "velocity": 0.7716535433070866
        },
        {
          "duration": 0.35199619583332264,
          "durationTicks": 1078,
          "midi": 68,
          "name": "G#4",
          "ticks": 647756,
          "time": 211.50987739166663,
          "velocity": 0.7401574803149606
        },
        {
          "duration": 0.39150597291666145,
          "durationTicks": 1199,
          "midi": 31,
          "name": "G1",
          "ticks": 648841,
          "time": 211.8641592770833,
          "velocity": 0.8582677165354331
        },
        {
          "duration": 0.06922374166666145,
          "durationTicks": 212,
          "midi": 67,
          "name": "G4",
          "ticks": 650040,
          "time": 212.25566524999996,
          "velocity": 0.7480314960629921
        },
        {
          "duration": 0.13452915833332213,
          "durationTicks": 412,
          "midi": 36,
          "name": "C2",
          "ticks": 650339,
          "time": 212.35329684791665,
          "velocity": 0.8976377952755905
        },
        {
          "duration": 0.2778745479166673,
          "durationTicks": 851,
          "midi": 31,
          "name": "G1",
          "ticks": 650864,
          "time": 212.52472356666664,
          "velocity": 0.84251968503937
        },
        {
          "duration": 0.07477470208337422,
          "durationTicks": 229,
          "midi": 68,
          "name": "G#4",
          "ticks": 652029,
          "time": 212.90512761874996,
          "velocity": 0.7559055118110236
        },
        {
          "duration": 0.1332230499999696,
          "durationTicks": 408,
          "midi": 36,
          "name": "C2",
          "ticks": 652258,
          "time": 212.97990232083333,
          "velocity": 0.8188976377952756
        },
        {
          "duration": 0.3137925270833364,
          "durationTicks": 961,
          "midi": 32,
          "name": "G#1",
          "ticks": 652666,
          "time": 213.1131253708333,
          "velocity": 0.8661417322834646
        },
        {
          "duration": 0.3774653083333135,
          "durationTicks": 1156,
          "midi": 65,
          "name": "F4",
          "ticks": 653627,
          "time": 213.42691789791664,
          "velocity": 0.8267716535433071
        },
        {
          "duration": 0.1247333458333344,
          "durationTicks": 382,
          "midi": 31,
          "name": "G1",
          "ticks": 654783,
          "time": 213.80438320624995,
          "velocity": 0.905511811023622
        },
        {
          "duration": 0.22269147083335383,
          "durationTicks": 682,
          "midi": 65,
          "name": "F4",
          "ticks": 655165,
          "time": 213.9291165520833,
          "velocity": 0.8267716535433071
        },
        {
          "duration": 0.09828465208332204,
          "durationTicks": 301,
          "midi": 64,
          "name": "E4",
          "ticks": 656018,
          "time": 214.20764415416664,
          "velocity": 0.7952755905511811
        },
        {
          "duration": 0.09208063750003248,
          "durationTicks": 282,
          "midi": 37,
          "name": "C#2",
          "ticks": 656319,
          "time": 214.30592880624997,
          "velocity": 0.7952755905511811
        },
        {
          "duration": 0.17534504375001347,
          "durationTicks": 537,
          "midi": 30,
          "name": "F#1",
          "ticks": 656752,
          "time": 214.44731503333333,
          "velocity": 0.8346456692913385
        },
        {
          "duration": 0.37615919999996095,
          "durationTicks": 1152,
          "midi": 18,
          "name": "F#0",
          "ticks": 657289,
          "time": 214.62266007708334,
          "velocity": 0.7322834645669292
        },
        {
          "duration": 0.22791590416667873,
          "durationTicks": 698,
          "midi": 37,
          "name": "C#2",
          "ticks": 658441,
          "time": 214.9988192770833,
          "velocity": 0.889763779527559
        },
        {
          "duration": 0.2589359770833255,
          "durationTicks": 793,
          "midi": 31,
          "name": "G1",
          "ticks": 659139,
          "time": 215.22673518124998,
          "velocity": 0.8503937007874016
        },
        {
          "duration": 0.1498759312499942,
          "durationTicks": 459,
          "midi": 72,
          "name": "C5",
          "ticks": 660088,
          "time": 215.5366093833333,
          "velocity": 0.7007874015748031
        },
        {
          "duration": 0.21224260416667562,
          "durationTicks": 650,
          "midi": 72,
          "name": "C5",
          "ticks": 660547,
          "time": 215.6864853145833,
          "velocity": 0.8031496062992126
        },
        {
          "duration": 0.18840612708333992,
          "durationTicks": 577,
          "midi": 73,
          "name": "C#5",
          "ticks": 661205,
          "time": 215.90134013541666,
          "velocity": 0.8031496062992126
        },
        {
          "duration": 0.08620314999998868,
          "durationTicks": 264,
          "midi": 70,
          "name": "A#4",
          "ticks": 662046,
          "time": 216.1759494125,
          "velocity": 0.7795275590551181
        },
        {
          "duration": 0.10938657291666232,
          "durationTicks": 335,
          "midi": 34,
          "name": "A#1",
          "ticks": 662318,
          "time": 216.26476477916665,
          "velocity": 0.8740157480314961
        },
        {
          "duration": 0.28864994166667657,
          "durationTicks": 884,
          "midi": 32,
          "name": "G#1",
          "ticks": 662904,
          "time": 216.45610964999997,
          "velocity": 0.8267716535433071
        },
        {
          "duration": 0.195589722916651,
          "durationTicks": 599,
          "midi": 32,
          "name": "G#1",
          "ticks": 663788,
          "time": 216.74475959166665,
          "velocity": 0.7322834645669292
        },
        {
          "duration": 0.1599982708333414,
          "durationTicks": 490,
          "midi": 72,
          "name": "C5",
          "ticks": 664560,
          "time": 216.99683849999997,
          "velocity": 0.8188976377952756
        },
        {
          "duration": 0.22954853958333388,
          "durationTicks": 703,
          "midi": 72,
          "name": "C5",
          "ticks": 665050,
          "time": 217.1568367708333,
          "velocity": 0.7795275590551181
        },
        {
          "duration": 0.08261135208334736,
          "durationTicks": 253,
          "midi": 68,
          "name": "G#4",
          "ticks": 666235,
          "time": 217.5437713645833,
          "velocity": 0.7401574803149606
        },
        {
          "duration": 0.12832514375003257,
          "durationTicks": 393,
          "midi": 35,
          "name": "B1",
          "ticks": 666496,
          "time": 217.6289949333333,
          "velocity": 0.8818897637795275
        },
        {
          "duration": 0.14791676875000803,
          "durationTicks": 453,
          "midi": 31,
          "name": "G1",
          "ticks": 667069,
          "time": 217.81609495208332,
          "velocity": 0.8503937007874016
        },
        {
          "duration": 0.4868518812500042,
          "durationTicks": 1491,
          "midi": 33,
          "name": "A1",
          "ticks": 667522,
          "time": 217.96401172083333,
          "velocity": 0.7637795275590551
        },
        {
          "duration": 0.23575255416665186,
          "durationTicks": 722,
          "midi": 32,
          "name": "G#1",
          "ticks": 669013,
          "time": 218.45086360208333,
          "velocity": 0.905511811023622
        },
        {
          "duration": 0.30105797083334096,
          "durationTicks": 922,
          "midi": 67,
          "name": "G4",
          "ticks": 669735,
          "time": 218.68661615624998,
          "velocity": 0.7322834645669292
        },
        {
          "duration": 0.15150856666667778,
          "durationTicks": 464,
          "midi": 39,
          "name": "D#2",
          "ticks": 670665,
          "time": 218.99028634374997,
          "velocity": 0.8110236220472441
        },
        {
          "duration": 0.4417911437500095,
          "durationTicks": 1353,
          "midi": 58,
          "name": "A#3",
          "ticks": 671751,
          "time": 219.34489475624997,
          "velocity": 0.8188976377952756
        },
        {
          "duration": 0.13028430624999032,
          "durationTicks": 399,
          "midi": 32,
          "name": "G#1",
          "ticks": 673104,
          "time": 219.78668589999998,
          "velocity": 0.8976377952755905
        },
        {
          "duration": 0.3066089312499969,
          "durationTicks": 939,
          "midi": 36,
          "name": "C2",
          "ticks": 673712,
          "time": 219.98521436666664,
          "velocity": 0.8661417322834646
        },
        {
          "duration": 0.0633462541666745,
          "durationTicks": 194,
          "midi": 36,
          "name": "C2",
          "ticks": 674651,
          "time": 220.29182329791664,
          "velocity": 0.8582677165354331
        },
        {
          "duration": 0.11363142500002255,
          "durationTicks": 348,
          "midi": 32,
          "name": "G#1",
          "ticks": 674845,
          "time": 220.3551695520833,
          "velocity": 0.9133858267716536
        },
        {
          "duration": 0.11526406041664927,
          "durationTicks": 353,
          "midi": 70,
          "name": "A#4",
          "ticks": 675193,
          "time": 220.46880097708333,
          "velocity": 0.8110236220472441
        },
        {
          "duration": 0.2413035145833078,
          "durationTicks": 739,
          "midi": 70,
          "name": "A#4",
          "ticks": 675546,
          "time": 220.58406503749998,
          "velocity": 0.8110236220472441
        },
        {
          "duration": 0.13844748333335133,
          "durationTicks": 424,
          "midi": 36,
          "name": "C2",
          "ticks": 676285,
          "time": 220.8253685520833,
          "velocity": 0.8661417322834646
        },
        {
          "duration": 0.20146721041663795,
          "durationTicks": 617,
          "midi": 29,
          "name": "F1",
          "ticks": 677083,
          "time": 221.08593716458333,
          "velocity": 0.8582677165354331
        },
        {
          "duration": 0.16914102916666707,
          "durationTicks": 518,
          "midi": 68,
          "name": "G#4",
          "ticks": 678117,
          "time": 221.42356616875,
          "velocity": 0.7401574803149606
        },
        {
          "duration": 0.31281294583328645,
          "durationTicks": 958,
          "midi": 33,
          "name": "A1",
          "ticks": 678635,
          "time": 221.59270719791667,
          "velocity": 0.8503937007874016
        },
        {
          "duration": 0.4956681125000273,
          "durationTicks": 1518,
          "midi": 33,
          "name": "A1",
          "ticks": 679593,
          "time": 221.90552014374995,
          "velocity": 0.7559055118110236
        },
        {
          "duration": 0.1622839604166586,
          "durationTicks": 497,
          "midi": 33,
          "name": "A1",
          "ticks": 681111,
          "time": 222.40118825624998,
          "velocity": 0.8740157480314961
        },
        {
          "duration": 0.22922201250000285,
          "durationTicks": 702,
          "midi": 33,
          "name": "A1",
          "ticks": 681608,
          "time": 222.56347221666664,
          "velocity": 0.7952755905511811
        },
        {
          "duration": 0.1714267187500127,
          "durationTicks": 525,
          "midi": 67,
          "name": "G4",
          "ticks": 682310,
          "time": 222.79269422916664,
          "velocity": 0.7716535433070866
        },
        {
          "duration": 0.36211853541666983,
          "durationTicks": 1109,
          "midi": 31,
          "name": "G1",
          "ticks": 682835,
          "time": 222.96412094791665,
          "velocity": 0.8346456692913385
        },
        {
          "duration": 0.391179445833302,
          "durationTicks": 1198,
          "midi": 31,
          "name": "G1",
          "ticks": 683944,
          "time": 223.32623948333332,
          "velocity": 0.7795275590551181
        },
        {
          "duration": 0.20963038749999896,
          "durationTicks": 642,
          "midi": 29,
          "name": "F1",
          "ticks": 685409,
          "time": 223.80460166041664,
          "velocity": 0.889763779527559
        },
        {
          "duration": 0.3973834604166768,
          "durationTicks": 1217,
          "midi": 65,
          "name": "F4",
          "ticks": 686051,
          "time": 224.01423204791664,
          "velocity": 0.8031496062992126
        },
        {
          "duration": 0.3350167874999954,
          "durationTicks": 1026,
          "midi": 31,
          "name": "G1",
          "ticks": 687369,
          "time": 224.44459474374997,
          "velocity": 0.8818897637795275
        },
        {
          "duration": 0.4525665374999903,
          "durationTicks": 1386,
          "midi": 65,
          "name": "F4",
          "ticks": 688539,
          "time": 224.82663143124998,
          "velocity": 0.8346456692913385
        },
        {
          "duration": 0.43003616875000716,
          "durationTicks": 1317,
          "midi": 29,
          "name": "F1",
          "ticks": 689933,
          "time": 225.28181018541665,
          "velocity": 0.7716535433070866
        },
        {
          "duration": 0.7444817500000056,
          "durationTicks": 2280,
          "midi": 29,
          "name": "F1",
          "ticks": 691250,
          "time": 225.71184635416665,
          "velocity": 0.7952755905511811
        },
        {
          "duration": 0.30530282291664435,
          "durationTicks": 935,
          "midi": 29,
          "name": "F1",
          "ticks": 693530,
          "time": 226.45632810416666,
          "velocity": 0.84251968503937
        },
        {
          "duration": 0.3964038791666553,
          "durationTicks": 1214,
          "midi": 68,
          "name": "G#4",
          "ticks": 694465,
          "time": 226.7616309270833,
          "velocity": 0.7952755905511811
        },
        {
          "duration": 0.4809743937500457,
          "durationTicks": 1473,
          "midi": 32,
          "name": "G#1",
          "ticks": 695679,
          "time": 227.15803480624996,
          "velocity": 0.8110236220472441
        },
        {
          "duration": 0.16946755624996968,
          "durationTicks": 519,
          "midi": 32,
          "name": "G#1",
          "ticks": 697152,
          "time": 227.6390092,
          "velocity": 0.7716535433070866
        },
        {
          "duration": 0.3526492500000131,
          "durationTicks": 1080,
          "midi": 32,
          "name": "G#1",
          "ticks": 697671,
          "time": 227.80847675624997,
          "velocity": 0.8503937007874016
        },
        {
          "duration": 0.1008968687499987,
          "durationTicks": 309,
          "midi": 67,
          "name": "G4",
          "ticks": 698975,
          "time": 228.23426807291665,
          "velocity": 0.7480314960629921
        },
        {
          "duration": 0.06824416041666836,
          "durationTicks": 209,
          "midi": 36,
          "name": "C2",
          "ticks": 699385,
          "time": 228.3681441770833,
          "velocity": 0.984251968503937
        },
        {
          "duration": 0.307915039583321,
          "durationTicks": 943,
          "midi": 32,
          "name": "G#1",
          "ticks": 699594,
          "time": 228.43638833749998,
          "velocity": 0.8818897637795275
        },
        {
          "duration": 0.07281553958330278,
          "durationTicks": 223,
          "midi": 70,
          "name": "A#4",
          "ticks": 700609,
          "time": 228.76781332708333,
          "velocity": 0.7795275590551181
        },
        {
          "duration": 0.3359963687499885,
          "durationTicks": 1029,
          "midi": 70,
          "name": "A#4",
          "ticks": 700832,
          "time": 228.84062886666663,
          "velocity": 0.7637795275590551
        },
        {
          "duration": 0.32162917708336636,
          "durationTicks": 985,
          "midi": 33,
          "name": "A1",
          "ticks": 701861,
          "time": 229.17662523541662,
          "velocity": 0.8582677165354331
        },
        {
          "duration": 0.29616006458331867,
          "durationTicks": 907,
          "midi": 65,
          "name": "F4",
          "ticks": 702846,
          "time": 229.4982544125,
          "velocity": 0.7480314960629921
        },
        {
          "duration": 0.12963125208335669,
          "durationTicks": 397,
          "midi": 37,
          "name": "C#2",
          "ticks": 703887,
          "time": 229.83816910624998,
          "velocity": 0.8582677165354331
        },
        {
          "duration": 0.568157124999999,
          "durationTicks": 1740,
          "midi": 31,
          "name": "G1",
          "ticks": 704475,
          "time": 230.03016703125,
          "velocity": 0.8503937007874016
        },
        {
          "duration": 0.10448866666666845,
          "durationTicks": 320,
          "midi": 30,
          "name": "F#1",
          "ticks": 706215,
          "time": 230.59832415625,
          "velocity": 0.8661417322834646
        },
        {
          "duration": 0.31248641874998384,
          "durationTicks": 957,
          "midi": 18,
          "name": "F#0",
          "ticks": 706535,
          "time": 230.70281282291666,
          "velocity": 0.7637795275590551
        },
        {
          "duration": 0.06073403749999784,
          "durationTicks": 186,
          "midi": 36,
          "name": "C2",
          "ticks": 707498,
          "time": 231.01725840416665,
          "velocity": 0.84251968503937
        },
        {
          "duration": 0.34807787083332187,
          "durationTicks": 1066,
          "midi": 31,
          "name": "G1",
          "ticks": 707684,
          "time": 231.07799244166665,
          "velocity": 0.8582677165354331
        },
        {
          "duration": 0.09763159791665998,
          "durationTicks": 299,
          "midi": 31,
          "name": "G1",
          "ticks": 708750,
          "time": 231.42607031249997,
          "velocity": 0.8582677165354331
        },
        {
          "duration": 0.182855166666684,
          "durationTicks": 560,
          "midi": 72,
          "name": "C5",
          "ticks": 709049,
          "time": 231.52370191041663,
          "velocity": 0.8031496062992126
        },
        {
          "duration": 0.1632635416666517,
          "durationTicks": 500,
          "midi": 32,
          "name": "G#1",
          "ticks": 709624,
          "time": 231.7114549833333,
          "velocity": 0.8976377952755905
        },
        {
          "duration": 0.15869216250001728,
          "durationTicks": 486,
          "midi": 73,
          "name": "C#5",
          "ticks": 710124,
          "time": 231.87471852499996,
          "velocity": 0.8188976377952756
        },
        {
          "duration": 0.1946101416666579,
          "durationTicks": 596,
          "midi": 72,
          "name": "C5",
          "ticks": 710610,
          "time": 232.03341068749998,
          "velocity": 0.7874015748031497
        },
        {
          "duration": 0.16750839375001192,
          "durationTicks": 513,
          "midi": 32,
          "name": "G#1",
          "ticks": 711206,
          "time": 232.22802082916664,
          "velocity": 0.889763779527559
        },
        {
          "duration": 0.17110019166668167,
          "durationTicks": 524,
          "midi": 70,
          "name": "A#4",
          "ticks": 711719,
          "time": 232.39552922291665,
          "velocity": 0.7322834645669292
        },
        {
          "duration": 0.14530455208330295,
          "durationTicks": 445,
          "midi": 70,
          "name": "A#4",
          "ticks": 712243,
          "time": 232.56662941458333,
          "velocity": 0.7874015748031497
        },
        {
          "duration": 0.08555009583332662,
          "durationTicks": 262,
          "midi": 72,
          "name": "C5",
          "ticks": 712835,
          "time": 232.75993344791667,
          "velocity": 0.8188976377952756
        },
        {
          "duration": 0.3131394729166459,
          "durationTicks": 959,
          "midi": 32,
          "name": "G#1",
          "ticks": 713097,
          "time": 232.84548354375,
          "velocity": 0.84251968503937
        },
        {
          "duration": 0.2608951395833401,
          "durationTicks": 799,
          "midi": 34,
          "name": "A#1",
          "ticks": 714056,
          "time": 233.15862301666664,
          "velocity": 0.8188976377952756
        },
        {
          "duration": 0.21812009166666257,
          "durationTicks": 668,
          "midi": 32,
          "name": "G#1",
          "ticks": 715006,
          "time": 233.4688237458333,
          "velocity": 0.7874015748031497
        },
        {
          "duration": 0.12179460208335513,
          "durationTicks": 373,
          "midi": 32,
          "name": "G#1",
          "ticks": 715674,
          "time": 233.68694383749997,
          "velocity": 0.8188976377952756
        },
        {
          "duration": 0.1622839604166586,
          "durationTicks": 497,
          "midi": 67,
          "name": "G4",
          "ticks": 716047,
          "time": 233.80873843958332,
          "velocity": 0.7874015748031497
        },
        {
          "duration": 0.12538639999996803,
          "durationTicks": 384,
          "midi": 40,
          "name": "E2",
          "ticks": 716619,
          "time": 233.99551193124998,
          "velocity": 0.8582677165354331
        },
        {
          "duration": 0.1838347479166771,
          "durationTicks": 563,
          "midi": 68,
          "name": "G#4",
          "ticks": 717003,
          "time": 234.12089833124995,
          "velocity": 0.7322834645669292
        },
        {
          "duration": 0.14171275416666163,
          "durationTicks": 434,
          "midi": 39,
          "name": "D#2",
          "ticks": 717572,
          "time": 234.30669224166664,
          "velocity": 0.7952755905511811
        },
        {
          "duration": 0.11330489791669152,
          "durationTicks": 347,
          "midi": 40,
          "name": "E2",
          "ticks": 718120,
          "time": 234.4856290833333,
          "velocity": 0.8976377952755905
        },
        {
          "duration": 0.392812081250014,
          "durationTicks": 1203,
          "midi": 70,
          "name": "A#4",
          "ticks": 718608,
          "time": 234.64497429999997,
          "velocity": 0.7559055118110236
        },
        {
          "duration": 0.3350167874999954,
          "durationTicks": 1026,
          "midi": 36,
          "name": "C2",
          "ticks": 720352,
          "time": 235.21443753333332,
          "velocity": 0.8188976377952756
        },
        {
          "duration": 0.11885585833331902,
          "durationTicks": 364,
          "midi": 37,
          "name": "C#2",
          "ticks": 721505,
          "time": 235.59092326041664,
          "velocity": 0.8661417322834646
        },
        {
          "duration": 0.5763203020833316,
          "durationTicks": 1765,
          "midi": 36,
          "name": "C2",
          "ticks": 722022,
          "time": 235.75973776249998,
          "velocity": 0.8110236220472441
        },
        {
          "duration": 0.3327310979166782,
          "durationTicks": 1019,
          "midi": 72,
          "name": "C5",
          "ticks": 723787,
          "time": 236.3360580645833,
          "velocity": 0.8110236220472441
        },
        {
          "duration": 0.4460359958333129,
          "durationTicks": 1366,
          "midi": 72,
          "name": "C5",
          "ticks": 724806,
          "time": 236.6687891625,
          "velocity": 0.7559055118110236
        },
        {
          "duration": 0.21354871249999974,
          "durationTicks": 654,
          "midi": 72,
          "name": "C5",
          "ticks": 726172,
          "time": 237.1148251583333,
          "velocity": 0.8188976377952756
        },
        {
          "duration": 0.25632376041667726,
          "durationTicks": 785,
          "midi": 72,
          "name": "C5",
          "ticks": 726826,
          "time": 237.3283738708333,
          "velocity": 0.7952755905511811
        },
        {
          "duration": 0.2625277749999668,
          "durationTicks": 804,
          "midi": 30,
          "name": "F#1",
          "ticks": 727716,
          "time": 237.618982975,
          "velocity": 0.8346456692913385
        },
        {
          "duration": 0.3395881666666867,
          "durationTicks": 1040,
          "midi": 32,
          "name": "G#1",
          "ticks": 728520,
          "time": 237.88151074999996,
          "velocity": 0.6456692913385826
        },
        {
          "duration": 0.28211939999999913,
          "durationTicks": 864,
          "midi": 32,
          "name": "G#1",
          "ticks": 729560,
          "time": 238.22109891666665,
          "velocity": 0.8267716535433071
        },
        {
          "duration": 0.29681311874998073,
          "durationTicks": 909,
          "midi": 29,
          "name": "F1",
          "ticks": 730424,
          "time": 238.50321831666665,
          "velocity": 0.7637795275590551
        },
        {
          "duration": 0.2817928729166681,
          "durationTicks": 863,
          "midi": 31,
          "name": "G1",
          "ticks": 731570,
          "time": 238.87741835416665,
          "velocity": 0.8031496062992126
        },
        {
          "duration": 0.3102007291666382,
          "durationTicks": 950,
          "midi": 29,
          "name": "F1",
          "ticks": 732433,
          "time": 239.15921122708332,
          "velocity": 0.5748031496062992
        },
        {
          "duration": 0.4571379166666816,
          "durationTicks": 1400,
          "midi": 32,
          "name": "G#1",
          "ticks": 733390,
          "time": 239.4716976458333,
          "velocity": 0.7716535433070866
        },
        {
          "duration": 0.14628413333332446,
          "durationTicks": 448,
          "midi": 29,
          "name": "F1",
          "ticks": 734790,
          "time": 239.92883556249998,
          "velocity": 0.6850393700787402
        },
        {
          "duration": 0.28832341458334554,
          "durationTicks": 883,
          "midi": 31,
          "name": "G1",
          "ticks": 735390,
          "time": 240.12475181249997,
          "velocity": 0.7716535433070866
        },
        {
          "duration": 0.30726198541665894,
          "durationTicks": 941,
          "midi": 29,
          "name": "F1",
          "ticks": 736273,
          "time": 240.4130752270833,
          "velocity": 0.7244094488188977
        },
        {
          "duration": 0.258282922916635,
          "durationTicks": 791,
          "midi": 32,
          "name": "G#1",
          "ticks": 737293,
          "time": 240.74613285208332,
          "velocity": 0.84251968503937
        },
        {
          "duration": 0.2713440062499899,
          "durationTicks": 831,
          "midi": 29,
          "name": "F1",
          "ticks": 738249,
          "time": 241.05829274374997,
          "velocity": 0.8267716535433071
        },
        {
          "duration": 0.2974661729166428,
          "durationTicks": 911,
          "midi": 31,
          "name": "G1",
          "ticks": 739206,
          "time": 241.37077916249999,
          "velocity": 0.7874015748031497
        },
        {
          "duration": 0.3046497687500107,
          "durationTicks": 933,
          "midi": 29,
          "name": "F1",
          "ticks": 740117,
          "time": 241.66824533541663,
          "velocity": 0.7007874015748031
        },
        {
          "duration": 0.11559058750000872,
          "durationTicks": 354,
          "midi": 32,
          "name": "G#1",
          "ticks": 741057,
          "time": 241.97518079374998,
          "velocity": 0.889763779527559
        },
        {
          "duration": 0.3124864187499554,
          "durationTicks": 957,
          "midi": 30,
          "name": "F#1",
          "ticks": 741411,
          "time": 242.09077138125,
          "velocity": 0.7244094488188977
        },
        {
          "duration": 0.10154992291663234,
          "durationTicks": 311,
          "midi": 29,
          "name": "F1",
          "ticks": 742579,
          "time": 242.47215501458334,
          "velocity": 0.7716535433070866
        },
        {
          "duration": 0.09306021874999715,
          "durationTicks": 285,
          "midi": 32,
          "name": "G#1",
          "ticks": 743055,
          "time": 242.62758190625,
          "velocity": 0.8503937007874016
        },
        {
          "duration": 0.5070965604166418,
          "durationTicks": 1553,
          "midi": 30,
          "name": "F#1",
          "ticks": 743340,
          "time": 242.72064212499998,
          "velocity": 0.6850393700787402
        },
        {
          "duration": 0.2703644250000252,
          "durationTicks": 828,
          "midi": 31,
          "name": "G1",
          "ticks": 744993,
          "time": 243.26039139374996,
          "velocity": 0.8267716535433071
        },
        {
          "duration": 0.29354784791667043,
          "durationTicks": 899,
          "midi": 29,
          "name": "F1",
          "ticks": 745821,
          "time": 243.53075581874998,
          "velocity": 0.8110236220472441
        },
        {
          "duration": 0.2703644250000252,
          "durationTicks": 828,
          "midi": 32,
          "name": "G#1",
          "ticks": 746912,
          "time": 243.88699686666664,
          "velocity": 0.8110236220472441
        },
        {
          "duration": 0.3297923541666421,
          "durationTicks": 1010,
          "midi": 32,
          "name": "G#1",
          "ticks": 747740,
          "time": 244.15736129166666,
          "velocity": 0.6535433070866141
        },
        {
          "duration": 0.4502808479166731,
          "durationTicks": 1379,
          "midi": 32,
          "name": "G#1",
          "ticks": 748750,
          "time": 244.4871536458333,
          "velocity": 0.8110236220472441
        },
        {
          "duration": 0.15346772916666396,
          "durationTicks": 470,
          "midi": 29,
          "name": "F1",
          "ticks": 750129,
          "time": 244.93743449374998,
          "velocity": 0.7401574803149606
        },
        {
          "duration": 0.17730420624997123,
          "durationTicks": 543,
          "midi": 32,
          "name": "G#1",
          "ticks": 750758,
          "time": 245.14282002916664,
          "velocity": 0.8031496062992126
        },
        {
          "duration": 0.09959076041667458,
          "durationTicks": 305,
          "midi": 31,
          "name": "G1",
          "ticks": 751301,
          "time": 245.3201242354166,
          "velocity": 0.7244094488188977
        },
        {
          "duration": 0.2657930458333624,
          "durationTicks": 814,
          "midi": 31,
          "name": "G1",
          "ticks": 751606,
          "time": 245.4197149958333,
          "velocity": 0.7874015748031497
        },
        {
          "duration": 0.3650572791666775,
          "durationTicks": 1118,
          "midi": 32,
          "name": "G#1",
          "ticks": 752420,
          "time": 245.68550804166665,
          "velocity": 0.84251968503937
        },
        {
          "duration": 0.3088946208333141,
          "durationTicks": 946,
          "midi": 29,
          "name": "F1",
          "ticks": 753538,
          "time": 246.05056532083333,
          "velocity": 0.8503937007874016
        },
        {
          "duration": 0.6037485770833086,
          "durationTicks": 1849,
          "midi": 32,
          "name": "G#1",
          "ticks": 754597,
          "time": 246.3963575020833,
          "velocity": 0.7559055118110236
        },
        {
          "duration": 0.6533806937500231,
          "durationTicks": 2001,
          "midi": 32,
          "name": "G#1",
          "ticks": 756446,
          "time": 247.0001060791666,
          "velocity": 0.8346456692913385
        },
        {
          "duration": 0.5991771979166742,
          "durationTicks": 1835,
          "midi": 32,
          "name": "G#1",
          "ticks": 758447,
          "time": 247.65348677291664,
          "velocity": 0.7874015748031497
        },
        {
          "duration": 0.29354784791667043,
          "durationTicks": 899,
          "midi": 32,
          "name": "G#1",
          "ticks": 760282,
          "time": 248.2526639708333,
          "velocity": 0.8267716535433071
        },
        {
          "duration": 0.33109846249999464,
          "durationTicks": 1014,
          "midi": 29,
          "name": "F1",
          "ticks": 761181,
          "time": 248.54621181874998,
          "velocity": 0.7874015748031497
        },
        {
          "duration": 0.11591711458331133,
          "durationTicks": 355,
          "midi": 32,
          "name": "G#1",
          "ticks": 762195,
          "time": 248.87731028124998,
          "velocity": 0.8346456692913385
        },
        {
          "duration": 0.17632462500000656,
          "durationTicks": 540,
          "midi": 31,
          "name": "G1",
          "ticks": 762550,
          "time": 248.9932273958333,
          "velocity": 0.6299212598425197
        },
        {
          "duration": 0.1028560312500133,
          "durationTicks": 315,
          "midi": 29,
          "name": "F1",
          "ticks": 763090,
          "time": 249.1695520208333,
          "velocity": 0.6220472440944882
        },
        {
          "duration": 0.22758937708331928,
          "durationTicks": 697,
          "midi": 29,
          "name": "F1",
          "ticks": 763405,
          "time": 249.2724080520833,
          "velocity": 0.6062992125984252
        },
        {
          "duration": 0.46399498541669004,
          "durationTicks": 1421,
          "midi": 31,
          "name": "G1",
          "ticks": 764110,
          "time": 249.5026096458333,
          "velocity": 0.8267716535433071
        },
        {
          "duration": 0.131263887499955,
          "durationTicks": 402,
          "midi": 29,
          "name": "F1",
          "ticks": 765531,
          "time": 249.96660463125,
          "velocity": 0.7637795275590551
        },
        {
          "duration": 0.08620314999998868,
          "durationTicks": 264,
          "midi": 32,
          "name": "G#1",
          "ticks": 766104,
          "time": 250.15370464999998,
          "velocity": 0.889763779527559
        },
        {
          "duration": 0.4584440250000057,
          "durationTicks": 1404,
          "midi": 31,
          "name": "G1",
          "ticks": 766368,
          "time": 250.23990779999997,
          "velocity": 0.7086614173228346
        },
        {
          "duration": 0.2670991541666581,
          "durationTicks": 818,
          "midi": 32,
          "name": "G#1",
          "ticks": 768023,
          "time": 250.78031012291663,
          "velocity": 0.8346456692913385
        },
        {
          "duration": 0.28636425208335936,
          "durationTicks": 877,
          "midi": 29,
          "name": "F1",
          "ticks": 768841,
          "time": 251.0474092770833,
          "velocity": 0.8346456692913385
        },
        {
          "duration": 0.17730420624997123,
          "durationTicks": 543,
          "midi": 32,
          "name": "G#1",
          "ticks": 769943,
          "time": 251.40724212291664,
          "velocity": 0.8582677165354331
        },
        {
          "duration": 0.42024035625001943,
          "durationTicks": 1287,
          "midi": 29,
          "name": "F1",
          "ticks": 770486,
          "time": 251.5845463291666,
          "velocity": 0.6929133858267716
        },
        {
          "duration": 0.1299577791666593,
          "durationTicks": 398,
          "midi": 32,
          "name": "G#1",
          "ticks": 771780,
          "time": 252.00707237499998,
          "velocity": 0.8976377952755905
        },
        {
          "duration": 0.17077366458335064,
          "durationTicks": 523,
          "midi": 30,
          "name": "F#1",
          "ticks": 772178,
          "time": 252.13703015416664,
          "velocity": 0.7637795275590551
        },
        {
          "duration": 0.32587402916666974,
          "durationTicks": 998,
          "midi": 29,
          "name": "F1",
          "ticks": 772701,
          "time": 252.30780381875,
          "velocity": 0.7480314960629921
        },
        {
          "duration": 0.08685620416665074,
          "durationTicks": 266,
          "midi": 32,
          "name": "G#1",
          "ticks": 773765,
          "time": 252.65522863541665,
          "velocity": 0.905511811023622
        },
        {
          "duration": 0.1946101416666579,
          "durationTicks": 596,
          "midi": 30,
          "name": "F#1",
          "ticks": 774164,
          "time": 252.78551294166664,
          "velocity": 0.8031496062992126
        },
        {
          "duration": 0.280486764583344,
          "durationTicks": 859,
          "midi": 32,
          "name": "G#1",
          "ticks": 774760,
          "time": 252.9801230833333,
          "velocity": 0.6062992125984252
        },
        {
          "duration": 0.3121598916666528,
          "durationTicks": 956,
          "midi": 31,
          "name": "G1",
          "ticks": 775626,
          "time": 253.2628955375,
          "velocity": 0.8346456692913385
        },
        {
          "duration": 0.30301713333332714,
          "durationTicks": 928,
          "midi": 29,
          "name": "F1",
          "ticks": 776582,
          "time": 253.57505542916664,
          "velocity": 0.8110236220472441
        },
        {
          "duration": 0.16456965000000423,
          "durationTicks": 504,
          "midi": 32,
          "name": "G#1",
          "ticks": 777643,
          "time": 253.9215006645833,
          "velocity": 0.8503937007874016
        },
        {
          "duration": 0.10579477499999257,
          "durationTicks": 324,
          "midi": 31,
          "name": "G1",
          "ticks": 778147,
          "time": 254.0860703145833,
          "velocity": 0.6692913385826772
        },
        {
          "duration": 0.33142498958332567,
          "durationTicks": 1015,
          "midi": 32,
          "name": "G#1",
          "ticks": 778471,
          "time": 254.1918650895833,
          "velocity": 0.5984251968503937
        },
        {
          "duration": 0.3170577979166751,
          "durationTicks": 971,
          "midi": 32,
          "name": "G#1",
          "ticks": 779486,
          "time": 254.52329007916663,
          "velocity": 0.8346456692913385
        },
        {
          "duration": 0.24097698750000518,
          "durationTicks": 738,
          "midi": 29,
          "name": "F1",
          "ticks": 780617,
          "time": 254.89259221041664,
          "velocity": 0.7401574803149606
        },
        {
          "duration": 0.2370586625000044,
          "durationTicks": 726,
          "midi": 32,
          "name": "G#1",
          "ticks": 781501,
          "time": 255.1812421520833,
          "velocity": 0.8503937007874016
        },
        {
          "duration": 0.3670164416666637,
          "durationTicks": 1124,
          "midi": 29,
          "name": "F1",
          "ticks": 782227,
          "time": 255.41830081458332,
          "velocity": 0.7559055118110236
        },
        {
          "duration": 0.5106883583333115,
          "durationTicks": 1564,
          "midi": 32,
          "name": "G#1",
          "ticks": 783358,
          "time": 255.78760294583333,
          "velocity": 0.8031496062992126
        },
        {
          "duration": 0.6726457916666959,
          "durationTicks": 2060,
          "midi": 32,
          "name": "G#1",
          "ticks": 784922,
          "time": 256.29829130416664,
          "velocity": 0.5826771653543307
        }
      ],
      "endOfTrackTicks": 786982
    }
  ]
}
